{
.appVersion = "3151";
.formatVersion = 3;
axes = (
{
name = Weight;
tag = wght;
},
{
name = Width;
tag = wdth;
},
{
name = Slant;
tag = slnt;
}
);
classes = (
{
code = "zero one two three four five six seven eight nine ";
name = Num;
},
{
code = "zero.canadian one.canadian two.canadian three.canadian four.canadian five.canadian six.canadian seven.canadian eight.canadian nine.canadian 
";
name = Num_can;
},
{

glyphs = (
{
glyphname = idotless;
lastChange = "2023-01-13 15:28:14 +0000";
layers = (
{
layerId = "F8006AA5-6E21-4BD1-AC52-9C52C7F343AA";
shapes = (
{
closed = 1;
nodes = (
(173,539,l),
(74,539,l),
(74,0,l),
(173,0,l)
);
}
);
width = 247;
}
);
note = dotlessi;
unicode = 305;
},
{
glyphname = "acuteFinal-canadian";
lastChange = "2023-01-13 15:28:14 +0000";
layers = (
{
layerId = "F8006AA5-6E21-4BD1-AC52-9C52C7F343AA";
shapes = (
{
closed = 1;
nodes = (
(121,357,l),
(287,714,l),
(208,714,l),
(42,357,l)
);
}
);
width = 329;
}
);
metricRight = "=|";
note = uni141F;
unicode = 5151;
},
{
glyphname = "graveFinal-canadian";
kernLeft = mwestleft;
kernRight = mwestright;
lastChange = "2023-01-13 15:28:14 +0000";
layers = (
{
layerId = "F8006AA5-6E21-4BD1-AC52-9C52C7F343AA";
shapes = (
{
closed = 1;
nodes = (
(287,357,l),
(121,714,l),
(42,714,l),
(208,357,l)
);
}
);
width = 329;
}
);
metricLeft = "=|acuteFinal-canadian";
metricRight = "=|acuteFinal-canadian";
note = uni1420;
unicode = 5152;
},
{
glyphname = "ringBottomhalfFinal-canadian";
kernLeft = mwestleft;
kernRight = mwestright;
lastChange = "2023-01-13 15:28:14 +0000";
layers = (
{
layerId = "F8006AA5-6E21-4BD1-AC52-9C52C7F343AA";
shapes = (
{
closed = 1;
nodes = (
(315,351,o),
(373,410,o),
(373,518,cs),
(373,714,l),
(302,714,l),
(302,518,ls),
(302,448,o),
(273,416,o),
(220,416,cs),
(167,416,o),
(137,449,o),
(137,518,cs),
(137,714,l),
(66,714,l),
(66,517,ls),
(66,411,o),
(126,351,o),
(220,351,cs)
);
}
);
width = 439;
}
);
metricLeft = "ai-canadian";
metricRight = "==|ai-canadian";
note = uni1421;
unicode = 5153;
},
{
glyphname = "ringTophalfFinal-canadian";
lastChange = "2023-01-13 15:28:14 +0000";
layers = (
{
layerId = "F8006AA5-6E21-4BD1-AC52-9C52C7F343AA";
shapes = (
{
closed = 1;
nodes = (
(137,357,l),
(137,553,ls),
(137,622,o),
(167,655,o),
(220,655,cs),
(273,655,o),
(302,623,o),
(302,553,cs),
(302,357,l),
(373,357,l),
(373,553,ls),
(373,661,o),
(315,720,o),
(220,720,cs),
(126,720,o),
(66,660,o),
(66,554,cs),
(66,357,l)
);
}
);
width = 439;
}
);
metricLeft = "ai-canadian";
metricRight = "==|ai-canadian";
note = uni1422;
unicode = 5154;
},
{
glyphname = "ringRighthalfFinal-canadian";
kernLeft = mwestleft;
kernRight = mwestright;
lastChange = "2023-01-13 15:30:41 +0000";
layers = (
{
layerId = "F8006AA5-6E21-4BD1-AC52-9C52C7F343AA";
shapes = (
{
closed = 1;
nodes = (
(141,357,ls),
(255,357,o),
(319,425,o),
(319,535,cs),
(319,646,o),
(255,714,o),
(140,714,cs),
(63,714,l),
(63,648,l),
(136,648,ls),
(210,648,o),
(248,608,o),
(248,535,cs),
(248,462,o),
(210,423,o),
(136,423,cs),
(63,423,l),
(63,357,l)
);
}
);
width = 382;
}
);
metricLeft = "=|t-canadian";
metricWidth = "t-canadian";
note = uni1423;
unicode = 5155;
},
{
glyphname = "ringFinal-canadian";
kernLeft = mwestleft;
kernRight = mwestright;
lastChange = "2023-01-13 15:28:14 +0000";
layers = (
{
layerId = "F8006AA5-6E21-4BD1-AC52-9C52C7F343AA";
shapes = (
{
closed = 1;
nodes = (
(345,368,o),
(421,443,o),
(421,544,cs),
(421,645,o),
(344,720,o),
(242,720,cs),
(139,720,o),
(62,645,o),
(62,544,cs),
(62,443,o),
(138,368,o),
(242,368,cs)
);
},
{
closed = 1;
nodes = (
(174,429,o),
(129,478,o),
(129,544,cs),
(129,610,o),
(175,659,o),
(242,659,cs),
(307,659,o),
(355,610,o),
(355,544,cs),
(355,478,o),
(308,429,o),
(242,429,cs)
);
}
);
width = 484;
}
);
note = uni1424;
unicode = 5156;
},
{
glyphname = "doubleacuteFinal-canadian";
lastChange = "2023-01-13 15:28:14 +0000";
layers = (
{
layerId = "F8006AA5-6E21-4BD1-AC52-9C52C7F343AA";
shapes = (
{
closed = 1;
nodes = (
(287,714,l),
(208,714,l),
(42,357,l),
(121,357,l)
);
},
{
closed = 1;
nodes = (
(443,714,l),
(364,714,l),
(198,357,l),
(277,357,l)
);
}
);
width = 485;
}
);
metricLeft = "acuteFinal-canadian";
metricRight = "=|";
note = uni1425;
unicode = 5157;
},
{
glyphname = "doubleshortverticalstrokesFinal-canadian";
kernLeft = mwestleft;
kernRight = mwestright;
lastChange = "2023-01-13 15:28:14 +0000";
layers = (
{
layerId = "F8006AA5-6E21-4BD1-AC52-9C52C7F343AA";
shapes = (
{
closed = 1;
nodes = (
(137,714,l),
(66,714,l),
(66,357,l),
(137,357,l)
);
},
{
closed = 1;
nodes = (
(276,714,l),
(205,714,l),
(205,357,l),
(276,357,l)
);
}
);
width = 342;
}
);
metricLeft = "pWestCree-canadian";
metricRight = "pWestCree-canadian";
note = uni1426;
unicode = 5158;
},
{
glyphname = "middledotFinal-canadian";
lastChange = "2023-01-13 15:28:14 +0000";
layers = (
{
layerId = "F8006AA5-6E21-4BD1-AC52-9C52C7F343AA";
shapes = (
{
closed = 1;
nodes = (
(148,310,o),
(173,335,o),
(173,367,cs),
(173,399,o),
(148,424,o),
(116,424,cs),
(84,424,o),
(59,399,o),
(59,367,cs),
(59,335,o),
(84,310,o),
(116,310,cs)
);
}
);
width = 232;
}
);
note = uni1427;
unicode = 5159;
},
{
glyphname = "shorthorizontalstrokeFinal-canadian";
kernLeft = mwestleft;
kernRight = mwestright;
lastChange = "2023-01-13 15:30:41 +0000";
layers = (
{
layerId = "F8006AA5-6E21-4BD1-AC52-9C52C7F343AA";
shapes = (
{
closed = 1;
nodes = (
(396,506,l),
(396,577,l),
(64,577,l),
(64,506,l)
);
}
);
width = 460;
}
);
metricRight = "=|";
note = uni1428;
unicode = 5160;
},
{
glyphname = "plusFinal-canadian";
kernLeft = mwestleft;
kernRight = mwestright;
lastChange = "2023-01-13 15:28:14 +0000";
layers = (
{
layerId = "F8006AA5-6E21-4BD1-AC52-9C52C7F343AA";
shapes = (
{
closed = 1;
nodes = (
(266,375,l),
(266,513,l),
(397,513,l),
(397,579,l),
(266,579,l),
(266,714,l),
(196,714,l),
(196,579,l),
(64,579,l),
(64,513,l),
(196,513,l),
(196,375,l)
);
}
);
width = 461;
}
);
metricLeft = "shorthorizontalstrokeFinal-canadian";
metricRight = "shorthorizontalstrokeFinal-canadian";
note = uni1429;
unicode = 5161;
},
{
glyphname = "downtackFinal-canadian";
kernLeft = mwestleft;
kernRight = mwestright;
lastChange = "2023-01-13 15:28:14 +0000";
layers = (
{
layerId = "F8006AA5-6E21-4BD1-AC52-9C52C7F343AA";
shapes = (
{
closed = 1;
nodes = (
(266,357,l),
(266,647,l),
(397,647,l),
(397,714,l),
(64,714,l),
(64,647,l),
(196,647,l),
(196,357,l)
);
}
);
width = 461;
}
);
metricLeft = "shorthorizontalstrokeFinal-canadian";
metricRight = "shorthorizontalstrokeFinal-canadian";
note = uni142A;
unicode = 5162;
},
{
glyphname = "thFinalWoodScree-canadian";
lastChange = "2023-01-13 15:30:41 +0000";
layers = (
{
layerId = "F8006AA5-6E21-4BD1-AC52-9C52C7F343AA";
shapes = (
{
closed = 1;
nodes = (
(268,357,l),
(268,435,l),
(398,435,l),
(398,493,l),
(268,493,l),
(268,578,l),
(398,578,l),
(398,636,l),
(268,636,l),
(268,714,l),
(198,714,l),
(198,636,l),
(66,636,l),
(66,578,l),
(198,578,l),
(198,493,l),
(66,493,l),
(66,435,l),
(198,435,l),
(198,357,l)
);
}
);
width = 464;
}
);
metricLeft = "hyphen-canadian";
metricRight = "hyphen-canadian";
note = uni167E;
unicode = 5758;
},
{
glyphname = "ringSmallFinal-canadian";
kernLeft = mwestleft;
kernRight = mwestright;
lastChange = "2023-01-13 15:28:14 +0000";
layers = (
{
layerId = "F8006AA5-6E21-4BD1-AC52-9C52C7F343AA";
shapes = (
{
closed = 1;
nodes = (
(232,517,o),
(282,560,o),
(282,622,cs),
(282,684,o),
(232,727,o),
(174,727,cs),
(115,727,o),
(66,684,o),
(66,622,cs),
(66,560,o),
(115,517,o),
(174,517,cs)
);
},
{
closed = 1;
nodes = (
(138,563,o),
(116,589,o),
(116,622,cs),
(116,655,o),
(140,681,o),
(174,681,cs),
(209,681,o),
(232,655,o),
(232,622,cs),
(232,589,o),
(209,563,o),
(174,563,cs)
);
}
);
width = 349;
}
);
note = g725;
unicode = 6366;
},
{
glyphname = "raiseddotFinal-canadian";
kernLeft = mwestleft;
kernRight = mwestright;
lastChange = "2023-01-13 15:28:14 +0000";
layers = (
{
layerId = "F8006AA5-6E21-4BD1-AC52-9C52C7F343AA";
shapes = (
{
closed = 1;
nodes = (
(149,614,o),
(174,639,o),
(174,671,cs),
(174,702,o),
(149,727,o),
(117,727,cs),
(85,727,o),
(60,702,o),
(60,671,cs),
(60,639,o),
(85,614,o),
(117,614,cs)
);
}
);
width = 234;
}
);
note = g725;
unicode = 6367;
},
{
glyphname = "plusFinal-canadian.base";
lastChange = "2023-01-13 15:28:14 +0000";
layers = (
{
layerId = "F8006AA5-6E21-4BD1-AC52-9C52C7F343AA";
shapes = (
{
closed = 1;
nodes = (
(266,0,l),
(266,138,l),
(397,138,l),
(397,204,l),
(266,204,l),
(266,339,l),
(196,339,l),
(196,204,l),
(64,204,l),
(64,138,l),
(196,138,l),
(196,0,l)
);
}
);
width = 461;
}
);
metricLeft = "shorthorizontalstrokeFinal-canadian";
metricRight = "shorthorizontalstrokeFinal-canadian";
note = uni1429;
},
{
glyphname = "e-canadian";
kernLeft = ecanleft;
kernRight = ecanright;
lastChange = "2023-01-13 15:30:41 +0000";
layers = (
{
anchors = (
{
name = middle_center_can;
pos = (368,470);
},
{
name = top_center_can;
pos = (368,714);
},
{
name = top_left_can;
pos = (134,714);
},
{
name = top_right_can;
pos = (604,714);
}
);
layerId = "F8006AA5-6E21-4BD1-AC52-9C52C7F343AA";
shapes = (
{
closed = 1;
nodes = (
(389,0,l),
(708,687,l),
(708,714,l),
(33,714,l),
(33,687,l),
(352,0,l)
);
},
{
closed = 1;
nodes = (
(388,120,l),
(148,655,l),
(135,632,l),
(606,632,l),
(597,655,l),
(357,120,l)
);
}
);
width = 741;
}
);
metricRight = "=|";
note = uni1401;
unicode = 5121;
},
{
glyphname = "i-canadian";
kernLeft = icanleft;
kernRight = icanright;
lastChange = "2023-01-13 15:30:41 +0000";
layers = (
{
anchors = (
{
name = middle_center_can;
pos = (370,367);
},
{
name = top_center_can;
pos = (371,714);
},
{
name = top_left_can;
pos = (134,714);
},
{
name = top_right_can;
pos = (604,714);
}
);
layerId = "F8006AA5-6E21-4BD1-AC52-9C52C7F343AA";
shapes = (
{
closed = 1;
nodes = (
(708,0,l),
(708,27,l),
(389,714,l),
(352,714,l),
(33,27,l),
(33,0,l)
);
},
{
closed = 1;
nodes = (
(385,594,l),
(354,594,l),
(594,59,l),
(606,82,l),
(135,82,l),
(145,59,l)
);
}
);
width = 741;
}
);
metricLeft = "e-canadian";
metricWidth = "e-canadian";
note = uni1403;
unicode = 5123;
},
{
glyphname = "o-canadian";
kernLeft = ocanleft;
kernRight = ocanright;
lastChange = "2023-01-13 15:28:14 +0000";
layers = (
{
anchors = (
{
name = middle_center_can;
pos = (282,357);
},
{
name = top_center_can;
pos = (371,714);
},
{
name = top_double;
pos = (469,714);
},
{
name = top_left_can;
pos = (121,714);
},
{
name = top_right_can;
pos = (619,714);
}
);
layerId = "F8006AA5-6E21-4BD1-AC52-9C52C7F343AA";
shapes = (
{
closed = 1;
nodes = (
(105,0,l),
(666,339,l),
(666,375,l),
(105,714,l),
(78,714,l),
(78,0,l)
);
},
{
closed = 1;
nodes = (
(164,604,l),
(138,600,l),
(561,343,l),
(561,372,l),
(138,116,l),
(164,111,l)
);
}
);
width = 701;
}
);
metricLeft = "nunavuth-canadian";
note = uni1405;
unicode = 5125;
},
{
glyphname = "eeCarrier-canadian";
lastChange = "2023-01-13 15:28:14 +0000";
layers = (
{
layerId = "F8006AA5-6E21-4BD1-AC52-9C52C7F343AA";
shapes = (
{
closed = 1;
nodes = (
(105,0,l),
(666,339,l),
(666,375,l),
(105,714,l),
(78,714,l),
(78,0,l)
);
},
{
closed = 1;
nodes = (
(162,604,l),
(138,602,l),
(561,345,l),
(561,370,l),
(138,114,l),
(162,111,l)
);
},
{
closed = 1;
nodes = (
(300,442,l),
(261,442,l),
(261,272,l),
(300,272,l)
);
}
);
width = 701;
}
);
metricLeft = "nunavuth-canadian";
metricRight = "o-canadian";
note = uni1408;
unicode = 5128;
},
{
glyphname = "a-canadian";
kernLeft = acanleft;
kernRight = acanright;
lastChange = "2023-01-13 15:30:41 +0000";
layers = (
{
anchors = (
{
name = middle_center_can;
pos = (414,357);
},
{
name = top_center_can;
pos = (324,714);
},
{
name = top_left_can;
pos = (80,714);
},
{
name = top_right_can;
pos = (579,714);
}
);
layerId = "F8006AA5-6E21-4BD1-AC52-9C52C7F343AA";
shapes = (
{
closed = 1;
nodes = (
(622,0,l),
(622,714,l),
(596,714,l),
(35,375,l),
(35,339,l),
(596,0,l)
);
},
{
closed = 1;
nodes = (
(562,115,l),
(140,372,l),
(140,343,l),
(562,600,l),
(537,604,l),
(537,111,l)
);
}
);
width = 700;
}
);
metricRight = "nunavuth-canadian";
note = uni140A;
unicode = 5130;
},
{
glyphname = "ai-canadian";
lastChange = "2023-01-13 15:30:41 +0000";
layers = (
{
layerId = "F8006AA5-6E21-4BD1-AC52-9C52C7F343AA";
shapes = (
{
closed = 1;
nodes = (
(273,351,o),
(315,382,o),
(335,444,c),
(313,444,l),
(333,382,o),
(377,351,o),
(439,351,cs),
(526,351,o),
(582,407,o),
(582,514,cs),
(582,714,l),
(515,714,l),
(515,514,ls),
(515,441,o),
(486,413,o),
(436,413,cs),
(388,413,o),
(357,443,o),
(357,513,cs),
(357,714,l),
(291,714,l),
(291,514,ls),
(291,441,o),
(260,413,o),
(211,413,cs),
(163,413,o),
(133,443,o),
(133,513,cs),
(133,714,l),
(66,714,l),
(66,512,ls),
(66,407,o),
(123,351,o),
(210,351,cs)
);
}
);
width = 648;
}
);
metricRight = "=|";
note = uni141C;
unicode = 5148;
},
{
glyphname = "ycreew-canadian";
lastChange = "2023-01-13 15:28:14 +0000";
layers = (
{
layerId = "F8006AA5-6E21-4BD1-AC52-9C52C7F343AA";
shapes = (
{
closed = 1;
nodes = (
(361,528,o),
(399,568,o),
(399,624,cs),
(399,681,o),
(361,720,o),
(310,720,cs),
(259,720,o),
(221,681,o),
(221,624,cs),
(221,568,o),
(259,528,o),
(310,528,cs)
);
},
{
closed = 1;
nodes = (
(203,351,o),
(241,391,o),
(241,447,cs),
(241,504,o),
(204,543,o),
(153,543,cs),
(101,543,o),
(63,504,o),
(63,447,cs),
(63,391,o),
(101,351,o),
(152,351,cs)
);
},
{
closed = 1;
nodes = (
(123,388,o),
(103,412,o),
(103,447,cs),
(103,482,o),
(123,506,o),
(152,506,cs),
(181,506,o),
(201,482,o),
(201,447,cs),
(201,412,o),
(181,388,o),
(152,388,cs)
);
},
{
closed = 1;
nodes = (
(280,565,o),
(261,589,o),
(261,624,cs),
(261,659,o),
(280,683,o),
(310,683,cs),
(339,683,o),
(359,659,o),
(359,624,cs),
(359,589,o),
(339,565,o),
(310,565,cs)
);
}
);
width = 462;
}
);
metricRight = "=|";
note = uni141D;
unicode = 5149;
},
{
glyphname = "glottalstop-canadian";
lastChange = "2023-01-13 15:28:14 +0000";
layers = (
{
layerId = "F8006AA5-6E21-4BD1-AC52-9C52C7F343AA";
shapes = (
{
closed = 1;
nodes = (
(394,357,l),
(394,372,l),
(235,714,l),
(216,714,l),
(57,372,l),
(57,357,l)
);
},
{
closed = 1;
nodes = (
(242,649,l),
(208,649,l),
(326,387,l),
(341,410,l),
(110,410,l),
(123,387,l)
);
}
);
width = 451;
}
);
metricRight = "=|";
note = uni141E;
unicode = 5150;
},
{
glyphname = "pe-canadian";
kernLeft = ecanleft;
kernRight = ecanright;
lastChange = "2023-01-13 15:30:41 +0000";
layers = (
{
anchors = (
{
name = middle_center_can;
pos = (368,470);
},
{
name = top_center_can;
pos = (368,714);
},
{
name = top_left_can;
pos = (134,714);
},
{
name = top_right_can;
pos = (604,714);
}
);
layerId = "F8006AA5-6E21-4BD1-AC52-9C52C7F343AA";
shapes = (
{
closed = 1;
nodes = (
(389,0,l),
(708,687,l),
(708,714,l),
(617,714,l),
(347,119,l),
(398,119,l),
(130,714,l),
(33,714,l),
(33,687,l),
(352,0,l)
);
}
);
width = 741;
}
);
metricLeft = "e-canadian";
metricRight = "e-canadian";
note = uni142F;
unicode = 5167;
},
{
glyphname = "pi-canadian";
kernLeft = icanleft;
kernRight = icanright;
lastChange = "2023-01-13 15:30:41 +0000";
layers = (
{
anchors = (
{
name = middle_center_can;
pos = (369,367);
},
{
name = top_center_can;
pos = (371,714);
},
{
name = top_left_can;
pos = (136,714);
},
{
name = top_right_can;
pos = (606,714);
}
);
layerId = "F8006AA5-6E21-4BD1-AC52-9C52C7F343AA";
shapes = (
{
closed = 1;
nodes = (
(126,0,l),
(397,595,l),
(345,595,l),
(613,0,l),
(708,0,l),
(708,27,l),
(389,714,l),
(352,714,l),
(33,27,l),
(33,0,l)
);
}
);
width = 741;
}
);
metricLeft = "e-canadian";
metricRight = "e-canadian";
note = uni1431;
unicode = 5169;
},
{
glyphname = "po-canadian";
kernLeft = ocanleft;
kernRight = ocanright;
lastChange = "2023-01-13 15:28:14 +0000";
layers = (
{
anchors = (
{
name = middle_center_can;
pos = (214,357);
},
{
name = top_center_can;
pos = (345,714);
},
{
name = top_double;
pos = (449,714);
},
{
name = top_left_can;
pos = (99,714);
},
{
name = top_right_can;
pos = (591,714);
}
);
layerId = "F8006AA5-6E21-4BD1-AC52-9C52C7F343AA";
shapes = (
{
closed = 1;
nodes = (
(81,0,l),
(637,339,l),
(637,375,l),
(81,714,l),
(55,714,l),
(55,622,l),
(526,335,l),
(526,380,l),
(55,93,l),
(55,0,l)
);
}
);
width = 672;
}
);
metricRight = "o-canadian";
note = uni1433;
unicode = 5171;
},
{
glyphname = "pa-canadian";
kernLeft = acanleft;
kernRight = acanright;
lastChange = "2023-01-13 15:28:14 +0000";
layers = (
{
anchors = (
{
name = middle_center_can;
pos = (336,357);
},
{
name = top_center_can;
pos = (328,714);
},
{
name = top_left_can;
pos = (80,714);
},
{
name = top_right_can;
pos = (574,714);
}
);
layerId = "F8006AA5-6E21-4BD1-AC52-9C52C7F343AA";
shapes = (
{
closed = 1;
nodes = (
(617,0,l),
(617,92,l),
(146,379,l),
(146,334,l),
(617,621,l),
(617,714,l),
(591,714,l),
(35,375,l),
(35,339,l),
(591,0,l)
);
}
);
width = 672;
}
);
metricRight = "=|po-canadian";
note = uni1438;
unicode = 5176;
},
{
glyphname = "p-canadian";
kernLeft = mwestleft;
kernRight = mwestright;
lastChange = "2023-01-13 15:28:14 +0000";
layers = (
{
layerId = "F8006AA5-6E21-4BD1-AC52-9C52C7F343AA";
shapes = (
{
closed = 1;
nodes = (
(356,357,l),
(356,421,l),
(127,561,l),
(127,510,l),
(356,649,l),
(356,714,l),
(341,714,l),
(66,546,l),
(66,526,l),
(341,357,l)
);
}
);
width = 423;
}
);
note = uni1449;
unicode = 5193;
},
{
glyphname = "pWestCree-canadian";
kernLeft = mwestleft;
kernRight = mwestright;
lastChange = "2023-01-13 15:28:14 +0000";
layers = (
{
layerId = "F8006AA5-6E21-4BD1-AC52-9C52C7F343AA";
shapes = (
{
closed = 1;
nodes = (
(137,357,l),
(137,714,l),
(66,714,l),
(66,357,l)
);
}
);
width = 203;
}
);
metricRight = "=|";
note = uni144A;
unicode = 5194;
},
{
color = 6;
glyphname = "hCarrier-canadian";
lastChange = "2023-01-13 15:28:14 +0000";
layers = (
{
layerId = "F8006AA5-6E21-4BD1-AC52-9C52C7F343AA";
shapes = (
{
closed = 1;
nodes = (
(137,189,l),
(137,317,ls),
(137,361,o),
(162,386,o),
(201,386,cs),
(238,386,o),
(257,363,o),
(257,315,cs),
(257,189,l),
(328,189,l),
(328,328,ls),
(328,410,o),
(277,450,o),
(214,450,cs),
(165,450,o),
(125,421,o),
(119,381,c),
(137,370,l),
(137,546,l),
(66,546,l),
(66,189,l)
);
}
);
width = 372;
}
);
metricLeft = "pWestCree-canadian";
note = uni144B;
unicode = 5195;
},
{
glyphname = "te-canadian";
lastChange = "2023-01-13 15:28:14 +0000";
layers = (
{
anchors = (
{
name = middle_center_can;
pos = (369,357);
},
{
name = top_center_can;
pos = (369,714);
},
{
name = top_left_can;
pos = (121,714);
},
{
name = top_right_can;
pos = (618,714);
}
);
layerId = "F8006AA5-6E21-4BD1-AC52-9C52C7F343AA";
shapes = (
{
closed = 1;
nodes = (
(555,-13,o),
(667,106,o),
(667,313,cs),
(667,714,l),
(568,714,l),
(568,311,ls),
(568,157,o),
(496,78,o),
(369,78,cs),
(245,78,o),
(170,159,o),
(170,311,cs),
(170,714,l),
(71,714,l),
(71,310,ls),
(71,105,o),
(184,-13,o),
(369,-13,cs)
);
}
);
width = 738;
}
);
metricRight = "=|";
note = uni144C;
unicode = 5196;
},
{
glyphname = "ti-canadian";
lastChange = "2023-01-13 15:28:14 +0000";
layers = (
{
anchors = (
{
name = middle_center_can;
pos = (369,357);
},
{
name = middle_right_can;
pos = (831,357);
},
{
name = top_center_can;
pos = (369,714);
},
{
name = top_left_can;
pos = (121,714);
},
{
name = top_right_can;
pos = (618,714);
}
);
layerId = "F8006AA5-6E21-4BD1-AC52-9C52C7F343AA";
shapes = (
{
closed = 1;
nodes = (
(170,0,l),
(170,403,ls),
(170,555,o),
(245,636,o),
(371,636,cs),
(494,636,o),
(568,555,o),
(568,403,cs),
(568,0,l),
(667,0,l),
(667,404,ls),
(667,609,o),
(554,727,o),
(372,727,cs),
(186,727,o),
(71,609,o),
(71,401,cs),
(71,0,l)
);
}
);
width = 738;
}
);
metricLeft = "te-canadian";
metricRight = "te-canadian";
note = uni144E;
unicode = 5198;
},
{
glyphname = "to-canadian";
kernLeft = toleft;
lastChange = "2023-01-13 15:28:14 +0000";
layers = (
{
anchors = (
{
name = middle_center_can;
pos = (262,357);
},
{
name = middle_right_can;
pos = (728,357);
},
{
name = top_center_can;
pos = (284,714);
},
{
name = top_double;
pos = (355,714);
},
{
name = top_left_can;
pos = (102,714);
},
{
name = top_right_can;
pos = (520,714);
}
);
layerId = "F8006AA5-6E21-4BD1-AC52-9C52C7F343AA";
shapes = (
{
closed = 1;
nodes = (
(222,0,ls),
(440,0,o),
(564,133,o),
(564,358,cs),
(564,583,o),
(440,714,o),
(219,714,cs),
(58,714,l),
(58,624,l),
(216,624,ls),
(377,624,o),
(464,531,o),
(464,358,cs),
(464,185,o),
(377,90,o),
(218,90,cs),
(58,90,l),
(58,0,l)
);
}
);
width = 628;
}
);
note = uni1450;
unicode = 5200;
},
{
glyphname = "ta-canadian";
kernRight = taright;
lastChange = "2023-01-13 15:30:41 +0000";
layers = (
{
anchors = (
{
name = middle_center_can;
pos = (366,357);
},
{
name = top_center_can;
pos = (344,714);
},
{
name = top_left_can;
pos = (107,714);
},
{
name = top_right_can;
pos = (525,714);
}
);
layerId = "F8006AA5-6E21-4BD1-AC52-9C52C7F343AA";
shapes = (
{
closed = 1;
nodes = (
(569,0,l),
(569,90,l),
(411,90,ls),
(251,90,o),
(163,184,o),
(163,357,cs),
(163,530,o),
(251,624,o),
(410,624,cs),
(569,624,l),
(569,714,l),
(407,714,ls),
(188,714,o),
(64,582,o),
(64,357,cs),
(64,133,o),
(188,0,o),
(406,0,cs)
);
}
);
width = 627;
}
);
metricLeft = "=|to-canadian";
metricRight = "=|to-canadian";
note = uni1455;
unicode = 5205;
},
{
glyphname = "t-canadian";
kernLeft = mwestleft;
kernRight = mwestright;
lastChange = "2023-01-13 15:28:14 +0000";
layers = (
{
layerId = "F8006AA5-6E21-4BD1-AC52-9C52C7F343AA";
shapes = (
{
closed = 1;
nodes = (
(319,357,l),
(319,423,l),
(245,423,ls),
(171,423,o),
(133,462,o),
(133,535,cs),
(133,607,o),
(171,648,o),
(245,648,cs),
(319,648,l),
(319,714,l),
(240,714,ls),
(126,714,o),
(62,645,o),
(62,535,cs),
(62,425,o),
(126,357,o),
(241,357,cs)
);
}
);
width = 382;
}
);
note = uni1466;
unicode = 5222;
},
{
glyphname = "ke-canadian";
lastChange = "2023-01-13 15:28:14 +0000";
layers = (
{
anchors = (
{
name = middle_center_can;
pos = (315,457);
},
{
name = top_center_can;
pos = (299,714);
},
{
name = top_left_can;
pos = (111,714);
},
{
name = top_right_can;
pos = (487,714);
}
);
layerId = "F8006AA5-6E21-4BD1-AC52-9C52C7F343AA";
shapes = (
{
closed = 1;
nodes = (
(536,0,l),
(536,459,ls),
(536,626,o),
(447,727,o),
(301,727,cs),
(156,727,o),
(62,625,o),
(62,463,cs),
(62,306,o),
(153,205,o),
(287,205,cs),
(370,205,o),
(432,251,o),
(446,311,c),
(436,324,l),
(436,0,l)
);
},
{
closed = 1;
nodes = (
(214,290,o),
(160,353,o),
(160,466,cs),
(160,579,o),
(212,642,o),
(299,642,cs),
(386,642,o),
(438,580,o),
(438,466,cs),
(438,354,o),
(384,290,o),
(299,290,cs)
);
}
);
width = 607;
}
);
metricRight = "te-canadian";
note = uni146B;
unicode = 5227;
},
{
glyphname = "ki-canadian";
lastChange = "2023-01-13 15:28:14 +0000";
layers = (
{
anchors = (
{
name = middle_center_can;
pos = (323,457);
},
{
name = top_center_can;
pos = (307,714);
},
{
name = top_left_can;
pos = (120,714);
},
{
name = top_right_can;
pos = (496,714);
}
);
layerId = "F8006AA5-6E21-4BD1-AC52-9C52C7F343AA";
shapes = (
{
closed = 1;
nodes = (
(170,0,l),
(170,324,l),
(160,311,l),
(175,251,o),
(237,205,o),
(320,205,cs),
(454,205,o),
(545,307,o),
(545,466,cs),
(545,627,o),
(451,727,o),
(309,727,cs),
(162,727,o),
(71,625,o),
(71,459,cs),
(71,0,l)
);
},
{
closed = 1;
nodes = (
(222,290,o),
(168,354,o),
(168,466,cs),
(168,580,o),
(221,642,o),
(307,642,cs),
(394,642,o),
(447,579,o),
(447,466,cs),
(447,353,o),
(392,290,o),
(307,290,cs)
);
}
);
width = 607;
}
);
metricLeft = "te-canadian";
metricRight = "=|ke-canadian";
note = uni146D;
unicode = 5229;
},
{
glyphname = "ko-canadian";
lastChange = "2023-01-13 15:28:14 +0000";
layers = (
{
anchors = (
{
name = middle_center_can;
pos = (315,368);
},
{
name = top_center_can;
pos = (299,714);
},
{
name = top_double;
pos = (487,714);
},
{
name = top_left_can;
pos = (111,714);
},
{
name = top_right_can;
pos = (487,714);
}
);
layerId = "F8006AA5-6E21-4BD1-AC52-9C52C7F343AA";
shapes = (
{
closed = 1;
nodes = (
(447,-13,o),
(536,88,o),
(536,255,cs),
(536,714,l),
(436,714,l),
(436,390,l),
(446,403,l),
(432,463,o),
(370,509,o),
(288,509,cs),
(153,509,o),
(62,405,o),
(62,246,cs),
(62,87,o),
(153,-13,o),
(299,-13,cs)
);
},
{
closed = 1;
nodes = (
(212,72,o),
(160,135,o),
(160,248,cs),
(160,361,o),
(214,424,o),
(299,424,cs),
(384,424,o),
(438,360,o),
(438,248,cs),
(438,134,o),
(386,72,o),
(299,72,cs)
);
}
);
width = 607;
}
);
metricLeft = "ke-canadian";
metricRight = "te-canadian";
note = uni146F;
unicode = 5231;
},
{
glyphname = "ka-canadian";
lastChange = "2023-01-13 15:28:14 +0000";
layers = (
{
anchors = (
{
name = middle_center_can;
pos = (323,370);
},
{
name = top_center_can;
pos = (308,714);
},
{
name = top_left_can;
pos = (120,714);
},
{
name = top_right_can;
pos = (496,714);
}
);
layerId = "F8006AA5-6E21-4BD1-AC52-9C52C7F343AA";
shapes = (
{
closed = 1;
nodes = (
(450,-13,o),
(545,87,o),
(545,250,cs),
(545,407,o),
(454,509,o),
(322,509,cs),
(238,509,o),
(176,463,o),
(160,403,c),
(170,390,l),
(170,714,l),
(71,714,l),
(71,255,ls),
(71,88,o),
(159,-13,o),
(306,-13,cs)
);
},
{
closed = 1;
nodes = (
(221,72,o),
(168,134,o),
(168,248,cs),
(168,360,o),
(222,424,o),
(307,424,cs),
(392,424,o),
(447,361,o),
(447,248,cs),
(447,135,o),
(394,72,o),
(307,72,cs)
);
}
);
width = 607;
}
);
metricLeft = "te-canadian";
metricRight = "==|ke-canadian";
note = uni1472;
unicode = 5234;
},
{
glyphname = "k-canadian";
kernLeft = mwestleft;
kernRight = mwestright;
lastChange = "2023-01-13 15:28:14 +0000";
layers = (
{
layerId = "F8006AA5-6E21-4BD1-AC52-9C52C7F343AA";
shapes = (
{
closed = 1;
nodes = (
(273,351,o),
(330,402,o),
(330,489,cs),
(330,571,o),
(278,622,o),
(211,622,cs),
(164,622,o),
(129,593,o),
(121,553,c),
(137,548,l),
(137,714,l),
(66,714,l),
(66,490,ls),
(66,404,o),
(118,351,o),
(200,351,cs)
);
},
{
closed = 1;
nodes = (
(157,404,o),
(131,432,o),
(131,487,cs),
(131,540,o),
(160,569,o),
(198,569,cs),
(238,569,o),
(266,540,o),
(266,487,cs),
(266,434,o),
(239,404,o),
(199,404,cs)
);
}
);
width = 386;
}
);
note = uni1483;
unicode = 5251;
},
{
glyphname = "kw-canadian";
kernLeft = mwestleft;
kernRight = mwestright;
lastChange = "2023-01-13 15:28:14 +0000";
layers = (
{
layerId = "F8006AA5-6E21-4BD1-AC52-9C52C7F343AA";
shapes = (
{
closed = 1;
nodes = (
(267,351,o),
(320,404,o),
(320,490,cs),
(320,714,l),
(249,714,l),
(249,548,l),
(265,553,l),
(257,593,o),
(222,622,o),
(175,622,cs),
(108,622,o),
(56,571,o),
(56,489,cs),
(56,402,o),
(113,351,o),
(186,351,cs)
);
},
{
closed = 1;
nodes = (
(147,404,o),
(120,434,o),
(120,487,cs),
(120,540,o),
(148,569,o),
(187,569,cs),
(226,569,o),
(254,540,o),
(254,487,cs),
(254,432,o),
(229,404,o),
(187,404,cs)
);
}
);
width = 386;
}
);
metricLeft = "=|k-canadian";
metricRight = "=|k-canadian";
note = uni1484;
unicode = 5252;
},
{
glyphname = "ce-canadian";
kernLeft = celeft;
lastChange = "2023-01-13 15:30:41 +0000";
layers = (
{
anchors = (
{
name = middle_center_can;
pos = (312,413);
},
{
name = top_center_can;
pos = (299,714);
},
{
name = top_left_can;
pos = (111,714);
},
{
name = top_right_can;
pos = (481,714);
}
);
layerId = "F8006AA5-6E21-4BD1-AC52-9C52C7F343AA";
shapes = (
{
closed = 1;
nodes = (
(531,0,l),
(531,464,ls),
(531,630,o),
(444,727,o),
(299,727,cs),
(151,727,o),
(61,629,o),
(61,465,cs),
(61,401,l),
(160,401,l),
(160,473,ls),
(160,580,o),
(209,640,o),
(297,640,cs),
(382,640,o),
(431,580,o),
(431,473,cs),
(431,0,l)
);
}
);
width = 602;
}
);
metricRight = "te-canadian";
note = uni1489;
unicode = 5257;
},
{
glyphname = "ci-canadian";
kernRight = ciright;
lastChange = "2023-01-13 15:28:14 +0000";
layers = (
{
anchors = (
{
name = middle_center_can;
pos = (315,413);
},
{
name = top_center_can;
pos = (309,714);
},
{
name = top_left_can;
pos = (121,714);
},
{
name = top_right_can;
pos = (492,714);
}
);
layerId = "F8006AA5-6E21-4BD1-AC52-9C52C7F343AA";
shapes = (
{
closed = 1;
nodes = (
(170,0,l),
(170,473,ls),
(170,580,o),
(220,640,o),
(307,640,cs),
(394,640,o),
(441,580,o),
(441,474,cs),
(441,401,l),
(540,401,l),
(540,465,ls),
(540,629,o),
(454,727,o),
(309,727,cs),
(158,727,o),
(71,628,o),
(71,464,cs),
(71,0,l)
);
}
);
width = 601;
}
);
metricLeft = "te-canadian";
metricRight = "=|ce-canadian";
note = uni148B;
unicode = 5259;
},
{
glyphname = "co-canadian";
kernLeft = coleft;
lastChange = "2023-01-13 15:30:41 +0000";
layers = (
{
anchors = (
{
name = middle_center_can;
pos = (312,413);
},
{
name = top_center_can;
pos = (298,714);
},
{
name = top_double;
pos = (481,714);
},
{
name = top_left_can;
pos = (111,714);
},
{
name = top_right_can;
pos = (481,714);
}
);
layerId = "F8006AA5-6E21-4BD1-AC52-9C52C7F343AA";
shapes = (
{
closed = 1;
nodes = (
(443,-13,o),
(531,82,o),
(531,250,cs),
(531,714,l),
(431,714,l),
(431,241,ls),
(431,132,o),
(382,74,o),
(297,74,cs),
(207,74,o),
(160,134,o),
(160,244,cs),
(160,313,l),
(61,313,l),
(61,248,ls),
(61,85,o),
(147,-13,o),
(299,-13,cs)
);
}
);
width = 602;
}
);
metricLeft = "ce-canadian";
metricRight = "te-canadian";
note = uni148D;
unicode = 5261;
},
{
glyphname = "ca-canadian";
kernRight = caright;
lastChange = "2023-01-13 15:28:14 +0000";
layers = (
{
anchors = (
{
name = middle_center_can;
pos = (315,413);
},
{
name = top_center_can;
pos = (309,714);
},
{
name = top_left_can;
pos = (121,714);
},
{
name = top_right_can;
pos = (492,714);
}
);
layerId = "F8006AA5-6E21-4BD1-AC52-9C52C7F343AA";
shapes = (
{
closed = 1;
nodes = (
(454,-13,o),
(540,84,o),
(540,249,cs),
(540,313,l),
(441,313,l),
(441,243,ls),
(441,132,o),
(394,74,o),
(307,74,cs),
(218,74,o),
(170,134,o),
(170,243,cs),
(170,714,l),
(71,714,l),
(71,250,ls),
(71,83,o),
(156,-13,o),
(306,-13,cs)
);
}
);
width = 601;
}
);
metricLeft = "te-canadian";
metricRight = "=|ce-canadian";
note = uni1490;
unicode = 5264;
},
{
glyphname = "c-canadian";
kernLeft = mwestleft;
kernRight = mwestright;
lastChange = "2023-01-13 15:28:14 +0000";
layers = (
{
layerId = "F8006AA5-6E21-4BD1-AC52-9C52C7F343AA";
shapes = (
{
closed = 1;
nodes = (
(278,351,o),
(331,399,o),
(331,484,cs),
(331,504,l),
(265,504,l),
(265,479,ls),
(265,432,o),
(239,407,o),
(200,407,cs),
(160,407,o),
(137,432,o),
(137,484,cs),
(137,714,l),
(66,714,l),
(66,493,ls),
(66,400,o),
(115,351,o),
(200,351,cs)
);
}
);
width = 376;
}
);
note = uni14A1;
unicode = 5281;
},
{
glyphname = "thSayisi-canadian";
lastChange = "2023-01-13 15:30:41 +0000";
layers = (
{
layerId = "F8006AA5-6E21-4BD1-AC52-9C52C7F343AA";
shapes = (
{
closed = 1;
nodes = (
(260,351,o),
(309,400,o),
(309,493,cs),
(309,714,l),
(239,714,l),
(239,484,ls),
(239,432,o),
(216,407,o),
(176,407,cs),
(136,407,o),
(111,432,o),
(111,479,cs),
(111,504,l),
(45,504,l),
(45,484,ls),
(45,399,o),
(98,351,o),
(176,351,cs)
);
}
);
width = 375;
}
);
metricLeft = "=|c-canadian";
metricRight = "=|c-canadian";
note = uni14A2;
unicode = 5282;
},
{
glyphname = "me-canadian";
kernLeft = meleft;
lastChange = "2023-01-13 15:30:41 +0000";
layers = (
{
anchors = (
{
name = middle_center_can;
pos = (205,357);
},
{
name = top_center_can;
pos = (257,714);
},
{
name = top_left_can;
pos = (91,714);
},
{
name = top_right_can;
pos = (419,714);
}
);
layerId = "F8006AA5-6E21-4BD1-AC52-9C52C7F343AA";
shapes = (
{
closed = 1;
nodes = (
(468,0,l),
(468,714,l),
(41,714,l),
(41,624,l),
(369,624,l),
(369,0,l)
);
}
);
width = 546;
}
);
metricRight = "nunavuth-canadian";
note = uni14A3;
unicode = 5283;
},
{
glyphname = "mi-canadian";
kernRight = miright;
lastChange = "2023-01-13 15:30:41 +0000";
layers = (
{
anchors = (
{
name = middle_center_can;
pos = (342,357);
},
{
name = top_center_can;
pos = (292,714);
},
{
name = top_left_can;
pos = (128,714);
},
{
name = top_right_can;
pos = (456,714);
}
);
layerId = "F8006AA5-6E21-4BD1-AC52-9C52C7F343AA";
shapes = (
{
closed = 1;
nodes = (
(178,0,l),
(178,624,l),
(505,624,l),
(505,714,l),
(78,714,l),
(78,0,l)
);
}
);
width = 546;
}
);
metricLeft = "nunavuth-canadian";
metricRight = "=|me-canadian";
note = uni14A5;
unicode = 5285;
},
{
glyphname = "mo-canadian";
kernLeft = moleft;
lastChange = "2023-01-13 15:30:41 +0000";
layers = (
{
anchors = (
{
name = middle_center_can;
pos = (205,357);
},
{
name = top_center_can;
pos = (257,714);
},
{
name = top_double;
pos = (419,714);
},
{
name = top_left_can;
pos = (91,714);
},
{
name = top_right_can;
pos = (419,714);
}
);
layerId = "F8006AA5-6E21-4BD1-AC52-9C52C7F343AA";
shapes = (
{
closed = 1;
nodes = (
(468,0,l),
(468,714,l),
(369,714,l),
(369,90,l),
(41,90,l),
(41,0,l)
);
}
);
width = 546;
}
);
metricLeft = "me-canadian";
metricRight = "nunavuth-canadian";
note = uni14A7;
unicode = 5287;
},
{
glyphname = "ma-canadian";
kernRight = maright;
lastChange = "2023-01-13 15:30:41 +0000";
layers = (
{
anchors = (
{
name = middle_center_can;
pos = (342,357);
},
{
name = top_center_can;
pos = (292,714);
},
{
name = top_left_can;
pos = (128,714);
},
{
name = top_right_can;
pos = (455,714);
}
);
layerId = "F8006AA5-6E21-4BD1-AC52-9C52C7F343AA";
shapes = (
{
closed = 1;
nodes = (
(505,0,l),
(505,90,l),
(178,90,l),
(178,714,l),
(78,714,l),
(78,0,l)
);
}
);
width = 546;
}
);
metricLeft = "nunavuth-canadian";
metricRight = "=|me-canadian";
note = uni14AA;
unicode = 5290;
},
{
glyphname = "m-canadian";
kernLeft = mwestleft;
kernRight = mwestright;
lastChange = "2023-01-13 15:28:14 +0000";
layers = (
{
layerId = "F8006AA5-6E21-4BD1-AC52-9C52C7F343AA";
shapes = (
{
closed = 1;
nodes = (
(300,423,l),
(137,423,l),
(137,714,l),
(66,714,l),
(66,357,l),
(300,357,l)
);
}
);
width = 349;
}
);
metricLeft = "pWestCree-canadian";
note = uni14BB;
unicode = 5307;
},
{
glyphname = "mh-canadian";
kernLeft = mwestleft;
kernRight = mwestright;
lastChange = "2023-01-13 15:28:14 +0000";
layers = (
{
layerId = "F8006AA5-6E21-4BD1-AC52-9C52C7F343AA";
shapes = (
{
closed = 1;
nodes = (
(283,357,l),
(283,714,l),
(212,714,l),
(212,423,l),
(49,423,l),
(49,357,l)
);
}
);
width = 349;
}
);
metricLeft = "=|m-canadian";
metricRight = "=|m-canadian";
note = uni14BD;
unicode = 5309;
},
{
glyphname = "mAthapascan-canadian";
lastChange = "2023-01-13 15:28:14 +0000";
layers = (
{
layerId = "F8006AA5-6E21-4BD1-AC52-9C52C7F343AA";
shapes = (
{
closed = 1;
nodes = (
(315,357,l),
(315,414,l),
(141,414,l),
(142,384,l),
(250,498,ls),
(286,536,o),
(300,572,o),
(300,613,cs),
(300,677,o),
(255,720,o),
(182,720,cs),
(102,720,o),
(57,670,o),
(56,592,c),
(119,592,l),
(119,642,o),
(140,667,o),
(181,667,cs),
(217,667,o),
(237,647,o),
(237,611,cs),
(237,579,o),
(227,556,o),
(194,520,cs),
(70,392,l),
(70,357,l)
);
}
);
width = 365;
}
);
note = uni14BE;
unicode = 5310;
},
{
glyphname = "ne-canadian";
kernLeft = neleft;
lastChange = "2023-01-13 15:28:14 +0000";
layers = (
{
anchors = (
{
name = middle_center_can;
pos = (528,254);
},
{
name = top_center_can;
pos = (516,515);
},
{
name = top_left_can;
pos = (107,515);
},
{
name = top_right_can;
pos = (723,515);
}
);
layerId = "F8006AA5-6E21-4BD1-AC52-9C52C7F343AA";
shapes = (
{
closed = 1;
nodes = (
(674,-13,o),
(771,85,o),
(771,242,cs),
(771,401,o),
(676,496,o),
(516,496,cs),
(57,496,l),
(57,407,l),
(394,407,l),
(382,430,l),
(318,396,o),
(286,320,o),
(286,237,cs),
(286,82,o),
(380,-13,o),
(528,-13,cs)
);
},
{
closed = 1;
nodes = (
(436,72,o),
(383,137,o),
(383,241,cs),
(383,344,o),
(436,411,o),
(527,411,cs),
(620,411,o),
(673,345,o),
(673,241,cs),
(673,137,o),
(620,72,o),
(528,72,cs)
);
}
);
width = 833;
}
);
metricRight = "=|ke-canadian";
note = uni14C0;
unicode = 5312;
},
{
glyphname = "ni-canadian";
kernRight = niright;
lastChange = "2023-01-13 15:28:14 +0000";
layers = (
{
anchors = (
{
name = middle_center_can;
pos = (306,254);
},
{
name = top_center_can;
pos = (319,515);
},
{
name = top_left_can;
pos = (111,515);
},
{
name = top_right_can;
pos = (726,515);
}
);
layerId = "F8006AA5-6E21-4BD1-AC52-9C52C7F343AA";
shapes = (
{
closed = 1;
nodes = (
(453,-13,o),
(547,82,o),
(547,238,cs),
(547,321,o),
(514,397,o),
(450,431,c),
(439,407,l),
(776,407,l),
(776,496,l),
(319,496,ls),
(156,496,o),
(62,395,o),
(62,240,cs),
(62,84,o),
(159,-13,o),
(305,-13,cs)
);
},
{
closed = 1;
nodes = (
(213,72,o),
(160,137,o),
(160,242,cs),
(160,346,o),
(213,411,o),
(306,411,cs),
(397,411,o),
(450,344,o),
(450,242,cs),
(450,137,o),
(397,72,o),
(305,72,cs)
);
}
);
width = 833;
}
);
metricLeft = "ke-canadian";
metricRight = "=|ne-canadian";
note = uni14C2;
unicode = 5314;
},
{
glyphname = "no-canadian";
kernLeft = noleft;
lastChange = "2023-01-13 15:28:14 +0000";
layers = (
{
anchors = (
{
name = middle_center_can;
pos = (528,254);
},
{
name = top_center_can;
pos = (525,515);
},
{
name = top_double;
pos = (528,515);
},
{
name = top_left_can;
pos = (107,515);
},
{
name = top_right_can;
pos = (723,515);
}
);
layerId = "F8006AA5-6E21-4BD1-AC52-9C52C7F343AA";
shapes = (
{
closed = 1;
nodes = (
(520,0,ls),
(677,0,o),
(771,97,o),
(771,254,cs),
(771,411,o),
(675,509,o),
(528,509,cs),
(381,509,o),
(286,412,o),
(286,258,cs),
(286,176,o),
(318,100,o),
(382,66,c),
(394,89,l),
(57,89,l),
(57,0,l)
);
},
{
closed = 1;
nodes = (
(436,85,o),
(383,152,o),
(383,254,cs),
(383,359,o),
(436,424,o),
(528,424,cs),
(620,424,o),
(673,359,o),
(673,254,cs),
(673,150,o),
(620,85,o),
(527,85,cs)
);
}
);
width = 833;
}
);
metricLeft = "ne-canadian";
metricRight = "=|ke-canadian";
note = uni14C4;
unicode = 5316;
},
{
glyphname = "na-canadian";
kernRight = naright;
lastChange = "2023-01-13 15:28:14 +0000";
layers = (
{
anchors = (
{
name = middle_center_can;
pos = (306,254);
},
{
name = top_center_can;
pos = (308,515);
},
{
name = top_double;
pos = (469,515);
},
{
name = top_left_can;
pos = (111,515);
},
{
name = top_right_can;
pos = (726,515);
}
);
layerId = "F8006AA5-6E21-4BD1-AC52-9C52C7F343AA";
shapes = (
{
closed = 1;
nodes = (
(776,0,l),
(776,89,l),
(439,89,l),
(451,64,l),
(514,99,o),
(547,175,o),
(547,258,cs),
(547,413,o),
(453,509,o),
(305,509,cs),
(159,509,o),
(62,411,o),
(62,253,cs),
(62,99,o),
(155,0,o),
(315,0,cs)
);
},
{
closed = 1;
nodes = (
(213,85,o),
(160,150,o),
(160,254,cs),
(160,359,o),
(213,424,o),
(305,424,cs),
(397,424,o),
(450,359,o),
(450,254,cs),
(450,152,o),
(397,85,o),
(306,85,cs)
);
}
);
width = 833;
}
);
metricLeft = "ke-canadian";
metricRight = "=|ne-canadian";
note = uni14C7;
unicode = 5319;
},
{
glyphname = "n-canadian";
kernLeft = mwestleft;
kernRight = mwestright;
lastChange = "2023-01-13 15:28:14 +0000";
layers = (
{
layerId = "F8006AA5-6E21-4BD1-AC52-9C52C7F343AA";
shapes = (
{
closed = 1;
nodes = (
(446,450,l),
(446,515,l),
(258,515,l),
(261,485,l),
(294,498,o),
(317,540,o),
(317,589,cs),
(317,669,o),
(266,721,o),
(187,721,cs),
(109,721,o),
(56,668,o),
(56,586,cs),
(56,504,o),
(108,450,o),
(193,450,cs)
);
},
{
closed = 1;
nodes = (
(147,502,o),
(119,533,o),
(119,586,cs),
(119,638,o),
(147,668,o),
(187,668,cs),
(227,668,o),
(254,638,o),
(254,585,cs),
(254,533,o),
(227,502,o),
(187,502,cs)
);
}
);
width = 495;
}
);
metricLeft = "=|k-canadian";
note = uni14D0;
unicode = 5328;
},
{
glyphname = "nh-canadian";
kernLeft = mwestleft;
kernRight = mwestright;
lastChange = "2023-01-13 15:28:14 +0000";
layers = (
{
layerId = "F8006AA5-6E21-4BD1-AC52-9C52C7F343AA";
shapes = (
{
closed = 1;
nodes = (
(303,450,ls),
(387,450,o),
(439,504,o),
(439,586,cs),
(439,668,o),
(386,721,o),
(308,721,cs),
(229,721,o),
(178,669,o),
(178,589,cs),
(178,540,o),
(201,498,o),
(234,485,c),
(237,515,l),
(49,515,l),
(49,450,l)
);
},
{
closed = 1;
nodes = (
(268,502,o),
(241,533,o),
(241,585,cs),
(241,638,o),
(269,668,o),
(308,668,cs),
(348,668,o),
(376,638,o),
(376,586,cs),
(376,533,o),
(348,502,o),
(308,502,cs)
);
}
);
width = 495;
}
);
metricLeft = "=|n-canadian";
metricRight = "=|n-canadian";
note = uni14D2;
unicode = 5330;
},
{
glyphname = "le-canadian";
kernLeft = neleft;
lastChange = "2023-01-13 15:28:14 +0000";
layers = (
{
anchors = (
{
name = middle_center_can;
pos = (528,254);
},
{
name = top_center_can;
pos = (517,515);
},
{
name = top_left_can;
pos = (107,515);
},
{
name = top_right_can;
pos = (722,515);
}
);
layerId = "F8006AA5-6E21-4BD1-AC52-9C52C7F343AA";
shapes = (
{
closed = 1;
nodes = (
(512,0,ls),
(671,0,o),
(771,94,o),
(771,248,cs),
(771,402,o),
(678,496,o),
(510,496,cs),
(57,496,l),
(57,406,l),
(509,406,ls),
(614,406,o),
(673,348,o),
(673,247,cs),
(673,146,o),
(612,88,o),
(507,88,cs),
(457,88,l),
(457,0,l)
);
}
);
width = 833;
}
);
metricLeft = "ne-canadian";
metricRight = "=|ke-canadian";
note = uni14D3;
unicode = 5331;
},
{
glyphname = "li-canadian";
kernRight = niright;
lastChange = "2023-01-13 15:28:14 +0000";
layers = (
{
anchors = (
{
name = middle_center_can;
pos = (306,254);
},
{
name = top_center_can;
pos = (319,515);
},
{
name = top_left_can;
pos = (111,515);
},
{
name = top_right_can;
pos = (726,515);
}
);
layerId = "F8006AA5-6E21-4BD1-AC52-9C52C7F343AA";
shapes = (
{
closed = 1;
nodes = (
(376,0,l),
(376,88,l),
(326,88,ls),
(218,88,o),
(161,146,o),
(161,246,cs),
(161,343,o),
(213,406,o),
(325,406,cs),
(776,406,l),
(776,496,l),
(323,496,ls),
(156,496,o),
(62,398,o),
(62,246,cs),
(62,94,o),
(161,0,o),
(321,0,cs)
);
}
);
width = 833;
}
);
metricLeft = "ke-canadian";
metricRight = "=|ne-canadian";
note = uni14D5;
unicode = 5333;
},
{
glyphname = "lo-canadian";
kernLeft = noleft;
lastChange = "2023-01-13 15:28:14 +0000";
layers = (
{
anchors = (
{
name = middle_center_can;
pos = (528,254);
},
{
name = top_center_can;
pos = (525,515);
},
{
name = top_double;
pos = (513,515);
},
{
name = top_left_can;
pos = (107,515);
},
{
name = top_right_can;
pos = (722,515);
}
);
layerId = "F8006AA5-6E21-4BD1-AC52-9C52C7F343AA";
shapes = (
{
closed = 1;
nodes = (
(508,0,ls),
(675,0,o),
(771,94,o),
(771,249,cs),
(771,403,o),
(672,496,o),
(513,496,cs),
(457,496,l),
(457,408,l),
(507,408,ls),
(615,408,o),
(673,350,o),
(673,250,cs),
(673,148,o),
(615,90,o),
(508,90,cs),
(57,90,l),
(57,0,l)
);
}
);
width = 833;
}
);
metricLeft = "ne-canadian";
metricRight = "=|ke-canadian";
note = uni14D7;
unicode = 5335;
},
{
glyphname = "la-canadian";
kernRight = naright;
lastChange = "2023-01-13 15:28:14 +0000";
layers = (
{
anchors = (
{
name = middle_center_can;
pos = (306,254);
},
{
name = top_center_can;
pos = (308,515);
},
{
name = top_left_can;
pos = (111,515);
},
{
name = top_right_can;
pos = (726,515);
}
);
layerId = "F8006AA5-6E21-4BD1-AC52-9C52C7F343AA";
shapes = (
{
closed = 1;
nodes = (
(776,0,l),
(776,90,l),
(327,90,ls),
(218,90,o),
(161,148,o),
(161,249,cs),
(161,350,o),
(217,408,o),
(323,408,cs),
(376,408,l),
(376,496,l),
(322,496,ls),
(158,496,o),
(62,401,o),
(62,248,cs),
(62,92,o),
(159.995,0,o),
(324.992,0,cs)
);
}
);
width = 833;
}
);
metricLeft = "ke-canadian";
metricRight = "=|ne-canadian";
note = uni14DA;
unicode = 5338;
},
{
glyphname = "l-canadian";
kernLeft = mwestleft;
kernRight = mwestright;
lastChange = "2023-01-13 15:28:14 +0000";
layers = (
{
layerId = "F8006AA5-6E21-4BD1-AC52-9C52C7F343AA";
shapes = (
{
closed = 1;
nodes = (
(441,357,l),
(441,423,l),
(250,423,ls),
(171,423,o),
(133,462,o),
(133,536,cs),
(133,609,o),
(171,650,o),
(247,650,cs),
(262,650,l),
(262,714,l),
(242,714,ls),
(128,714,o),
(62,646,o),
(62,535,cs),
(62,425,o),
(128,357,o),
(243,357,cs)
);
}
);
width = 490;
}
);
metricLeft = "t-canadian";
metricRight = "m-canadian";
note = uni14EA;
unicode = 5354;
},
{
glyphname = "lWestCree-canadian";
kernLeft = mwestleft;
kernRight = mwestright;
lastChange = "2023-01-13 15:28:14 +0000";
layers = (
{
layerId = "F8006AA5-6E21-4BD1-AC52-9C52C7F343AA";
shapes = (
{
closed = 1;
nodes = (
(315,357,l),
(315,403,l),
(123,480,l),
(123,446,l),
(315,520,l),
(315,551,l),
(123,625,l),
(123,591,l),
(315,667,l),
(315,714,l),
(301,714,l),
(66,621,l),
(66,596,l),
(262,522,l),
(262,548,l),
(66,475,l),
(66,449,l),
(301,357,l)
);
}
);
width = 381;
}
);
metricRight = "=|";
note = uni14EB;
unicode = 5355;
},
{
glyphname = "mediall-canadian";
lastChange = "2023-01-13 15:28:14 +0000";
layers = (
{
layerId = "F8006AA5-6E21-4BD1-AC52-9C52C7F343AA";
shapes = (
{
closed = 1;
nodes = (
(589,-13,l),
(589,60,l),
(171,223,l),
(171,178,l),
(589,335,l),
(589,378,l),
(171,536,l),
(171,491,l),
(589,654,l),
(589,727,l),
(563,727,l),
(72,535,l),
(72,496,l),
(490,339,l),
(490,375,l),
(72,218,l),
(72,179,l),
(563,-13,l)
);
}
);
width = 661;
}
);
metricRight = "=|";
note = uni14EC;
unicode = 5356;
},
{
glyphname = "se-canadian";
kernRight = seright;
lastChange = "2023-01-13 15:28:14 +0000";
layers = (
{
anchors = (
{
name = top_left_can;
pos = (126,714);
},
{
name = top_right_can;
pos = (431,714);
}
);
layerId = "F8006AA5-6E21-4BD1-AC52-9C52C7F343AA";
shapes = (
{
closed = 1;
nodes = (
(479.995,0,l),
(480,344,l),
(440,344,ls),
(266,344,o),
(176,429,o),
(176,617,cs),
(176,714,l),
(76,714,l),
(76,607,ls),
(76,380,o),
(204,255,o),
(421,255,cs),
(454,255,l),
(381,291,l),
(381,0,l)
);
}
);
width = 558;
}
);
note = uni14ED;
unicode = 5357;
},
{
glyphname = "si-canadian";
kernLeft = sileft;
lastChange = "2023-01-13 15:28:14 +0000";
layers = (
{
anchors = (
{
name = top_left_can;
pos = (128,714);
},
{
name = top_right_can;
pos = (433,714);
}
);
layerId = "F8006AA5-6E21-4BD1-AC52-9C52C7F343AA";
shapes = (
{
closed = 1;
nodes = (
(178,0,l),
(178,291,l),
(104,255,l),
(138,255,ls),
(354,255,o),
(482,380,o),
(482,607,cs),
(482,714,l),
(383,714,l),
(383,617,ls),
(383,429,o),
(293,344,o),
(118,344,cs),
(78,344,l),
(78,0,l)
);
}
);
width = 558;
}
);
metricLeft = "=|se-canadian";
metricRight = "=|se-canadian";
note = uni14EF;
unicode = 5359;
},
{
glyphname = "so-canadian";
kernRight = soright;
lastChange = "2023-01-13 15:28:14 +0000";
layers = (
{
anchors = (
{
name = top_double;
pos = (431,714);
},
{
name = top_left_can;
pos = (126,714);
},
{
name = top_right_can;
pos = (430,714);
}
);
layerId = "F8006AA5-6E21-4BD1-AC52-9C52C7F343AA";
shapes = (
{
closed = 1;
nodes = (
(176,0,l),
(176,97,ls),
(176,285,o),
(266,370,o),
(440,370,cs),
(480,370,l),
(479.995,714,l),
(381,714,l),
(381,423,l),
(454,459,l),
(421,459,ls),
(204,459,o),
(76,334,o),
(76,107,cs),
(76,0,l)
);
}
);
width = 558;
}
);
metricLeft = "se-canadian";
metricRight = "se-canadian";
note = uni14F1;
unicode = 5361;
},
{
glyphname = "sa-canadian";
kernLeft = saleft;
kernRight = saright;
lastChange = "2023-01-13 15:28:14 +0000";
layers = (
{
anchors = (
{
name = top_left_can;
pos = (129,714);
},
{
name = top_right_can;
pos = (433,714);
}
);
layerId = "F8006AA5-6E21-4BD1-AC52-9C52C7F343AA";
shapes = (
{
closed = 1;
nodes = (
(482,0,l),
(482,107,ls),
(482,334,o),
(354,459,o),
(138,459,cs),
(104,459,l),
(178,423,l),
(178,714,l),
(78,714,l),
(78,370,l),
(118,370,ls),
(293,370,o),
(383,285,o),
(383,97,cs),
(383,0,l)
);
}
);
width = 558;
}
);
metricLeft = "=|se-canadian";
metricRight = "=|se-canadian";
note = uni14F4;
unicode = 5364;
},
{
glyphname = "s-canadian";
kernLeft = mwestleft;
kernRight = mwestright;
lastChange = "2023-01-13 15:28:14 +0000";
layers = (
{
layerId = "F8006AA5-6E21-4BD1-AC52-9C52C7F343AA";
shapes = (
{
closed = 1;
nodes = (
(304,357,l),
(304,414,ls),
(304,527,o),
(241,600,o),
(131,600,cs),
(94,600,l),
(137,568,l),
(137,714,l),
(66,714,l),
(66,543,l),
(105,543,ls),
(193,543,o),
(233,499,o),
(233,410,cs),
(233,357,l)
);
}
);
width = 370;
}
);
metricRight = "=|";
note = uni1505;
unicode = 5381;
},
{
color = 6;
glyphname = "sAthapascan-canadian";
lastChange = "2023-01-13 15:30:41 +0000";
layers = (
{
layerId = "F8006AA5-6E21-4BD1-AC52-9C52C7F343AA";
shapes = (
{
closed = 1;
nodes = (
(278,183,o),
(327,226,o),
(327,284,cs),
(327,328,o),
(304,359,o),
(251,378,cs),
(175,404,ls),
(144,416,o),
(134,429,o),
(134,451,cs),
(134,481,o),
(156,501,o),
(198,501,cs),
(240,501,o),
(264,482,o),
(265,439,c),
(327,439,l),
(326,510,o),
(278,552,o),
(198.005,552,cs),
(121,552,o),
(72,510,o),
(72,451,cs),
(72,406,o),
(97,373,o),
(146,356,cs),
(223,330,ls),
(253,318,o),
(265,306,o),
(265,282,cs),
(265,252,o),
(241,234,o),
(199,234,cs),
(154,234,o),
(130,253,o),
(128,298,c),
(66,298,l),
(68,224,o),
(115,183,o),
(198,183,cs)
);
}
);
width = 393;
}
);
metricRight = "=|";
note = uni1506;
unicode = 5382;
},
{
glyphname = "sw-canadian";
kernLeft = mwestleft;
kernRight = mwestright;
lastChange = "2023-01-13 15:28:14 +0000";
layers = (
{
layerId = "F8006AA5-6E21-4BD1-AC52-9C52C7F343AA";
shapes = (
{
closed = 1;
nodes = (
(137,357,l),
(137,410,ls),
(137,499,o),
(177,543,o),
(265,543,cs),
(304,543,l),
(304,714,l),
(233,714,l),
(233,568,l),
(276,600,l),
(239,600,ls),
(129,600,o),
(66,527,o),
(66,414,cs),
(66,357,l)
);
}
);
width = 370;
}
);
metricLeft = "=|s-canadian";
metricRight = "=|s-canadian";
note = uni1507;
unicode = 5383;
},
{
glyphname = "sBlackfoot-canadian";
lastChange = "2023-01-13 15:30:41 +0000";
layers = (
{
layerId = "F8006AA5-6E21-4BD1-AC52-9C52C7F343AA";
shapes = (
{
closed = 1;
nodes = (
(310,357,l),
(310,423,l),
(221,423,ls),
(164,423,o),
(137,450,o),
(137,510,cs),
(137,714,l),
(66,714,l),
(66,502,ls),
(66,408,o),
(117,357,o),
(211,357,c)
);
}
);
width = 359;
}
);
metricLeft = "ai-canadian";
metricRight = "m-canadian";
note = uni1508;
unicode = 5384;
},
{
glyphname = "moosecreesk-canadian";
kernLeft = mwestleft;
kernRight = mwestright;
lastChange = "2023-01-13 15:30:41 +0000";
layers = (
{
layerId = "F8006AA5-6E21-4BD1-AC52-9C52C7F343AA";
shapes = (
{
closed = 1;
nodes = (
(273,225,o),
(330,280,o),
(330,380,cs),
(330,521,o),
(266,600,o),
(138,600,cs),
(105,600,l),
(139,568,l),
(139,714,l),
(68,714,l),
(68,543,l),
(120,543,ls),
(221,543,o),
(252,501,o),
(260,432,c),
(281,425,l),
(272,464,o),
(238,494,o),
(192,494,cs),
(119,494,o),
(67,442,o),
(67,362,cs),
(67,276,o),
(124,225,o),
(196,225,cs)
);
},
{
closed = 1;
nodes = (
(157,277,o),
(129,308,o),
(129,361,cs),
(129,414,o),
(158,444,o),
(198,444,cs),
(237,444,o),
(265,413,o),
(265,361,cs),
(265,309,o),
(239,277,o),
(197,277,cs)
);
}
);
width = 397;
}
);
metricRight = "=|";
note = uni1509;
unicode = 5385;
},
{
glyphname = "skwNaskapi-canadian";
kernLeft = mwestleft;
kernRight = mwestright;
lastChange = "2023-01-13 15:30:41 +0000";
layers = (
{
layerId = "F8006AA5-6E21-4BD1-AC52-9C52C7F343AA";
shapes = (
{
closed = 1;
nodes = (
(273,225,o),
(330,276,o),
(330,362,cs),
(330,442,o),
(278,494,o),
(205,494,cs),
(159,494,o),
(125,464,o),
(116,425,c),
(137,432,l),
(145,501,o),
(176,543,o),
(277,543,cs),
(329,543,l),
(329,714,l),
(258,714,l),
(258,568,l),
(292,600,l),
(259,600,ls),
(131,600,o),
(67,521,o),
(67,380,cs),
(67,280,o),
(124,225,o),
(200,225,cs)
);
},
{
closed = 1;
nodes = (
(158,277,o),
(132,309,o),
(132,361,cs),
(132,413,o),
(161,444,o),
(199,444,cs),
(239,444,o),
(267,414,o),
(267,361,cs),
(267,308,o),
(239,277,o),
(200,277,cs)
);
}
);
width = 397;
}
);
metricLeft = "=|moosecreesk-canadian";
metricRight = "=|moosecreesk-canadian";
note = uni150A;
unicode = 5386;
},
{
glyphname = "swNaskapi-canadian";
lastChange = "2023-01-13 15:30:41 +0000";
layers = (
{
layerId = "F8006AA5-6E21-4BD1-AC52-9C52C7F343AA";
shapes = (
{
closed = 1;
nodes = (
(322,189,l),
(322,240,ls),
(322,348,o),
(259,420,o),
(149,420,cs),
(118,420,l),
(150,389,l),
(150,526,l),
(79,526,l),
(79,363,l),
(123,363,ls),
(211,363,o),
(251,322,o),
(251,237,cs),
(251,189,l)
);
},
{
closed = 1;
nodes = (
(317,42,o),
(342,67,o),
(342,98,cs),
(342,129,o),
(317,153,o),
(287,153,cs),
(256,153,o),
(232,129,o),
(232,98,cs),
(232,67,o),
(256,42,o),
(287,42,cs)
);
},
{
closed = 1;
nodes = (
(145,561,o),
(170,586,o),
(170,617,cs),
(170,648,o),
(145,672,o),
(115,672,cs),
(84,672,o),
(60,648,o),
(60,617,cs),
(60,586,o),
(84,561,o),
(115,561,cs)
);
}
);
width = 402;
}
);
metricRight = "=|";
note = uni150B;
unicode = 5387;
},
{
glyphname = "spwaNaskapi-canadian";
lastChange = "2023-01-13 15:28:14 +0000";
layers = (
{
layerId = "F8006AA5-6E21-4BD1-AC52-9C52C7F343AA";
shapes = (
{
closed = 1;
nodes = (
(617,0,l),
(617,92,l),
(146,379,l),
(146,334,l),
(617,621,l),
(617,714,l),
(591,714,l),
(35,375,l),
(35,339,l),
(591,0,l)
);
},
{
closed = 1;
nodes = (
(161,509,o),
(186,533,o),
(186,564,cs),
(186,595,o),
(161,619,o),
(131,619,cs),
(101,619,o),
(76,595,o),
(76,564,cs),
(76,533,o),
(101,509,o),
(131,509,cs)
);
},
{
closed = 1;
nodes = (
(359,624,l),
(359,667,ls),
(359,750,o),
(314,803,o),
(231,803,cs),
(205,803,l),
(247,777,l),
(247,880,l),
(178,880,l),
(178,750,l),
(207,750,ls),
(263,750,o),
(290,720,o),
(290,663,cs),
(290,624,l)
);
},
{
closed = 1;
nodes = (
(526,729,o),
(551,754,o),
(551,785,cs),
(551,816,o),
(526,840,o),
(496,840,cs),
(466,840,o),
(441,816,o),
(441,785,cs),
(441,754,o),
(466,729,o),
(496,729,cs)
);
}
);
width = 672;
}
);
metricRight = "pa-canadian";
metricWidth = "pa-canadian";
note = uni150C;
unicode = 5388;
},
{
glyphname = "she-canadian";
kernRight = caright;
lastChange = "2023-01-13 15:28:14 +0000";
layers = (
{
anchors = (
{
name = top_left_can;
pos = (292,714);
},
{
name = top_right_can;
pos = (724,714);
}
);
layerId = "F8006AA5-6E21-4BD1-AC52-9C52C7F343AA";
shapes = (
{
closed = 1;
nodes = (
(791,-13,o),
(875,82,o),
(875,250,cs),
(875,313,l),
(776,313,l),
(776,245,ls),
(776,131,o),
(731,74,o),
(652,74,cs),
(569,74,o),
(530,132,o),
(523,246,cs),
(511,467,ls),
(501,633,o),
(430,727,o),
(291,727,cs),
(149,727,o),
(62,631,o),
(62,464,cs),
(62,401,l),
(160,401,l),
(160,472,ls),
(160,581,o),
(207,640,o),
(287,640,cs),
(367,640,o),
(407,582,o),
(413,471,cs),
(425,247,ls),
(435,80,o),
(505,-13,o),
(649,-13,cs)
);
}
);
width = 937;
}
);
metricRight = "=|";
note = uni1510;
unicode = 5392;
},
{
glyphname = "shi-canadian";
kernLeft = coleft;
lastChange = "2023-01-13 15:28:14 +0000";
layers = (
{
anchors = (
{
name = top_left_can;
pos = (215,714);
},
{
name = top_right_can;
pos = (647,714);
}
);
layerId = "F8006AA5-6E21-4BD1-AC52-9C52C7F343AA";
shapes = (
{
closed = 1;
nodes = (
(432,-13,o),
(502,80,o),
(511,247,cs),
(523,471,ls),
(530,582,o),
(570,640,o),
(649,640,cs),
(730,640,o),
(776,581,o),
(776,472,cs),
(776,401,l),
(875,401,l),
(875,464,ls),
(875,631,o),
(788,727,o),
(645,727,cs),
(506,727,o),
(435,633,o),
(425,467,cs),
(413,246,ls),
(406,132,o),
(368,74,o),
(285,74,cs),
(205,74,o),
(160,131,o),
(160,245,cs),
(160,313,l),
(62,313,l),
(62,250,ls),
(62,82,o),
(146,-13,o),
(287,-13,cs)
);
}
);
width = 937;
}
);
metricLeft = "she-canadian";
metricRight = "she-canadian";
note = uni1511;
unicode = 5393;
},
{
glyphname = "sho-canadian";
lastChange = "2023-01-13 15:28:14 +0000";
layers = (
{
anchors = (
{
name = top_center_can;
pos = (480,515);
},
{
name = top_left_can;
pos = (288,515);
},
{
name = top_right_can;
pos = (672,515);
}
);
layerId = "F8006AA5-6E21-4BD1-AC52-9C52C7F343AA";
shapes = (
{
closed = 1;
nodes = (
(357,71,l),
(227,71,o),
(160,111,o),
(160,188,cs),
(160,246,o),
(194,284,o),
(267,284,cs),
(397,284,o),
(535,125,o),
(702,125,cs),
(824,125,o),
(898,196,o),
(898,304,cs),
(898,435,o),
(790,510,o),
(607,509,c),
(604,425,l),
(733,425,o),
(801,385,o),
(801,308,cs),
(801,249,o),
(766,212,o),
(693,212,cs),
(564,212,o),
(425,371,o),
(259,371,cs),
(137,371,o),
(62,299,o),
(62,192,cs),
(62,61,o),
(171,-14,o),
(353,-13,c)
);
}
);
width = 960;
}
);
metricLeft = "ke-canadian";
metricRight = "=|ke-canadian";
note = uni1513;
unicode = 5395;
},
{
glyphname = "sha-canadian";
lastChange = "2023-01-13 15:28:14 +0000";
layers = (
{
anchors = (
{
name = top_center_can;
pos = (480,515);
},
{
name = top_left_can;
pos = (288,515);
},
{
name = top_right_can;
pos = (672,515);
}
);
layerId = "F8006AA5-6E21-4BD1-AC52-9C52C7F343AA";
shapes = (
{
closed = 1;
nodes = (
(790,-15,o),
(898,61,o),
(898,191,cs),
(898,299,o),
(826,371,o),
(702,371,cs),
(535,371,o),
(397,212,o),
(267,212,cs),
(194,212,o),
(160,249,o),
(160,308,cs),
(160,385,o),
(227,426,o),
(357,425,c),
(353,509,l),
(171,511,o),
(62,435,o),
(62,305,cs),
(62,196,o),
(135,125,o),
(259,125,cs),
(425,125,o),
(564,284,o),
(693,284,cs),
(766,284,o),
(801,246,o),
(801,188,cs),
(801,111,o),
(733,69,o),
(604,71,c),
(607,-13,l)
);
}
);
width = 960;
}
);
metricLeft = "ke-canadian";
metricRight = "=|ke-canadian";
note = uni1515;
unicode = 5397;
},
{
glyphname = "sh-canadian";
kernLeft = mwestleft;
kernRight = mwestright;
lastChange = "2023-01-13 15:30:41 +0000";
layers = (
{
layerId = "F8006AA5-6E21-4BD1-AC52-9C52C7F343AA";
shapes = (
{
closed = 1;
nodes = (
(596,299,o),
(682,357,o),
(682,459,cs),
(682,540,o),
(625,599,o),
(531,599,cs),
(406,599,o),
(317,489,o),
(219,489,cs),
(164,489,o),
(135,518,o),
(135,564,cs),
(135,625,o),
(188,659,o),
(284,659,c),
(281,722,l),
(148,722,o),
(62,664,o),
(62,562,cs),
(62,481,o),
(120,422,o),
(213,422,cs),
(338,422,o),
(428,532,o),
(526,532,cs),
(581,532,o),
(610,503,o),
(610,457,cs),
(610,396,o),
(557,362,o),
(461,362,c),
(463,299,l)
);
}
);
width = 744;
}
);
metricLeft = "t-canadian";
metricRight = "=|";
note = uni1525;
unicode = 5413;
},
{
glyphname = "ye-canadian";
kernLeft = yeleft;
lastChange = "2023-01-13 15:28:14 +0000";
layers = (
{
anchors = (
{
name = middle_right_can;
pos = (662,357);
},
{
name = top_left_can;
pos = (92,714);
},
{
name = top_right_can;
pos = (463,714);
}
);
layerId = "F8006AA5-6E21-4BD1-AC52-9C52C7F343AA";
shapes = (
{
closed = 1;
nodes = (
(512,0,l),
(512,337,l),
(165,337,l),
(167,286,l),
(528,666,l),
(461,726,l),
(43,280,l),
(43,249,l),
(413,249,l),
(413,0,l)
);
}
);
width = 590;
}
);
note = uni1526;
unicode = 5414;
},
{
glyphname = "yi-canadian";
kernRight = yiright;
lastChange = "2023-01-13 15:30:41 +0000";
layers = (
{
anchors = (
{
name = top_left_can;
pos = (128,714);
},
{
name = top_right_can;
pos = (498,714);
}
);
layerId = "F8006AA5-6E21-4BD1-AC52-9C52C7F343AA";
shapes = (
{
closed = 1;
nodes = (
(178,0,l),
(178,249,l),
(547,249,l),
(547,280,l),
(130,726,l),
(64,667,l),
(425,287,l),
(427,337,l),
(79,337,l),
(79,0,l)
);
}
);
width = 590;
}
);
metricRight = "=|ye-canadian";
metricWidth = "ye-canadian";
note = uni1528;
unicode = 5416;
},
{
glyphname = "yo-canadian";
kernLeft = yoleft;
lastChange = "2023-01-13 15:28:14 +0000";
layers = (
{
anchors = (
{
name = middle_right_can;
pos = (662,357);
},
{
name = top_double;
pos = (463,714);
},
{
name = top_left_can;
pos = (92,714);
},
{
name = top_right_can;
pos = (463,714);
}
);
layerId = "F8006AA5-6E21-4BD1-AC52-9C52C7F343AA";
shapes = (
{
closed = 1;
nodes = (
(527,47,l),
(166,427,l),
(164,377,l),
(512,377,l),
(512,714,l),
(413,714,l),
(413,465,l),
(43,465,l),
(43,434,l),
(461,-12,l)
);
}
);
width = 590;
}
);
metricLeft = "ye-canadian";
metricWidth = "ye-canadian";
note = uni152A;
unicode = 5418;
},
{
glyphname = "ya-canadian";
kernRight = yaright;
lastChange = "2023-01-13 15:30:41 +0000";
layers = (
{
anchors = (
{
name = top_left_can;
pos = (129,714);
},
{
name = top_right_can;
pos = (498,714);
}
);
layerId = "F8006AA5-6E21-4BD1-AC52-9C52C7F343AA";
shapes = (
{
closed = 1;
nodes = (
(547,434,l),
(547,465,l),
(178,465,l),
(178,714,l),
(79,714,l),
(79,377,l),
(426,377,l),
(424,428,l),
(63,48,l),
(130,-12,l)
);
}
);
width = 590;
}
);
metricRight = "=|ye-canadian";
metricWidth = "ye-canadian";
note = uni152D;
unicode = 5421;
},
{
glyphname = "y-canadian";
kernLeft = mwestleft;
kernRight = mwestright;
lastChange = "2023-01-13 15:28:14 +0000";
layers = (
{
layerId = "F8006AA5-6E21-4BD1-AC52-9C52C7F343AA";
shapes = (
{
closed = 1;
nodes = (
(316,569,l),
(316,589,l),
(138,589,l),
(138,714,l),
(68,714,l),
(68,532,l),
(243,532,l),
(242,576,l),
(66,387,l),
(114,348,l)
);
}
);
width = 354;
}
);
note = uni153E;
unicode = 5438;
},
{
glyphname = "biblecreey-canadian";
lastChange = "2023-01-13 15:30:41 +0000";
layers = (
{
layerId = "F8006AA5-6E21-4BD1-AC52-9C52C7F343AA";
shapes = (
{
closed = 1;
nodes = (
(190,640,l),
(151,640,l),
(249,357,l),
(291,357,l),
(389,640,l),
(350,640,l),
(420,357,l),
(482,357,l),
(482,374,l),
(400,714,l),
(353,714,l),
(252,424,l),
(288,424,l),
(187,714,l),
(141,714,l),
(58,374,l),
(58,357,l),
(120,357,l)
);
}
);
width = 540;
}
);
metricRight = "=|";
note = uni153F;
unicode = 5439;
},
{
glyphname = "yWestCree-canadian";
lastChange = "2023-01-13 15:28:14 +0000";
layers = (
{
layerId = "F8006AA5-6E21-4BD1-AC52-9C52C7F343AA";
shapes = (
{
closed = 1;
nodes = (
(266,195,l),
(266,333,l),
(397,333,l),
(397,400,l),
(266,400,l),
(266,534,l),
(196,534,l),
(196,400,l),
(64,400,l),
(64,333,l),
(196,333,l),
(196,195,l)
);
}
);
width = 461;
}
);
metricLeft = "shorthorizontalstrokeFinal-canadian";
metricRight = "shorthorizontalstrokeFinal-canadian";
note = uni1540;
unicode = 5440;
},
{
glyphname = "re-canadian";
kernRight = niright;
lastChange = "2023-01-13 15:28:14 +0000";
layers = (
{
anchors = (
{
name = top_center_can;
pos = (312,515);
},
{
name = top_left_can;
pos = (124,515);
},
{
name = top_right_can;
pos = (774,515);
}
);
layerId = "F8006AA5-6E21-4BD1-AC52-9C52C7F343AA";
shapes = (
{
closed = 1;
nodes = (
(460,-13,o),
(547,85,o),
(547,243,cs),
(547,407,l),
(823,407,l),
(823,496,l),
(450,496,l),
(450,244,ls),
(450,134,o),
(401,73,o),
(312,73,cs),
(222,73,o),
(174,134,o),
(174,244,cs),
(174,496,l),
(74,496,l),
(74,243,ls),
(74,84,o),
(163,-13,o),
(312,-13,cs)
);
}
);
width = 880;
}
);
metricRight = "=|ne-canadian";
note = uni1542;
unicode = 5442;
},
{
glyphname = "reRCree-canadian";
kernLeft = neleft;
lastChange = "2023-01-13 15:28:14 +0000";
layers = (
{
anchors = (
{
name = top_center_can;
pos = (568,515);
},
{
name = top_left_can;
pos = (106,515);
},
{
name = top_right_can;
pos = (756,515);
}
);
layerId = "F8006AA5-6E21-4BD1-AC52-9C52C7F343AA";
shapes = (
{
closed = 1;
nodes = (
(718,-13,o),
(806,84,o),
(806,243,cs),
(806,496,l),
(707,496,l),
(707,244,ls),
(707,134,o),
(659,73,o),
(569,73,cs),
(480,73,o),
(430,132,o),
(430,241,cs),
(430,496,l),
(57,496,l),
(57,407,l),
(333,407,l),
(333,241,ls),
(333,84,o),
(421,-13,o),
(569,-13,cs)
);
}
);
width = 880;
}
);
metricLeft = "ne-canadian";
metricRight = "=|re-canadian";
note = uni1543;
unicode = 5443;
},
{
glyphname = "leWestCree-canadian";
kernLeft = noleft;
lastChange = "2023-01-13 15:28:14 +0000";
layers = (
{
anchors = (
{
name = top_center_can;
pos = (568,515);
},
{
name = top_left_can;
pos = (106,515);
},
{
name = top_right_can;
pos = (756,515);
}
);
layerId = "F8006AA5-6E21-4BD1-AC52-9C52C7F343AA";
shapes = (
{
closed = 1;
nodes = (
(430,0,l),
(430,249,ls),
(430,362,o),
(479,423,o),
(569,423,cs),
(659,423,o),
(707,361,o),
(707,252,cs),
(707,0,l),
(806,0,l),
(806,253,ls),
(806,412,o),
(720,509,o),
(570,509,cs),
(422,509,o),
(333,410,o),
(333,250,cs),
(333,89,l),
(57,89,l),
(57,0,l)
);
}
);
width = 880;
}
);
metricLeft = "ne-canadian";
metricRight = "=|re-canadian";
note = uni1544;
unicode = 5444;
},
{
glyphname = "ri-canadian";
kernRight = naright;
lastChange = "2023-01-13 15:28:14 +0000";
layers = (
{
anchors = (
{
name = top_center_can;
pos = (312,515);
},
{
name = top_left_can;
pos = (124,515);
},
{
name = top_right_can;
pos = (774,515);
}
);
layerId = "F8006AA5-6E21-4BD1-AC52-9C52C7F343AA";
shapes = (
{
closed = 1;
nodes = (
(174,0,l),
(174,252,ls),
(174,361,o),
(221,423,o),
(311,423,cs),
(401,423,o),
(450,364,o),
(450,255,cs),
(450,0,l),
(823,0,l),
(823,89,l),
(547,89,l),
(547,256,ls),
(547,413,o),
(462,509,o),
(312,509,cs),
(164,509,o),
(74,412,o),
(74,251,cs),
(74,0,l)
);
}
);
width = 880;
}
);
metricLeft = "re-canadian";
metricRight = "=|ne-canadian";
note = uni1546;
unicode = 5446;
},
{
glyphname = "ro-canadian";
lastChange = "2023-01-13 15:28:14 +0000";
layers = (
{
anchors = (
{
name = top_center_can;
pos = (245,714);
}
);
layerId = "F8006AA5-6E21-4BD1-AC52-9C52C7F343AA";
shapes = (
{
closed = 1;
nodes = (
(178,0,l),
(178,278,l),
(150,249,l),
(253,249,ls),
(406,249,o),
(502,342,o),
(502,480,cs),
(502,624,o),
(410,714,o),
(239,714,cs),
(78,714,l),
(78,625,l),
(241,625,ls),
(346,625,o),
(403,570,o),
(403,481,cs),
(403,393,o),
(345,337,o),
(242,337,cs),
(78,337,l),
(78,0,l)
);
}
);
width = 562;
}
);
metricLeft = "nunavuth-canadian";
note = uni1548;
unicode = 5448;
},
{
glyphname = "loWestCree-canadian";
lastChange = "2023-01-13 15:28:14 +0000";
layers = (
{
anchors = (
{
name = top_center_can;
pos = (264,714);
},
{
name = top_left_can;
pos = (128,714);
}
);
layerId = "F8006AA5-6E21-4BD1-AC52-9C52C7F343AA";
shapes = (
{
closed = 1;
nodes = (
(239,0,ls),
(410,0,o),
(502,90,o),
(502,234,cs),
(502,373,o),
(406,465,o),
(253,465,cs),
(150,465,l),
(178,437,l),
(178,714,l),
(78,714,l),
(78,377,l),
(242,377,ls),
(345,377,o),
(403,321,o),
(403,233,cs),
(403,144,o),
(346,89,o),
(241,89,cs),
(78,89,l),
(78,0,l)
);
}
);
width = 562;
}
);
metricLeft = "nunavuth-canadian";
metricRight = "ro-canadian";
note = uni154A;
unicode = 5450;
},
{
glyphname = "ra-canadian";
lastChange = "2023-01-13 15:30:41 +0000";
layers = (
{
anchors = (
{
name = top_center_can;
pos = (317,714);
},
{
name = top_right_can;
pos = (434,714);
}
);
layerId = "F8006AA5-6E21-4BD1-AC52-9C52C7F343AA";
shapes = (
{
closed = 1;
nodes = (
(483,0,l),
(483,337,l),
(320,337,ls),
(217,337,o),
(159,393,o),
(159,481,cs),
(159,570,o),
(216,625,o),
(321,625,cs),
(483,625,l),
(483,714,l),
(323,714,ls),
(152,714,o),
(60,624,o),
(60,480,cs),
(60,342,o),
(156,249,o),
(309,249,cs),
(412,249,l),
(384,278,l),
(384,0,l)
);
}
);
width = 561;
}
);
metricLeft = "=|ro-canadian";
metricRight = "nunavuth-canadian";
note = uni154B;
unicode = 5451;
},
{
glyphname = "laWestCree-canadian";
lastChange = "2023-01-13 15:30:41 +0000";
layers = (
{
anchors = (
{
name = top_center_can;
pos = (434,714);
}
);
layerId = "F8006AA5-6E21-4BD1-AC52-9C52C7F343AA";
shapes = (
{
closed = 1;
nodes = (
(483,0,l),
(483,89,l),
(321,89,ls),
(216,89,o),
(159,144,o),
(159,233,cs),
(159,321,o),
(217,377,o),
(320,377,cs),
(483,377,l),
(483,714,l),
(384,714,l),
(384,437,l),
(412,465,l),
(309,465,ls),
(156,465,o),
(60,373,o),
(60,234,cs),
(60,90,o),
(152,0,o),
(323,0,cs)
);
}
);
width = 561;
}
);
metricLeft = "=|ro-canadian";
metricRight = "nunavuth-canadian";
note = uni154D;
unicode = 5453;
},
{
glyphname = "r-canadian";
kernLeft = mwestleft;
kernRight = mwestright;
lastChange = "2023-01-13 15:28:14 +0000";
layers = (
{
layerId = "F8006AA5-6E21-4BD1-AC52-9C52C7F343AA";
shapes = (
{
closed = 1;
nodes = (
(275,357,l),
(275,535,l),
(193,535,ls),
(145,535,o),
(122,557,o),
(122,596,cs),
(122,635,o),
(145,658,o),
(194,658,cs),
(275,658,l),
(275,714,l),
(194,714,ls),
(105,714,o),
(56,670,o),
(56,596,cs),
(56,525,o),
(106,479,o),
(186,479,cs),
(241,479,l),
(204,504,l),
(204,357,l)
);
}
);
width = 341;
}
);
metricLeft = "=|k-canadian";
note = uni1550;
unicode = 5456;
},
{
glyphname = "rWestCree-canadian";
kernLeft = mwestleft;
kernRight = mwestright;
lastChange = "2023-01-13 15:28:14 +0000";
layers = (
{
layerId = "F8006AA5-6E21-4BD1-AC52-9C52C7F343AA";
shapes = (
{
closed = 1;
nodes = (
(80,357,l),
(315,449,l),
(315,475,l),
(120,548,l),
(120,522,l),
(315,596,l),
(315,621,l),
(80,714,l),
(66,714,l),
(66,667,l),
(258,591,l),
(258,625,l),
(66,551,l),
(66,520,l),
(258,446,l),
(258,480,l),
(66,403,l),
(66,357,l)
);
}
);
width = 381;
}
);
metricLeft = "=|lWestCree-canadian";
metricRight = "=|lWestCree-canadian";
note = uni1551;
unicode = 5457;
},
{
glyphname = "rMedial-canadian";
lastChange = "2023-01-13 15:28:14 +0000";
layers = (
{
layerId = "F8006AA5-6E21-4BD1-AC52-9C52C7F343AA";
shapes = (
{
closed = 1;
nodes = (
(98,-13,l),
(594,179,l),
(594,217,l),
(174,373,l),
(174,340,l),
(594,497,l),
(594,535,l),
(98,727,l),
(72,727,l),
(72,655,l),
(495,492,l),
(495,537,l),
(72,379,l),
(72,334,l),
(495,177,l),
(495,223,l),
(72,60,l),
(72,-13,l)
);
}
);
width = 666;
}
);
metricLeft = "mediall-canadian";
metricRight = "mediall-canadian";
note = uni1552;
unicode = 5458;
},
{
glyphname = "fe-canadian";
kernLeft = ecanleft;
kernRight = ecanright;
lastChange = "2023-01-13 15:30:41 +0000";
layers = (
{
layerId = "F8006AA5-6E21-4BD1-AC52-9C52C7F343AA";
shapes = (
{
closed = 1;
nodes = (
(400,0,l),
(755,687,l),
(755,714,l),
(670,714,l),
(364,110,l),
(389,110,l),
(242,369,l),
(180,363,l),
(207,337,o),
(236,325,o),
(272,325,cs),
(364,325,o),
(438,408,o),
(438,527,cs),
(438,646,o),
(371,727,o),
(264,727,cs),
(157,727,o),
(90,646,o),
(90,532,cs),
(90,480,o),
(104,428,o),
(141,367,cs),
(363,0,l)
);
},
{
closed = 1;
nodes = (
(207,398,o),
(172,448,o),
(172,529,cs),
(172,608,o),
(206,653,o),
(264,653,cs),
(322,653,o),
(356,609,o),
(356,527,cs),
(356,444,o),
(322,398,o),
(264,398,cs)
);
}
);
width = 788;
}
);
metricRight = "e-canadian";
note = uni1553;
unicode = 5459;
},
{
glyphname = "fi-canadian";
kernLeft = icanleft;
kernRight = icanright;
lastChange = "2023-01-13 15:30:41 +0000";
layers = (
{
anchors = (
{
name = top_center_can;
pos = (383,714);
},
{
name = top_left_can;
pos = (140,714);
},
{
name = top_right_can;
pos = (650,714);
}
);
layerId = "F8006AA5-6E21-4BD1-AC52-9C52C7F343AA";
shapes = (
{
closed = 1;
nodes = (
(371,-13,o),
(438,68,o),
(438,187,cs),
(438,306,o),
(364,389,o),
(272,389,cs),
(236,389,o),
(207,377,o),
(180,351,c),
(242,345,l),
(389,604,l),
(364,604,l),
(670,0,l),
(755,0,l),
(755,27,l),
(400,714,l),
(363,714,l),
(140,346,ls),
(104,285,o),
(90,234,o),
(90,182,cs),
(90,68,o),
(157,-13,o),
(264,-13,cs)
);
},
{
closed = 1;
nodes = (
(206,61,o),
(172,106,o),
(172,185,cs),
(172,266,o),
(207,316,o),
(264,316,cs),
(322,316,o),
(356,270,o),
(356,187,cs),
(356,105,o),
(322,61,o),
(264,61,cs)
);
}
);
width = 788;
}
);
metricLeft = "fe-canadian";
metricRight = "e-canadian";
note = uni1555;
unicode = 5461;
},
{
glyphname = "fo-canadian";
kernLeft = ocanleft;
kernRight = ocanright;
lastChange = "2023-01-13 15:28:14 +0000";
layers = (
{
anchors = (
{
name = top_center_can;
pos = (232,714);
}
);
layerId = "F8006AA5-6E21-4BD1-AC52-9C52C7F343AA";
shapes = (
{
closed = 1;
nodes = (
(121,0,l),
(674,339,l),
(674,374,l),
(356,676,ls),
(320,711,o),
(276,727,o),
(231,727,cs),
(132,727,o),
(58,652,o),
(58,525,cs),
(58,406,o),
(125,325,o),
(229,325,cs),
(332,325,o),
(397,406,o),
(397,525,cs),
(397,566,o),
(385,609,o),
(369,638,c),
(341,577,l),
(577,355,l),
(576,377,l),
(94,83,l),
(94,0,l)
);
},
{
closed = 1;
nodes = (
(173,399,o),
(139,444,o),
(139,526,cs),
(139,609,o),
(173,653,o),
(231,653,cs),
(289,653,o),
(322,611,o),
(322,527,cs),
(322,444,o),
(289,399,o),
(231,399,cs)
);
}
);
width = 709;
}
);
metricRight = "o-canadian";
note = uni1557;
unicode = 5463;
},
{
glyphname = "fa-canadian";
kernLeft = acanleft;
kernRight = acanright;
lastChange = "2023-01-13 15:28:14 +0000";
layers = (
{
anchors = (
{
name = top_center_can;
pos = (477,714);
}
);
layerId = "F8006AA5-6E21-4BD1-AC52-9C52C7F343AA";
shapes = (
{
closed = 1;
nodes = (
(615,0,l),
(615,82,l),
(131,378,l),
(132,357,l),
(368,580,l),
(340,638,l),
(323,609,o),
(312,566,o),
(312,525,cs),
(312,406,o),
(377,325,o),
(480,325,cs),
(584,325,o),
(651,406,o),
(651,525,cs),
(651,652,o),
(577,727,o),
(478,727,cs),
(433,727,o),
(389,711,o),
(353,676,cs),
(35,374,l),
(35,339,l),
(588,0,l)
);
},
{
closed = 1;
nodes = (
(420,398,o),
(386,444,o),
(386,527,cs),
(386,610,o),
(420,653,o),
(477,653,cs),
(535,653,o),
(569,609,o),
(569,526,cs),
(569,443,o),
(535,398,o),
(478,398,cs)
);
}
);
width = 709;
}
);
metricRight = "=|fo-canadian";
note = uni1559;
unicode = 5465;
},
{
glyphname = "f-canadian";
kernLeft = mwestleft;
kernRight = mwestright;
lastChange = "2023-01-13 15:28:14 +0000";
layers = (
{
layerId = "F8006AA5-6E21-4BD1-AC52-9C52C7F343AA";
shapes = (
{
closed = 1;
nodes = (
(350,357,l),
(350,401,l),
(114,546,l),
(114,534,l),
(224,639,l),
(214,675,l),
(205,661,o),
(199,639,o),
(199,617,cs),
(199,557,o),
(234,519,o),
(283,519,cs),
(334,519,o),
(367,557,o),
(367,619,cs),
(367,686,o),
(329,720,o),
(282,720,cs),
(260,720,o),
(236,711,o),
(214,690,cs),
(60,545,l),
(60,525,l),
(334,357,l)
);
},
{
closed = 1;
nodes = (
(256,559,o),
(241,580,o),
(241,619,cs),
(241,659,o),
(256,679,o),
(282,679,cs),
(308,679,o),
(324,660,o),
(324,619,cs),
(324,579,o),
(308,559,o),
(283,559,cs)
);
}
);
width = 427;
}
);
note = uni155D;
unicode = 5469;
},
{
glyphname = "the-canadian";
lastChange = "2023-01-13 15:28:14 +0000";
layers = (
{
anchors = (
{
name = middle_right_can;
pos = (841,357);
},
{
name = top_center_can;
pos = (373,714);
},
{
name = top_left_can;
pos = (119,714);
},
{
name = top_right_can;
pos = (627,714);
}
);
layerId = "F8006AA5-6E21-4BD1-AC52-9C52C7F343AA";
shapes = (
{
closed = 1;
nodes = (
(563,-13,o),
(676,106,o),
(676,313,cs),
(676,714,l),
(577,714,l),
(577,309,ls),
(577,156,o),
(504,76,o),
(373,76,cs),
(246,76,o),
(169,152,o),
(169,300,cs),
(169,434,l),
(133,405,l),
(148,351,o),
(196,318,o),
(252,318,cs),
(352,318,o),
(417,398,o),
(417,523,cs),
(417,646,o),
(353,727,o),
(246,727,cs),
(136,727,o),
(71,645,o),
(71,503,cs),
(71,325,ls),
(71,106,o),
(185,-13,o),
(374,-13,cs)
);
},
{
closed = 1;
nodes = (
(186,392,o),
(152,437,o),
(152,523,cs),
(152,608,o),
(186,653,o),
(244,653,cs),
(302,653,o),
(335,608,o),
(335,523,cs),
(335,438,o),
(302,392,o),
(244,392,cs)
);
}
);
width = 747;
}
);
metricLeft = "te-canadian";
metricRight = "te-canadian";
note = uni155E;
unicode = 5470;
},
{
glyphname = "theNCree-canadian";
lastChange = "2023-01-13 15:28:14 +0000";
layers = (
{
layerId = "F8006AA5-6E21-4BD1-AC52-9C52C7F343AA";
shapes = (
{
closed = 1;
nodes = (
(565,-13,o),
(676,106,o),
(676,325,cs),
(676,503,ls),
(676,645,o),
(611,727,o),
(501,727,cs),
(394,727,o),
(330,646,o),
(330,523,cs),
(330,399,o),
(395,318,o),
(495,318,cs),
(551,318,o),
(599,351,o),
(614,405,c),
(578,434,l),
(578,300,ls),
(578,151,o),
(503,75,o),
(374,75,cs),
(245,75,o),
(170,157,o),
(170,308,cs),
(170,714,l),
(71,714,l),
(71,310,ls),
(71,105,o),
(184,-13,o),
(373,-13,cs)
);
},
{
closed = 1;
nodes = (
(445,392,o),
(412,439,o),
(412,523,cs),
(412,608,o),
(445,653,o),
(503,653,cs),
(561,653,o),
(595,608,o),
(595,523,cs),
(595,437,o),
(561,392,o),
(503,392,cs)
);
}
);
width = 747;
}
);
metricLeft = "te-canadian";
metricRight = "te-canadian";
note = uni155F;
unicode = 5471;
},
{
glyphname = "thi-canadian";
lastChange = "2023-01-13 15:28:14 +0000";
layers = (
{
anchors = (
{
name = top_center_can;
pos = (371,714);
}
);
layerId = "F8006AA5-6E21-4BD1-AC52-9C52C7F343AA";
shapes = (
{
closed = 1;
nodes = (
(353,-13,o),
(417,68,o),
(417,191,cs),
(417,315,o),
(352,396,o),
(252,396,cs),
(196,396,o),
(148,363,o),
(133,309,c),
(169,280,l),
(169,414,ls),
(169,563,o),
(244,639,o),
(373,639,cs),
(502,639,o),
(577,557,o),
(577,406,cs),
(577,0,l),
(676,0,l),
(676,404,ls),
(676,609,o),
(563,727,o),
(374,727,cs),
(182,727,o),
(71,608,o),
(71,389,cs),
(71,211,ls),
(71,69,o),
(136,-13,o),
(246,-13,cs)
);
},
{
closed = 1;
nodes = (
(186,61,o),
(152,106,o),
(152,191,cs),
(152,277,o),
(186,322,o),
(244,322,cs),
(302,322,o),
(335,275,o),
(335,191,cs),
(335,106,o),
(302,61,o),
(244,61,cs)
);
}
);
width = 747;
}
);
metricLeft = "te-canadian";
metricRight = "te-canadian";
note = uni1560;
unicode = 5472;
},
{
glyphname = "thiNCree-canadian";
lastChange = "2023-01-13 15:28:14 +0000";
layers = (
{
anchors = (
{
name = top_center_can;
pos = (371,714);
}
);
layerId = "F8006AA5-6E21-4BD1-AC52-9C52C7F343AA";
shapes = (
{
closed = 1;
nodes = (
(611,-13,o),
(676,69,o),
(676,211,cs),
(676,389,ls),
(676,608,o),
(565,727,o),
(373,727,cs),
(184,727,o),
(71,609,o),
(71,404,cs),
(71,0,l),
(170,0,l),
(170,406,ls),
(170,557,o),
(245,639,o),
(374,639,cs),
(503,639,o),
(578,563,o),
(578,414,cs),
(578,280,l),
(614,309,l),
(599,363,o),
(551,396,o),
(495,396,cs),
(395,396,o),
(330,315,o),
(330,191,cs),
(330,68,o),
(394,-13,o),
(501,-13,cs)
);
},
{
closed = 1;
nodes = (
(445,61,o),
(412,106,o),
(412,191,cs),
(412,275,o),
(445,322,o),
(503,322,cs),
(561,322,o),
(595,277,o),
(595,191,cs),
(595,106,o),
(561,61,o),
(503,61,cs)
);
}
);
width = 747;
}
);
metricLeft = "te-canadian";
metricRight = "te-canadian";
note = uni1561;
unicode = 5473;
},
{
glyphname = "tho-canadian";
lastChange = "2023-01-13 15:30:41 +0000";
layers = (
{
anchors = (
{
name = top_center_can;
pos = (315,714);
}
);
layerId = "F8006AA5-6E21-4BD1-AC52-9C52C7F343AA";
shapes = (
{
closed = 1;
nodes = (
(285,0,ls),
(509,0,o),
(631,129,o),
(631,363,cs),
(631,583,o),
(512,727,o),
(316,727,cs),
(165,727,o),
(69,638,o),
(69,497,cs),
(69,373,o),
(137,295,o),
(243,295,cs),
(347,295,o),
(410,370,o),
(410,489,cs),
(410,584,o),
(362,670,o),
(258,676,c),
(226,638,l),
(246,648,o),
(276,654,o),
(303,654,cs),
(456,654,o),
(533,542,o),
(533,368,cs),
(533,182,o),
(448,90,o),
(279,90,cs),
(103,90,l),
(103,0,l)
);
},
{
closed = 1;
nodes = (
(184,369,o),
(151,413,o),
(151,501,cs),
(151,588,o),
(191,633,o),
(242,633,cs),
(295,633,o),
(334,588,o),
(334,500,cs),
(334,413,o),
(301,369,o),
(242,369,cs)
);
}
);
width = 695;
}
);
metricRight = "to-canadian";
note = uni1564;
unicode = 5476;
},
{
glyphname = "tha-canadian";
lastChange = "2023-01-13 15:30:41 +0000";
layers = (
{
anchors = (
{
name = top_center_can;
pos = (382,714);
}
);
layerId = "F8006AA5-6E21-4BD1-AC52-9C52C7F343AA";
shapes = (
{
closed = 1;
nodes = (
(592,0,l),
(592,90,l),
(416,90,ls),
(247,90,o),
(162,182,o),
(162,368,cs),
(162,542,o),
(239,654,o),
(392,654,cs),
(419,654,o),
(449,648,o),
(468,638,c),
(437,676,l),
(333,670,o),
(285,584,o),
(285,489,cs),
(285,370,o),
(349,295,o),
(452,295,cs),
(558,295,o),
(626,374,o),
(626,497,cs),
(626,639,o),
(529,727,o),
(380,727,cs),
(184,727,o),
(64,583,o),
(64,363,cs),
(64,130,o),
(185,0,o),
(410,0,cs)
);
},
{
closed = 1;
nodes = (
(394,369,o),
(361,413,o),
(361,500,cs),
(361,588,o),
(400,633,o),
(453,633,cs),
(504,633,o),
(544,588,o),
(544,501,cs),
(544,413,o),
(511,369,o),
(453,369,cs)
);
}
);
width = 695;
}
);
metricLeft = "=|theCarrier-canadian";
metricRight = "=|tho-canadian";
note = uni1566;
unicode = 5478;
},
{
glyphname = "th-canadian";
kernLeft = mwestleft;
kernRight = mwestright;
lastChange = "2023-01-13 15:28:14 +0000";
layers = (
{
layerId = "F8006AA5-6E21-4BD1-AC52-9C52C7F343AA";
shapes = (
{
closed = 1;
nodes = (
(326,357,l),
(326,415,l),
(246,415,ls),
(162,415,o),
(123,457,o),
(123,540,cs),
(123,622,o),
(161,677,o),
(235,677,cs),
(249,677,o),
(263,674,o),
(272,670,c),
(248,693,l),
(198,690,o),
(175,651,o),
(175,604,cs),
(175,542,o),
(209,504,o),
(259,504,cs),
(309,504,o),
(343,542,o),
(343,604,cs),
(343,678,o),
(295,720,o),
(222,720,cs),
(124,720,o),
(62,648,o),
(62,535,cs),
(62,425,o),
(124,357,o),
(242,357,cs)
);
},
{
closed = 1;
nodes = (
(232,544,o),
(217,565,o),
(217,604,cs),
(217,644,o),
(232,664,o),
(258,664,cs),
(284,664,o),
(299,645,o),
(299,604,cs),
(299,564,o),
(284,544,o),
(258,544,cs)
);
}
);
width = 402;
}
);
metricLeft = "t-canadian";
note = uni156A;
unicode = 5482;
},
{
glyphname = "tthe-canadian";
lastChange = "2023-01-13 15:28:14 +0000";
layers = (
{
anchors = (
{
name = middle_right_can;
pos = (831,357);
},
{
name = top_center_can;
pos = (369,714);
},
{
name = top_left_can;
pos = (121,714);
},
{
name = top_right_can;
pos = (618,714);
}
);
layerId = "F8006AA5-6E21-4BD1-AC52-9C52C7F343AA";
shapes = (
{
closed = 1;
nodes = (
(555,-13,o),
(667,106,o),
(667,313,cs),
(667,714,l),
(570,714,l),
(570,311,ls),
(570,157,o),
(496,78,o),
(369,78,cs),
(245,78,o),
(168,159,o),
(168,310,cs),
(167.993,714,l),
(71,714,l),
(71,310,ls),
(71,105,o),
(184,-13,o),
(369,-13,cs)
);
},
{
closed = 1;
nodes = (
(410,401,l),
(410,714,l),
(328,714,l),
(328,401,l)
);
}
);
width = 738;
}
);
metricLeft = "te-canadian";
metricRight = "te-canadian";
note = uni156B;
unicode = 5483;
},
{
glyphname = "tthi-canadian";
lastChange = "2023-01-13 15:28:14 +0000";
layers = (
{
layerId = "F8006AA5-6E21-4BD1-AC52-9C52C7F343AA";
shapes = (
{
closed = 1;
nodes = (
(167.993,0,l),
(168,403,ls),
(168,555,o),
(245,636,o),
(371,636,cs),
(494,636,o),
(570,555,o),
(570,404,cs),
(570,0,l),
(667,0,l),
(667,404,ls),
(667,609,o),
(554,727,o),
(372,727,cs),
(185,727,o),
(71,609,o),
(71,401,cs),
(71,0,l)
);
},
{
closed = 1;
nodes = (
(410,0,l),
(410,313,l),
(328,313,l),
(328,0,l)
);
}
);
width = 738;
}
);
metricLeft = "te-canadian";
metricRight = "te-canadian";
note = uni156C;
unicode = 5484;
},
{
glyphname = "ttho-canadian";
lastChange = "2023-01-13 15:30:41 +0000";
layers = (
{
anchors = (
{
name = top_center_can;
pos = (328,714);
},
{
name = top_left_can;
pos = (124,714);
},
{
name = top_right_can;
pos = (531,714);
}
);
layerId = "F8006AA5-6E21-4BD1-AC52-9C52C7F343AA";
shapes = (
{
closed = 1;
nodes = (
(239,0,ls),
(456,0,o),
(580,133,o),
(580,358,cs),
(580,583,o),
(456,714,o),
(236,714,cs),
(75,714,l),
(75,624,l),
(233,624,ls),
(393,624,o),
(481,531,o),
(481,358,cs),
(481,185,o),
(393,90,o),
(234,90,cs),
(75,90,l),
(75,0,l)
);
},
{
closed = 1;
nodes = (
(319,317,l),
(319,399,l),
(75,399,l),
(75,317,l)
);
}
);
width = 644;
}
);
metricRight = "to-canadian";
note = uni156D;
unicode = 5485;
},
{
glyphname = "ttha-canadian";
lastChange = "2023-01-13 15:30:41 +0000";
layers = (
{
anchors = (
{
name = top_center_can;
pos = (330,714);
},
{
name = top_left_can;
pos = (113,714);
},
{
name = top_right_can;
pos = (520,714);
}
);
layerId = "F8006AA5-6E21-4BD1-AC52-9C52C7F343AA";
shapes = (
{
closed = 1;
nodes = (
(569,0,l),
(569,90,l),
(411,90,ls),
(251,90,o),
(163,184,o),
(163,357,cs),
(163,530,o),
(251,624,o),
(410,624,cs),
(569,624,l),
(569,714,l),
(407,714,ls),
(188,714,o),
(64,582,o),
(64,357,cs),
(64,132,o),
(188,0,o),
(406,0,cs)
);
},
{
closed = 1;
nodes = (
(569,317,l),
(569,399,l),
(325,399,l),
(325,317,l)
);
}
);
width = 644;
}
);
metricLeft = "=|to-canadian";
metricRight = "=|ttho-canadian";
note = uni156E;
unicode = 5486;
},
{
glyphname = "tth-canadian";
lastChange = "2023-01-13 15:28:14 +0000";
layers = (
{
layerId = "F8006AA5-6E21-4BD1-AC52-9C52C7F343AA";
shapes = (
{
closed = 1;
nodes = (
(659,494,l),
(633,494,l),
(729,359,l),
(778,395,l),
(681,530,l),
(673,504,l),
(825,557,l),
(806,614,l),
(654,560,l),
(677,546,l),
(677,714,l),
(616,714,l),
(616,546,l),
(638,560,l),
(487,614,l),
(467,557,l),
(619,504,l),
(612,530,l),
(514,395,l),
(563,359,l)
);
},
{
closed = 1;
nodes = (
(240,494,l),
(214,494,l),
(311,359,l),
(360,395,l),
(262,530,l),
(254,504,l),
(406,557,l),
(386,614,l),
(235,560,l),
(257,546,l),
(257,714,l),
(197,714,l),
(197,546,l),
(219,560,l),
(67,614,l),
(48,557,l),
(200,504,l),
(192,530,l),
(94,395,l),
(143,359,l)
);
}
);
width = 873;
}
);
metricRight = "=|";
note = uni156F;
unicode = 5487;
},
{
glyphname = "tye-canadian";
lastChange = "2023-01-13 15:28:14 +0000";
layers = (
{
layerId = "F8006AA5-6E21-4BD1-AC52-9C52C7F343AA";
shapes = (
{
closed = 1;
nodes = (
(555,-13,o),
(667,106,o),
(667,313,cs),
(667,714,l),
(570,714,l),
(570,313,ls),
(570,157,o),
(496,78,o),
(369,78,cs),
(245,78,o),
(167,159,o),
(167,312,cs),
(167,714,l),
(71,714,l),
(71,310,ls),
(71,105,o),
(184,-13,o),
(369,-13,cs)
);
},
{
closed = 1;
nodes = (
(443,426,o),
(486,473,o),
(486,558,cs),
(486,714,l),
(435,714,l),
(435,560,ls),
(435,506,o),
(413,478,o),
(369,478,cs),
(325,478,o),
(303,506,o),
(303,560,cs),
(303,714,l),
(251,714,l),
(251,558,ls),
(251,472,o),
(296,426,o),
(369,426,cs)
);
}
);
width = 738;
}
);
metricLeft = "te-canadian";
metricRight = "te-canadian";
note = uni1570;
unicode = 5488;
},
{
glyphname = "tyi-canadian";
lastChange = "2023-01-13 15:28:14 +0000";
layers = (
{
layerId = "F8006AA5-6E21-4BD1-AC52-9C52C7F343AA";
shapes = (
{
closed = 1;
nodes = (
(168,0,l),
(168,401,ls),
(168,555,o),
(245,636,o),
(371,636,cs),
(494,636,o),
(570,555,o),
(570,402,cs),
(570,0,l),
(667,0,l),
(667,404,ls),
(667,609,o),
(554,727,o),
(372,727,cs),
(185,727,o),
(71,609,o),
(71,401,cs),
(71,0,l)
);
},
{
closed = 1;
nodes = (
(303,0,l),
(303,153,ls),
(303,208,o),
(325,236,o),
(369,236,cs),
(412,236,o),
(435,208,o),
(435,153,cs),
(435,0,l),
(486,0,l),
(486,156,ls),
(486,242,o),
(441,288,o),
(368,288,cs),
(295,288,o),
(251,241,o),
(251,156,cs),
(251,0,l)
);
}
);
width = 738;
}
);
metricLeft = "te-canadian";
metricRight = "te-canadian";
note = uni1571;
unicode = 5489;
},
{
glyphname = "tyo-canadian";
lastChange = "2023-01-13 15:30:41 +0000";
layers = (
{
layerId = "F8006AA5-6E21-4BD1-AC52-9C52C7F343AA";
shapes = (
{
closed = 1;
nodes = (
(242,0,ls),
(458,0,o),
(584,133,o),
(584,358,cs),
(584,583,o),
(458,714,o),
(239,714,cs),
(78,714,l),
(78,625,l),
(234,625,ls),
(397,625,o),
(484,531,o),
(484,358,cs),
(484,185,o),
(397,89,o),
(235,89,cs),
(78,89,l),
(78,0,l)
);
},
{
closed = 1;
nodes = (
(172,221,ls),
(263,221,o),
(312,272,o),
(312,357,cs),
(312,443,o),
(262,493,o),
(172,493,cs),
(78,493,l),
(78,441,l),
(165,441,ls),
(227,441,o),
(254,411,o),
(254,357,cs),
(254,303,o),
(227,273,o),
(165,273,cs),
(78,273,l),
(78,221,l)
);
}
);
width = 648;
}
);
metricLeft = "nunavuth-canadian";
metricRight = "theCarrier-canadian";
note = uni1572;
unicode = 5490;
},
{
glyphname = "tya-canadian";
lastChange = "2023-01-13 15:30:41 +0000";
layers = (
{
layerId = "F8006AA5-6E21-4BD1-AC52-9C52C7F343AA";
shapes = (
{
closed = 1;
nodes = (
(569,0,l),
(569,89,l),
(414,89,ls),
(251,89,o),
(163,183,o),
(163,357,cs),
(163,530,o),
(251,625,o),
(413,625,cs),
(569,625,l),
(569,714,l),
(407,714,ls),
(189,714,o),
(64,582,o),
(64,357,cs),
(64,132,o),
(189,0,o),
(406,0,cs)
);
},
{
closed = 1;
nodes = (
(569,221,l),
(569,273,l),
(483,273,ls),
(421,273,o),
(394,303,o),
(394,357,cs),
(394,411,o),
(421,441,o),
(482,441,cs),
(569,441,l),
(569,493,l),
(475,493,ls),
(385,493,o),
(335,442,o),
(335,357,cs),
(335,271,o),
(385,221,o),
(475,221,cs)
);
}
);
width = 647;
}
);
metricLeft = "=|theCarrier-canadian";
metricRight = "nunavuth-canadian";
note = uni1573;
unicode = 5491;
},
{
glyphname = "heNunavik-canadian";
lastChange = "2023-01-13 15:28:14 +0000";
layers = (
{
layerId = "F8006AA5-6E21-4BD1-AC52-9C52C7F343AA";
shapes = (
{
closed = 1;
nodes = (
(525,0,l),
(771,202,l),
(717,270,l),
(473,70,l),
(536,66,l),
(536,459,ls),
(536,626,o),
(447,727,o),
(301,727,cs),
(156,727,o),
(62,625,o),
(62,463,cs),
(62,306,o),
(153,205,o),
(287,205,cs),
(370,205,o),
(432,251,o),
(446,311,c),
(437,324,l),
(437,0,l)
);
},
{
closed = 1;
nodes = (
(214,290,o),
(160,353,o),
(160,466,cs),
(160,579,o),
(212,642,o),
(299,642,cs),
(386,642,o),
(438,580,o),
(438,466,cs),
(438,354,o),
(384,290,o),
(299,290,cs)
);
}
);
width = 797;
}
);
metricLeft = "ke-canadian";
note = uni1574;
unicode = 5492;
},
{
glyphname = "hiNunavik-canadian";
lastChange = "2023-01-13 15:28:14 +0000";
layers = (
{
anchors = (
{
name = top_center_can;
pos = (498,714);
}
);
layerId = "F8006AA5-6E21-4BD1-AC52-9C52C7F343AA";
shapes = (
{
closed = 1;
nodes = (
(359,0,l),
(359,324,l),
(351,311,l),
(365,251,o),
(427,205,o),
(510,205,cs),
(644,205,o),
(735,307,o),
(735,465,cs),
(735,627,o),
(642,727,o),
(498,727,cs),
(352,727,o),
(261,626,o),
(261,459,cs),
(261,73,l),
(324,70,l),
(80,270,l),
(26,202,l),
(271,0,l)
);
},
{
closed = 1;
nodes = (
(413,290,o),
(358,354,o),
(358,466,cs),
(358,580,o),
(411,642,o),
(498,642,cs),
(584,642,o),
(637,579,o),
(637,466,cs),
(637,353,o),
(582,290,o),
(498,290,cs)
);
}
);
width = 797;
}
);
metricLeft = "=|heNunavik-canadian";
metricRight = "=|ke-canadian";
note = uni1575;
unicode = 5493;
},
{
glyphname = "hoNunavik-canadian";
lastChange = "2023-01-13 15:28:14 +0000";
layers = (
{
anchors = (
{
name = top_center_can;
pos = (299,714);
},
{
name = top_right_can;
pos = (487,714);
}
);
layerId = "F8006AA5-6E21-4BD1-AC52-9C52C7F343AA";
shapes = (
{
closed = 1;
nodes = (
(447,-13,o),
(536,88,o),
(536,255,cs),
(536,648,l),
(473,644,l),
(717,444,l),
(771,512,l),
(525,714,l),
(437,714,l),
(437,390,l),
(446,403,l),
(432,463,o),
(370,509,o),
(288,509,cs),
(153,509,o),
(62,405,o),
(62,248,cs),
(62,87,o),
(154,-13,o),
(299,-13,cs)
);
},
{
closed = 1;
nodes = (
(212,72,o),
(160,135,o),
(160,248,cs),
(160,361,o),
(214,424,o),
(299,424,cs),
(384,424,o),
(438,360,o),
(438,248,cs),
(438,134,o),
(386,72,o),
(299,72,cs)
);
}
);
width = 797;
}
);
metricLeft = "ke-canadian";
metricRight = "heNunavik-canadian";
note = uni1577;
unicode = 5495;
},
{
glyphname = "haNunavik-canadian";
lastChange = "2023-01-13 15:28:14 +0000";
layers = (
{
anchors = (
{
name = top_center_can;
pos = (498,714);
},
{
name = top_left_can;
pos = (310,714);
}
);
layerId = "F8006AA5-6E21-4BD1-AC52-9C52C7F343AA";
shapes = (
{
closed = 1;
nodes = (
(640,-13,o),
(735,87,o),
(735,250,cs),
(735,407,o),
(644,509,o),
(512,509,cs),
(429,509,o),
(366,463,o),
(351,403,c),
(359,390,l),
(359,714,l),
(271,714,l),
(26,512,l),
(80,444,l),
(324,644,l),
(261,641,l),
(261,255,ls),
(261,88,o),
(349,-13,o),
(496,-13,cs)
);
},
{
closed = 1;
nodes = (
(411,72,o),
(358,134,o),
(358,248,cs),
(358,360,o),
(413,424,o),
(498,424,cs),
(582,424,o),
(637,361,o),
(637,248,cs),
(637,135,o),
(584,72,o),
(498,72,cs)
);
}
);
width = 797;
}
);
metricLeft = "=|heNunavik-canadian";
metricRight = "=|ke-canadian";
note = uni1579;
unicode = 5497;
},
{
glyphname = "hNunavik-canadian";
kernLeft = mwestleft;
kernRight = mwestright;
lastChange = "2023-01-13 15:28:14 +0000";
layers = (
{
layerId = "F8006AA5-6E21-4BD1-AC52-9C52C7F343AA";
shapes = (
{
closed = 1;
nodes = (
(368,351,o),
(425,402,o),
(425,489,cs),
(425,571,o),
(373,622,o),
(306,622,cs),
(259,622,o),
(224,593,o),
(216,553,c),
(232,553,l),
(232,714,l),
(167,714,l),
(44,613,l),
(77,573,l),
(200,674,l),
(162,676,l),
(162,490,ls),
(162,404,o),
(214,351,o),
(295,351,cs)
);
},
{
closed = 1;
nodes = (
(252,404,o),
(227,432,o),
(227,487,cs),
(227,540,o),
(255,569,o),
(294,569,cs),
(333,569,o),
(362,540,o),
(362,487,cs),
(362,434,o),
(334,404,o),
(294,404,cs)
);
}
);
width = 481;
}
);
metricRight = "k-canadian";
note = uni157B;
unicode = 5499;
},
{
color = 4;
glyphname = "nunavuth-canadian";
lastChange = "2023-01-13 15:28:14 +0000";
layers = (
{
layerId = "F8006AA5-6E21-4BD1-AC52-9C52C7F343AA";
shapes = (
{
closed = 1;
nodes = (
(178,326,l),
(533,326,l),
(533,0,l),
(633,0,l),
(633,714,l),
(533,714,l),
(533,414,l),
(178,414,l),
(178,714,l),
(78,714,l),
(78,0,l),
(178,0,l)
);
}
);
width = 711;
}
);
metricRight = "=|";
note = uni157C;
unicode = 5500;
},
{
glyphname = "tlhe-canadian";
lastChange = "2023-01-13 15:28:14 +0000";
layers = (
{
anchors = (
{
name = top_center_can;
pos = (309,714);
}
);
layerId = "F8006AA5-6E21-4BD1-AC52-9C52C7F343AA";
shapes = (
{
closed = 1;
nodes = (
(200,0,l),
(342,279,l),
(263,243,l),
(273,241,o),
(284,240,o),
(294,240,cs),
(376,240,o),
(437,281,o),
(453,331,c),
(447,364,l),
(447,0,l),
(545.994,0,l),
(546,474,ls),
(546,631,o),
(457,727,o),
(309,727,cs),
(156,727,o),
(68,625,o),
(68,482,cs),
(68,363,o),
(129,280,o),
(225,256,c),
(94,0,l)
);
},
{
closed = 1;
nodes = (
(219,326,o),
(165,384,o),
(165,483,cs),
(165,583,o),
(219,642,o),
(307,642,cs),
(395,642,o),
(448,584,o),
(448,484,cs),
(448,384,o),
(394,326,o),
(307,326,cs)
);
}
);
width = 617;
}
);
metricRight = "te-canadian";
note = uni1586;
unicode = 5510;
},
{
glyphname = "tlhi-canadian";
lastChange = "2023-01-13 15:28:14 +0000";
layers = (
{
layerId = "F8006AA5-6E21-4BD1-AC52-9C52C7F343AA";
shapes = (
{
closed = 1;
nodes = (
(169,0,l),
(169,364,l),
(162,335,l),
(173,284,o),
(236,240,o),
(322,240,c),
(274,279,l),
(417,0,l),
(522,0,l),
(392,256,l),
(487,280,o),
(549,363,o),
(549,482,cs),
(549,625,o),
(460,727,o),
(308,727,cs),
(160,727,o),
(71,631,o),
(71,474,cs),
(71,0,l)
);
},
{
closed = 1;
nodes = (
(222,326,o),
(168,384,o),
(168,484,cs),
(168,584,o),
(221,642,o),
(310,642,cs),
(398,642,o),
(451,583,o),
(451,483,cs),
(451,384,o),
(397,326,o),
(310,326,cs)
);
}
);
width = 617;
}
);
metricLeft = "te-canadian";
metricRight = "=|tlhe-canadian";
note = uni1587;
unicode = 5511;
},
{
glyphname = "tlho-canadian";
lastChange = "2023-01-13 15:28:14 +0000";
layers = (
{
anchors = (
{
name = top_center_can;
pos = (325,714);
}
);
layerId = "F8006AA5-6E21-4BD1-AC52-9C52C7F343AA";
shapes = (
{
closed = 1;
nodes = (
(457,-13,o),
(546,83,o),
(546,240,cs),
(545.994,714,l),
(447,714,l),
(447,350,l),
(455,379,l),
(443,430,o),
(380,474,o),
(294,474,c),
(342,435,l),
(200,714,l),
(94,714,l),
(225,458,l),
(129,434,o),
(68,351,o),
(68,232,cs),
(68,89,o),
(156,-13,o),
(309,-13,cs)
);
},
{
closed = 1;
nodes = (
(219,72,o),
(165,131,o),
(165,231,cs),
(165,330,o),
(219,388,o),
(307,388,cs),
(394,388,o),
(448,330,o),
(448,230,cs),
(448,130,o),
(395,72,o),
(307,72,cs)
);
}
);
width = 617;
}
);
metricLeft = "tlhe-canadian";
metricRight = "te-canadian";
note = uni1588;
unicode = 5512;
},
{
glyphname = "tlha-canadian";
lastChange = "2023-01-13 15:28:14 +0000";
layers = (
{
layerId = "F8006AA5-6E21-4BD1-AC52-9C52C7F343AA";
shapes = (
{
closed = 1;
nodes = (
(460,-13,o),
(549,89,o),
(549,232,cs),
(549,351,o),
(487,434,o),
(392,458,c),
(522,714,l),
(417,714,l),
(274,435,l),
(354,471,l),
(343,473,o),
(333,474,o),
(322,474,cs),
(236,474,o),
(173,430,o),
(162,379,c),
(169,350,l),
(169,714,l),
(71,714,l),
(71,240,ls),
(71,83,o),
(160,-13,o),
(308,-13,cs)
);
},
{
closed = 1;
nodes = (
(221,72,o),
(168,130,o),
(168,230,cs),
(168,330,o),
(222,388,o),
(310,388,cs),
(397,388,o),
(451,330,o),
(451,231,cs),
(451,131,o),
(398,72,o),
(310,72,cs)
);
}
);
width = 617;
}
);
metricLeft = "te-canadian";
note = uni1589;
unicode = 5513;
},
{
glyphname = "reWestCree-canadian";
lastChange = "2023-01-13 15:28:14 +0000";
layers = (
{
layerId = "F8006AA5-6E21-4BD1-AC52-9C52C7F343AA";
shapes = (
{
closed = 1;
nodes = (
(520,0,l),
(765,202,l),
(711,270,l),
(467,70,l),
(530,66,l),
(530,464,ls),
(530,630,o),
(444,727,o),
(299,727,cs),
(151,727,o),
(61,629,o),
(61,465,cs),
(61,401,l),
(160,401,l),
(160,473,ls),
(160,580,o),
(209,640,o),
(297,640,cs),
(382,640,o),
(431,580,o),
(431,473,cs),
(431,0,l)
);
}
);
width = 791;
}
);
metricLeft = "ce-canadian";
metricRight = "heNunavik-canadian";
note = uni158A;
unicode = 5514;
},
{
glyphname = "riWestCree-canadian";
lastChange = "2023-01-13 15:30:41 +0000";
layers = (
{
layerId = "F8006AA5-6E21-4BD1-AC52-9C52C7F343AA";
shapes = (
{
closed = 1;
nodes = (
(359,0,l),
(359,473,ls),
(359,580,o),
(410,640,o),
(496,640,cs),
(584,640,o),
(631,580,o),
(631,473,cs),
(631,401,l),
(729,401,l),
(729,465,ls),
(729,629,o),
(643,727,o),
(497,727,cs),
(348,727,o),
(261,628,o),
(261,464,cs),
(261,66,l),
(324,70,l),
(80,270,l),
(26,202,l),
(271,0,l)
);
}
);
width = 790;
}
);
metricLeft = "=|heNunavik-canadian";
metricRight = "=|ce-canadian";
note = uni158B;
unicode = 5515;
},
{
glyphname = "roWestCree-canadian";
lastChange = "2023-01-13 15:28:14 +0000";
layers = (
{
layerId = "F8006AA5-6E21-4BD1-AC52-9C52C7F343AA";
shapes = (
{
closed = 1;
nodes = (
(443,-13,o),
(530,82,o),
(530,250,cs),
(530,648,l),
(467,644,l),
(711,444,l),
(765,512,l),
(520,714,l),
(431,714,l),
(431,241,ls),
(431,132,o),
(382,74,o),
(297,74,cs),
(207,74,o),
(160,134,o),
(160,244,cs),
(160,313,l),
(61,313,l),
(61,248,ls),
(61,85,o),
(147,-13,o),
(299,-13,cs)
);
}
);
width = 791;
}
);
metricLeft = "ce-canadian";
metricRight = "heNunavik-canadian";
note = uni158C;
unicode = 5516;
},
{
glyphname = "raWestCree-canadian";
lastChange = "2023-01-13 15:30:41 +0000";
layers = (
{
layerId = "F8006AA5-6E21-4BD1-AC52-9C52C7F343AA";
shapes = (
{
closed = 1;
nodes = (
(643,-13,o),
(729,84,o),
(729,249,cs),
(729,313,l),
(631,313,l),
(631,243,ls),
(631,132,o),
(583,74,o),
(496,74,cs),
(407,74,o),
(359,132,o),
(359,240,cs),
(359,714,l),
(271,714,l),
(26,512,l),
(80,444,l),
(324,644,l),
(261,648,l),
(261,250,ls),
(261,83,o),
(346,-13,o),
(496,-13,cs)
);
}
);
width = 790;
}
);
metricLeft = "=|heNunavik-canadian";
metricRight = "=|ce-canadian";
note = uni158D;
unicode = 5517;
},
{
glyphname = "ng-canadian";
kernLeft = mwestleft;
kernRight = mwestright;
lastChange = "2023-01-13 15:30:41 +0000";
layers = (
{
layerId = "F8006AA5-6E21-4BD1-AC52-9C52C7F343AA";
shapes = (
{
closed = 1;
nodes = (
(564,225,o),
(617,272,o),
(617,356,cs),
(617,378,l),
(550,378,l),
(550,352,ls),
(550,305,o),
(525,281,o),
(485,281,cs),
(445,281,o),
(422,306,o),
(422,357,cs),
(422,515,l),
(259,515,l),
(263,486,l),
(296,499,o),
(317,541,o),
(317,589,cs),
(317,669,o),
(266,721,o),
(187,721,cs),
(109,721,o),
(56,668,o),
(56,586,cs),
(56,504,o),
(108,450,o),
(193,450,cs),
(368,450,l),
(351,469,l),
(351,366,ls),
(351,273,o),
(401,225,o),
(486,225,cs)
);
},
{
closed = 1;
nodes = (
(147,502,o),
(119,533,o),
(119,586,cs),
(119,638,o),
(147,668,o),
(187,668,cs),
(227,668,o),
(254,638,o),
(254,585,cs),
(254,533,o),
(227,502,o),
(187,502,cs)
);
}
);
width = 662;
}
);
metricLeft = "n-canadian";
metricRight = "c-canadian";
note = uni1595;
unicode = 5525;
},
{
glyphname = "nng-canadian";
kernLeft = mwestleft;
kernRight = mwestright;
lastChange = "2023-01-13 15:28:14 +0000";
layers = (
{
layerId = "F8006AA5-6E21-4BD1-AC52-9C52C7F343AA";
shapes = (
{
closed = 1;
nodes = (
(862,225,o),
(915,272,o),
(915,356,cs),
(915,378,l),
(849,378,l),
(849,352,ls),
(849,305,o),
(823,281,o),
(784,281,cs),
(743,281,o),
(720,306,o),
(720,357,cs),
(720,515,l),
(563,515,l),
(567,486,l),
(599,499,o),
(621,541,o),
(621,589,cs),
(621,670,o),
(569,721,o),
(490,721,cs),
(412,721,o),
(360,669,o),
(360,588,cs),
(360,541,o),
(382,499,o),
(413,485,c),
(418,515,l),
(260,515,l),
(263,486,l),
(296,499,o),
(317,541,o),
(317,589,cs),
(317,669,o),
(266,721,o),
(187,721,cs),
(109,721,o),
(56,668,o),
(56,586,cs),
(56,504,o),
(108,450,o),
(193,450,cs),
(650,450,l),
(650,366,ls),
(650,273,o),
(699,225,o),
(784,225,cs)
);
},
{
closed = 1;
nodes = (
(147,502,o),
(119,533,o),
(119,586,cs),
(119,638,o),
(147,668,o),
(187,668,cs),
(227,668,o),
(254,638,o),
(254,585,cs),
(254,533,o),
(227,502,o),
(187,502,cs)
);
},
{
closed = 1;
nodes = (
(450,502,o),
(423,533,o),
(423,586,cs),
(423,638,o),
(450,668,o),
(491,668,cs),
(530,668,o),
(558,638,o),
(558,585,cs),
(558,533,o),
(531,502,o),
(490,502,cs)
);
}
);
width = 960;
}
);
metricLeft = "n-canadian";
metricRight = "c-canadian";
note = uni1596;
unicode = 5526;
},
{
glyphname = "sheSayisi-canadian";
lastChange = "2023-01-13 15:28:14 +0000";
layers = (
{
anchors = (
{
name = middle_right_can;
pos = (705,357);
},
{
name = top_center_can;
pos = (306,714);
}
);
layerId = "F8006AA5-6E21-4BD1-AC52-9C52C7F343AA";
shapes = (
{
closed = 1;
nodes = (
(542,0,l),
(542,460,ls),
(542,627,o),
(455,727,o),
(306,727,cs),
(155,727,o),
(62,623,o),
(62,451,cs),
(62,289,o),
(134,206,o),
(235,206,cs),
(331,206,o),
(387,281,o),
(382,426,c),
(324,426,l),
(326,321,o),
(293,289,o),
(249,289,cs),
(193,289,o),
(158,337,o),
(158,453,cs),
(158,579,o),
(213,642,o),
(303,642,cs),
(393,642,o),
(443,580,o),
(443,461,cs),
(443,0,l)
);
}
);
width = 613;
}
);
metricLeft = "ke-canadian";
metricRight = "te-canadian";
note = uni1597;
unicode = 5527;
},
{
glyphname = "shiSayisi-canadian";
lastChange = "2023-01-13 15:28:14 +0000";
layers = (
{
layerId = "F8006AA5-6E21-4BD1-AC52-9C52C7F343AA";
shapes = (
{
closed = 1;
nodes = (
(170,0,l),
(170,461,ls),
(170,580,o),
(221,642,o),
(311,642,cs),
(401,642,o),
(455,581,o),
(455,455,cs),
(455,339,o),
(420,289,o),
(364,289,cs),
(319,289,o),
(286,321,o),
(288,426,c),
(231,426,l),
(225,281,o),
(281,206,o),
(377,206,cs),
(478,206,o),
(551,291,o),
(551,453,cs),
(551,625,o),
(461,727,o),
(312,727,cs),
(160,727,o),
(71,627,o),
(71,460,cs),
(71,0,l)
);
}
);
width = 613;
}
);
metricLeft = "te-canadian";
metricRight = "=|ke-canadian";
note = uni1598;
unicode = 5528;
},
{
glyphname = "shoSayisi-canadian";
lastChange = "2023-01-13 15:28:14 +0000";
layers = (
{
anchors = (
{
name = top_center_can;
pos = (301,714);
},
{
name = top_left_can;
pos = (110,714);
},
{
name = top_right_can;
pos = (493,714);
}
);
layerId = "F8006AA5-6E21-4BD1-AC52-9C52C7F343AA";
shapes = (
{
closed = 1;
nodes = (
(453,-13,o),
(542,87,o),
(542,254,cs),
(542,714,l),
(443,714,l),
(443,253,ls),
(443,134,o),
(391,72,o),
(301,72,cs),
(211,72,o),
(158,133,o),
(158,259,cs),
(158,375,o),
(193,425,o),
(249,425,cs),
(293,425,o),
(326,393,o),
(324,288,c),
(382,288,l),
(387,433,o),
(332,508,o),
(235,508,cs),
(134,508,o),
(62,423,o),
(62,258,cs),
(62,88,o),
(151,-13,o),
(300,-13,cs)
);
}
);
width = 613;
}
);
metricLeft = "ke-canadian";
metricRight = "te-canadian";
note = uni1599;
unicode = 5529;
},
{
glyphname = "shaSayisi-canadian";
lastChange = "2023-01-13 15:28:14 +0000";
layers = (
{
layerId = "F8006AA5-6E21-4BD1-AC52-9C52C7F343AA";
shapes = (
{
closed = 1;
nodes = (
(457,-13,o),
(551,91,o),
(551,263,cs),
(551,425,o),
(480,508,o),
(379,508,cs),
(283,508,o),
(225,433,o),
(231,288,c),
(288,288,l),
(286,393,o),
(319,425,o),
(364,425,cs),
(420,425,o),
(455,377,o),
(455,261,cs),
(455,135,o),
(399,72,o),
(310,72,cs),
(219,72,o),
(170,134,o),
(170,253,cs),
(170,714,l),
(71,714,l),
(71,254,ls),
(71,87,o),
(157,-13,o),
(306,-13,cs)
);
}
);
width = 613;
}
);
metricLeft = "te-canadian";
metricRight = "=|ke-canadian";
note = uni159A;
unicode = 5530;
},
{
glyphname = "theWoodScree-canadian";
lastChange = "2023-01-13 15:28:14 +0000";
layers = (
{
layerId = "F8006AA5-6E21-4BD1-AC52-9C52C7F343AA";
shapes = (
{
closed = 1;
nodes = (
(684,-13,o),
(781,85,o),
(781,242,cs),
(781,401,o),
(686,496,o),
(526,496,cs),
(68,496,l),
(68,414,l),
(405,414,l),
(392,430,l),
(328,396,o),
(296,320,o),
(296,237,cs),
(296,82,o),
(391,-13,o),
(538,-13,cs)
);
},
{
closed = 1;
nodes = (
(446,72,o),
(394,137,o),
(394,242,cs),
(394,344,o),
(446,411,o),
(537,411,cs),
(630,411,o),
(684,346,o),
(684,242,cs),
(684,137,o),
(631,72,o),
(538,72,cs)
);
},
{
closed = 1;
nodes = (
(769,632,l),
(769,714,l),
(68,714,l),
(68,632,l)
);
}
);
width = 849;
}
);
note = uni159B;
unicode = 5531;
},
{
glyphname = "thiWoodScree-canadian";
kernRight = niright;
lastChange = "2023-01-13 15:28:14 +0000";
layers = (
{
layerId = "F8006AA5-6E21-4BD1-AC52-9C52C7F343AA";
shapes = (
{
closed = 1;
nodes = (
(458,-13,o),
(553,82,o),
(553,238,cs),
(553,321,o),
(520,397,o),
(456,431,c),
(444,414,l),
(781,414,l),
(781,496,l),
(324,496,ls),
(161,496,o),
(68,395,o),
(68,240,cs),
(68,85,o),
(164,-13,o),
(311,-13,cs)
);
},
{
closed = 1;
nodes = (
(218,72,o),
(165,137,o),
(165,242,cs),
(165,346,o),
(219,411,o),
(312,411,cs),
(403,411,o),
(455,344,o),
(455,242,cs),
(455,137,o),
(403,72,o),
(311,72,cs)
);
},
{
closed = 1;
nodes = (
(781,632,l),
(781,714,l),
(80,714,l),
(80,632,l)
);
}
);
width = 849;
}
);
metricLeft = "theWoodScree-canadian";
metricRight = "theWoodScree-canadian";
note = uni159C;
unicode = 5532;
},
{
glyphname = "thoWoodScree-canadian";
lastChange = "2023-01-13 15:28:14 +0000";
layers = (
{
layerId = "F8006AA5-6E21-4BD1-AC52-9C52C7F343AA";
shapes = (
{
closed = 1;
nodes = (
(530.002,0,ls),
(687,0,o),
(781,97,o),
(781,254,cs),
(781,411,o),
(685,509,o),
(538,509,cs),
(391,509,o),
(296,412,o),
(296,258,cs),
(296,176,o),
(328,100,o),
(392,66,c),
(405,82,l),
(68,82,l),
(68,0,l)
);
},
{
closed = 1;
nodes = (
(446,85,o),
(394,152,o),
(394,254,cs),
(394,359,o),
(446,424,o),
(538,424,cs),
(631,424,o),
(684,359,o),
(684,254,cs),
(684,150,o),
(630,85,o),
(537,85,cs)
);
},
{
closed = 1;
nodes = (
(769,632,l),
(769,714,l),
(68,714,l),
(68,632,l)
);
}
);
width = 849;
}
);
metricLeft = "theWoodScree-canadian";
metricRight = "theWoodScree-canadian";
note = uni159D;
unicode = 5533;
},
{
glyphname = "thaWoodScree-canadian";
lastChange = "2023-01-13 15:28:14 +0000";
layers = (
{
layerId = "F8006AA5-6E21-4BD1-AC52-9C52C7F343AA";
shapes = (
{
closed = 1;
nodes = (
(781,0,l),
(781,82,l),
(444,82,l),
(456,64,l),
(520,99,o),
(553,175,o),
(553,258,cs),
(553,413,o),
(458,509,o),
(311,509,cs),
(164,509,o),
(68,411,o),
(68,253,cs),
(68,99,o),
(161,0,o),
(320,0,cs)
);
},
{
closed = 1;
nodes = (
(219,85,o),
(165,150,o),
(165,254,cs),
(165,359,o),
(218,424,o),
(311,424,cs),
(403,424,o),
(455,359,o),
(455,254,cs),
(455,152,o),
(403,85,o),
(312,85,cs)
);
},
{
closed = 1;
nodes = (
(781,632,l),
(781,714,l),
(80,714,l),
(80,632,l)
);
}
);
width = 849;
}
);
metricLeft = "theWoodScree-canadian";
metricRight = "theWoodScree-canadian";
note = uni159E;
unicode = 5534;
},
{
glyphname = "thWoodScree-canadian";
lastChange = "2023-01-13 15:28:14 +0000";
layers = (
{
layerId = "F8006AA5-6E21-4BD1-AC52-9C52C7F343AA";
shapes = (
{
closed = 1;
nodes = (
(456,357,l),
(456,418,l),
(268,418,l),
(271,392,l),
(304,404,o),
(327,447,o),
(327,496,cs),
(327,576,o),
(276,628,o),
(197,628,cs),
(119,628,o),
(66,575,o),
(66,493,cs),
(66,411,o),
(118,357,o),
(203,357,cs)
);
},
{
closed = 1;
nodes = (
(157,409,o),
(129,440,o),
(129,493,cs),
(129,545,o),
(157,575,o),
(197,575,cs),
(237,575,o),
(264,545,o),
(264,492,cs),
(264,440,o),
(237,409,o),
(197,409,cs)
);
},
{
closed = 1;
nodes = (
(454,686,l),
(454,747,l),
(71,747,l),
(71,686,l)
);
}
);
width = 522;
}
);
metricRight = "=|";
note = uni159F;
unicode = 5535;
},
{
glyphname = "lhi-canadian";
kernRight = niright;
lastChange = "2023-01-13 15:28:14 +0000";
layers = (
{
anchors = (
{
name = top_center_can;
pos = (474,714);
},
{
name = top_right_can;
pos = (574,714);
}
);
layerId = "F8006AA5-6E21-4BD1-AC52-9C52C7F343AA";
shapes = (
{
closed = 1;
nodes = (
(376,0,l),
(376,88,l),
(326,88,ls),
(218,88,o),
(161,146,o),
(161,246,cs),
(161,343,o),
(213,406,o),
(325,406,cs),
(776,406,l),
(776,486,l),
(591,754,l),
(518,704,l),
(703,436,l),
(699,496,l),
(323,496,ls),
(156,496,o),
(62,398,o),
(62,246,cs),
(62,94,o),
(161,0,o),
(321,0,cs)
);
}
);
width = 833;
}
);
metricLeft = "ke-canadian";
metricRight = "=|ne-canadian";
note = uni15A0;
unicode = 5536;
},
{
glyphname = "lho-canadian";
kernLeft = noleft;
lastChange = "2023-01-13 15:28:14 +0000";
layers = (
{
anchors = (
{
name = top_center_can;
pos = (408,514);
},
{
name = top_right_can;
pos = (523,514);
}
);
layerId = "F8006AA5-6E21-4BD1-AC52-9C52C7F343AA";
shapes = (
{
closed = 1;
nodes = (
(315,-208,l),
(130,60,l),
(134,0,l),
(508,0,ls),
(675,0,o),
(771,94,o),
(771,249,cs),
(771,403,o),
(672,496,o),
(513,496,cs),
(457,496,l),
(457,408,l),
(507,408,ls),
(615,408,o),
(673,350,o),
(673,250,cs),
(673,149,o),
(615,89,o),
(508,89,cs),
(57,89,l),
(57,10,l),
(242,-258,l)
);
}
);
width = 833;
}
);
metricLeft = "ne-canadian";
metricRight = "=|ke-canadian";
note = uni15A2;
unicode = 5538;
},
{
glyphname = "lha-canadian";
kernRight = naright;
lastChange = "2023-01-13 15:28:14 +0000";
layers = (
{
anchors = (
{
name = top_center_can;
pos = (427,514);
},
{
name = top_left_can;
pos = (312,514);
}
);
layerId = "F8006AA5-6E21-4BD1-AC52-9C52C7F343AA";
shapes = (
{
closed = 1;
nodes = (
(776,10,l),
(776,90,l),
(327,90,ls),
(218,90,o),
(161,148,o),
(161,250,cs),
(161,350,o),
(217,408,o),
(323,408,cs),
(376,408,l),
(376,496,l),
(322,496,ls),
(158,496,o),
(62,401,o),
(62,248,cs),
(62,92,o),
(159.995,0,o),
(324.992,0,cs),
(699,0,l),
(703,60,l),
(518,-208,l),
(591,-258,l)
);
}
);
width = 833;
}
);
metricLeft = "ke-canadian";
metricRight = "=|ne-canadian";
note = uni15A4;
unicode = 5540;
},
{
glyphname = "lh-canadian";
kernLeft = mwestleft;
kernRight = mwestright;
lastChange = "2023-01-13 15:28:14 +0000";
layers = (
{
layerId = "F8006AA5-6E21-4BD1-AC52-9C52C7F343AA";
shapes = (
{
closed = 1;
nodes = (
(456,364,l),
(456,423,l),
(248,423,ls),
(170,423,o),
(133,463,o),
(133,536,cs),
(133,609,o),
(170,650,o),
(245,650,cs),
(261,650,l),
(261,714,l),
(241,714,ls),
(126,714,o),
(62,644,o),
(62,536,cs),
(62,426,o),
(126,357,o),
(244,357,cs),
(412,357,l),
(407,398,l),
(305,249,l),
(354,215,l)
);
}
);
width = 518;
}
);
metricLeft = "t-canadian";
metricRight = "=|";
note = uni15A6;
unicode = 5542;
},
{
glyphname = "theThCree-canadian";
lastChange = "2023-01-13 15:28:14 +0000";
layers = (
{
anchors = (
{
name = top_left_can;
pos = (92,714);
},
{
name = top_right_can;
pos = (463,714);
}
);
layerId = "F8006AA5-6E21-4BD1-AC52-9C52C7F343AA";
shapes = (
{
closed = 1;
nodes = (
(512,0,l),
(512,106,l),
(594,106,l),
(594,164,l),
(512,164,l),
(512,337,l),
(170,337,l),
(167,286,l),
(528,666,l),
(461,726,l),
(43,280,l),
(43,249,l),
(413,249,l),
(413,164,l),
(167,164,l),
(167,106,l),
(413,106,l),
(413,0,l)
);
}
);
width = 628;
}
);
metricLeft = "ye-canadian";
note = uni15A7;
unicode = 5543;
},
{
glyphname = "thiThCree-canadian";
kernRight = yiright;
lastChange = "2023-01-13 15:28:14 +0000";
layers = (
{
anchors = (
{
name = top_left_can;
pos = (166,714);
},
{
name = top_right_can;
pos = (536,714);
}
);
layerId = "F8006AA5-6E21-4BD1-AC52-9C52C7F343AA";
shapes = (
{
closed = 1;
nodes = (
(216,0,l),
(216,106,l),
(461,106,l),
(461,164,l),
(216,164,l),
(216,249,l),
(585,249,l),
(585,280,l),
(167,726,l),
(102,667,l),
(464,284,l),
(460,337,l),
(116,337,l),
(116,164,l),
(34,164,l),
(34,106,l),
(116,106,l),
(116,0,l)
);
}
);
width = 628;
}
);
metricLeft = "=|theThCree-canadian";
metricRight = "=|ye-canadian";
note = uni15A8;
unicode = 5544;
},
{
glyphname = "thoThCree-canadian";
kernLeft = yoleft;
lastChange = "2023-01-13 15:28:14 +0000";
layers = (
{
anchors = (
{
name = top_left_can;
pos = (92,714);
},
{
name = top_right_can;
pos = (463,714);
}
);
layerId = "F8006AA5-6E21-4BD1-AC52-9C52C7F343AA";
shapes = (
{
closed = 1;
nodes = (
(527,47,l),
(166,427,l),
(169,377,l),
(512,377,l),
(512,550,l),
(594,550,l),
(594,608,l),
(512,608,l),
(512,714,l),
(413,714,l),
(413,608,l),
(167,608,l),
(167,550,l),
(413,550,l),
(413,465,l),
(43,465,l),
(43,434,l),
(461,-12,l)
);
}
);
width = 628;
}
);
metricLeft = "ye-canadian";
metricRight = "theThCree-canadian";
note = uni15AA;
unicode = 5546;
},
{
glyphname = "thaThCree-canadian";
kernRight = yaright;
lastChange = "2023-01-13 15:28:14 +0000";
layers = (
{
anchors = (
{
name = top_left_can;
pos = (166,714);
},
{
name = top_right_can;
pos = (536,714);
}
);
layerId = "F8006AA5-6E21-4BD1-AC52-9C52C7F343AA";
shapes = (
{
closed = 1;
nodes = (
(585,434,l),
(585,465,l),
(216,465,l),
(216,550,l),
(461,550,l),
(461,608,l),
(216,608,l),
(216,714,l),
(116,714,l),
(116,608,l),
(34,608,l),
(34,550,l),
(116,550,l),
(116,377,l),
(460,377,l),
(462,427,l),
(102,47,l),
(167,-12,l)
);
}
);
width = 628;
}
);
metricLeft = "=|theThCree-canadian";
metricRight = "=|ye-canadian";
note = uni15AC;
unicode = 5548;
},
{
glyphname = "thThCree-canadian";
kernLeft = mwestleft;
kernRight = mwestright;
lastChange = "2023-01-13 15:30:41 +0000";
layers = (
{
layerId = "F8006AA5-6E21-4BD1-AC52-9C52C7F343AA";
shapes = (
{
closed = 1;
nodes = (
(344,569,l),
(344,589,l),
(166,589,l),
(166,635,l),
(282,635,l),
(282,668,l),
(166,668,l),
(166,714,l),
(95,714,l),
(95,668,l),
(54,668,l),
(54,635,l),
(95,635,l),
(95,532,l),
(276,532,l),
(267,573,l),
(94,387,l),
(142,348,l)
);
}
);
width = 382;
}
);
metricRight = "y-canadian";
note = uni15AE;
unicode = 5550;
},
{
glyphname = "bAivilik-canadian";
lastChange = "2023-01-13 15:28:14 +0000";
layers = (
{
layerId = "F8006AA5-6E21-4BD1-AC52-9C52C7F343AA";
shapes = (
{
closed = 1;
nodes = (
(463,-13,o),
(554,90,o),
(554,249,cs),
(554,404,o),
(465,509,o),
(332,509,cs),
(247,509,o),
(185,463,o),
(170,403,c),
(178,384,l),
(178,714,l),
(78,714,l),
(78,0,l),
(174,0,l),
(174,111,l),
(168,95,l),
(185,34,o),
(247,-13,o),
(333,-13,cs)
);
},
{
closed = 1;
nodes = (
(230,72,o),
(177,135,o),
(177,248,cs),
(177,360,o),
(231,424,o),
(317,424,cs),
(401,424,o),
(456,361,o),
(456,248,cs),
(456,135,o),
(402,72,o),
(317,72,cs)
);
}
);
width = 616;
}
);
metricLeft = "nunavuth-canadian";
metricRight = "=|ke-canadian";
note = uni15AF;
unicode = 5551;
},
{
glyphname = "eBlackfoot-canadian";
lastChange = "2023-01-13 15:28:14 +0000";
layers = (
{
layerId = "F8006AA5-6E21-4BD1-AC52-9C52C7F343AA";
shapes = (
{
closed = 1;
nodes = (
(178,0,l),
(178,419,l),
(208,383,o),
(254,361,o),
(307,361,cs),
(409,361,o),
(480,439,o),
(480,545,cs),
(480,650,o),
(409,727,o),
(307,727,cs),
(251,727,o),
(204,704,o),
(174,665,c),
(174,714,l),
(78,714,l),
(78,0,l)
);
}
);
width = 524;
}
);
metricLeft = "nunavuth-canadian";
note = uni15B0;
unicode = 5552;
},
{
glyphname = "iBlackfoot-canadian";
lastChange = "2023-01-13 15:30:41 +0000";
layers = (
{
layerId = "F8006AA5-6E21-4BD1-AC52-9C52C7F343AA";
shapes = (
{
closed = 1;
nodes = (
(272,-13,o),
(320,10,o),
(349,49,c),
(349,0,l),
(445,0,l),
(445,714,l),
(345,714,l),
(345,295,l),
(315,331,o),
(270,353,o),
(216,353,cs),
(114,353,o),
(44,275,o),
(44,169,cs),
(44,64,o),
(114,-13,o),
(216,-13,cs)
);
}
);
width = 523;
}
);
metricLeft = "=|eBlackfoot-canadian";
metricRight = "nunavuth-canadian";
note = uni15B1;
unicode = 5553;
},
{
glyphname = "oBlackfoot-canadian";
lastChange = "2023-01-13 15:28:14 +0000";
layers = (
{
layerId = "F8006AA5-6E21-4BD1-AC52-9C52C7F343AA";
shapes = (
{
closed = 1;
nodes = (
(409,-13,o),
(480,64,o),
(480,169,cs),
(480,275,o),
(409,353,o),
(307,353,cs),
(254,353,o),
(208,331,o),
(178,295,c),
(178,714,l),
(78,714,l),
(78,0,l),
(174,0,l),
(174,49,l),
(204,10,o),
(251,-13,o),
(307,-13,cs)
);
}
);
width = 524;
}
);
metricLeft = "nunavuth-canadian";
metricRight = "eBlackfoot-canadian";
note = uni15B2;
unicode = 5554;
},
{
glyphname = "aBlackfoot-canadian";
lastChange = "2023-01-13 15:30:41 +0000";
layers = (
{
layerId = "F8006AA5-6E21-4BD1-AC52-9C52C7F343AA";
shapes = (
{
closed = 1;
nodes = (
(445,0,l),
(445,714,l),
(349,714,l),
(349,665,l),
(320,704,o),
(272,727,o),
(216,727,cs),
(114,727,o),
(44,650,o),
(44,545,cs),
(44,439,o),
(114,361,o),
(216,361,cs),
(270,361,o),
(315,383,o),
(345,419,c),
(345,0,l)
);
}
);
width = 523;
}
);
metricLeft = "=|eBlackfoot-canadian";
metricRight = "nunavuth-canadian";
note = uni15B3;
unicode = 5555;
},
{
glyphname = "weBlackfoot-canadian";
lastChange = "2023-01-13 15:28:14 +0000";
layers = (
{
layerId = "F8006AA5-6E21-4BD1-AC52-9C52C7F343AA";
shapes = (
{
closed = 1;
nodes = (
(178,314,l),
(537,314,l),
(537,398,l),
(178,398,l),
(178,630,l),
(537,630,l),
(537,714,l),
(78,714,l),
(78,0,l),
(178,0,l)
);
}
);
width = 597;
}
);
metricLeft = "nunavuth-canadian";
note = uni15B4;
unicode = 5556;
},
{
glyphname = "wiBlackfoot-canadian";
lastChange = "2023-01-13 15:30:41 +0000";
layers = (
{
layerId = "F8006AA5-6E21-4BD1-AC52-9C52C7F343AA";
shapes = (
{
closed = 1;
nodes = (
(518,0,l),
(518,714,l),
(419,714,l),
(419,400,l),
(60,400,l),
(60,316,l),
(419,316,l),
(419,84,l),
(60,84,l),
(60,0,l)
);
}
);
width = 596;
}
);
metricLeft = "=|weBlackfoot-canadian";
metricRight = "nunavuth-canadian";
note = uni15B5;
unicode = 5557;
},
{
glyphname = "woBlackfoot-canadian";
lastChange = "2023-01-13 15:28:14 +0000";
layers = (
{
layerId = "F8006AA5-6E21-4BD1-AC52-9C52C7F343AA";
shapes = (
{
closed = 1;
nodes = (
(537,0,l),
(537,84,l),
(178,84,l),
(178,316,l),
(537,316,l),
(537,400,l),
(178,400,l),
(178,714,l),
(78,714,l),
(78,0,l)
);
}
);
width = 597;
}
);
metricLeft = "nunavuth-canadian";
metricRight = "weBlackfoot-canadian";
note = uni15B6;
unicode = 5558;
},
{
glyphname = "waBlackfoot-canadian";
lastChange = "2023-01-13 15:30:41 +0000";
layers = (
{
layerId = "F8006AA5-6E21-4BD1-AC52-9C52C7F343AA";
shapes = (
{
closed = 1;
nodes = (
(518,0,l),
(518,714,l),
(60,714,l),
(60,630,l),
(419,630,l),
(419,398,l),
(60,398,l),
(60,314,l),
(419,314,l),
(419,0,l)
);
}
);
width = 596;
}
);
metricLeft = "=|weBlackfoot-canadian";
metricRight = "nunavuth-canadian";
note = uni15B7;
unicode = 5559;
},
{
glyphname = "neBlackfoot-canadian";
lastChange = "2023-01-13 15:28:14 +0000";
layers = (
{
layerId = "F8006AA5-6E21-4BD1-AC52-9C52C7F343AA";
shapes = (
{
closed = 1;
nodes = (
(178,0,l),
(178,639,l),
(227,639,l),
(197,701,l),
(197,678,ls),
(197,514,o),
(285,413,o),
(433,413,cs),
(577,413,o),
(671,513,o),
(671,673,cs),
(671,714,l),
(573,714,l),
(573,668,ls),
(573,562,o),
(521,499,o),
(434,499,cs),
(346,499,o),
(295,561,o),
(295,668,cs),
(295,714,l),
(78,714,l),
(78,0,l)
);
}
);
width = 711;
}
);
metricLeft = "nunavuth-canadian";
note = uni15B8;
unicode = 5560;
},
{
glyphname = "niBlackfoot-canadian";
lastChange = "2023-01-13 15:28:14 +0000";
layers = (
{
layerId = "F8006AA5-6E21-4BD1-AC52-9C52C7F343AA";
shapes = (
{
closed = 1;
nodes = (
(138,0,l),
(138,46,ls),
(138,152,o),
(190,215,o),
(277,215,cs),
(365,215,o),
(417,153,o),
(417,46,cs),
(417,0,l),
(633,0,l),
(633,714,l),
(533,714,l),
(533,75,l),
(484,75,l),
(514,13,l),
(514,36,ls),
(514,200,o),
(426,301,o),
(279,301,cs),
(135,301,o),
(40,201,o),
(40,41,cs),
(40,0,l)
);
}
);
width = 711;
}
);
metricLeft = "=|neBlackfoot-canadian";
metricRight = "nunavuth-canadian";
note = uni15B9;
unicode = 5561;
},
{
glyphname = "noBlackfoot-canadian";
lastChange = "2023-01-13 15:28:14 +0000";
layers = (
{
layerId = "F8006AA5-6E21-4BD1-AC52-9C52C7F343AA";
shapes = (
{
closed = 1;
nodes = (
(295,0,l),
(295,46,ls),
(295,153,o),
(346,215,o),
(434,215,cs),
(521,215,o),
(573,152,o),
(573,46,cs),
(573,0,l),
(671,0,l),
(671,41,ls),
(671,201,o),
(577,301,o),
(433,301,cs),
(285,301,o),
(197,200,o),
(197,36,cs),
(197,13,l),
(227,75,l),
(178,75,l),
(178,714,l),
(78,714,l),
(78,0,l)
);
}
);
width = 711;
}
);
metricLeft = "nunavuth-canadian";
metricRight = "neBlackfoot-canadian";
note = uni15BA;
unicode = 5562;
},
{
glyphname = "naBlackfoot-canadian";
lastChange = "2023-01-13 15:28:14 +0000";
layers = (
{
layerId = "F8006AA5-6E21-4BD1-AC52-9C52C7F343AA";
shapes = (
{
closed = 1;
nodes = (
(633,0,l),
(633,714,l),
(417,714,l),
(417,668,ls),
(417,561,o),
(365,499,o),
(277,499,cs),
(190,499,o),
(138,562,o),
(138,668,cs),
(138,714,l),
(40,714,l),
(40,673,ls),
(40,513,o),
(135,413,o),
(279,413,cs),
(426,413,o),
(514,514,o),
(514,678,cs),
(514,701,l),
(484,639,l),
(533,639,l),
(533,0,l)
);
}
);
width = 711;
}
);
metricLeft = "=|neBlackfoot-canadian";
metricRight = "nunavuth-canadian";
note = uni15BB;
unicode = 5563;
},
{
glyphname = "keBlackfoot-canadian";
lastChange = "2023-01-13 15:28:14 +0000";
layers = (
{
layerId = "F8006AA5-6E21-4BD1-AC52-9C52C7F343AA";
shapes = (
{
closed = 1;
nodes = (
(178,0,l),
(178,603,l),
(139,603,l),
(324,264,l),
(367,264,l),
(612,714,l),
(509,714,l),
(318,362,l),
(361,362,l),
(171,714,l),
(78,714,l),
(78,0,l)
);
}
);
width = 635;
}
);
metricLeft = "nunavuth-canadian";
note = uni15BC;
unicode = 5564;
},
{
glyphname = "kiBlackfoot-canadian";
lastChange = "2023-01-13 15:28:14 +0000";
layers = (
{
layerId = "F8006AA5-6E21-4BD1-AC52-9C52C7F343AA";
shapes = (
{
closed = 1;
nodes = (
(127,0,l),
(317,352,l),
(274,352,l),
(465,0,l),
(557,0,l),
(557,714,l),
(457,714,l),
(457,111,l),
(496,111,l),
(312,450,l),
(269,450,l),
(23,0,l)
);
}
);
width = 635;
}
);
metricLeft = "=|keBlackfoot-canadian";
metricRight = "nunavuth-canadian";
note = uni15BD;
unicode = 5565;
},
{
glyphname = "koBlackfoot-canadian";
lastChange = "2023-01-13 15:28:14 +0000";
layers = (
{
layerId = "F8006AA5-6E21-4BD1-AC52-9C52C7F343AA";
shapes = (
{
closed = 1;
nodes = (
(171,0,l),
(361,352,l),
(318,352,l),
(509,0,l),
(612,0,l),
(367,450,l),
(324,450,l),
(139,111,l),
(178,111,l),
(178,714,l),
(78,714,l),
(78,0,l)
);
}
);
width = 635;
}
);
metricLeft = "nunavuth-canadian";
metricRight = "keBlackfoot-canadian";
note = uni15BE;
unicode = 5566;
},
{
glyphname = "kaBlackfoot-canadian";
lastChange = "2023-01-13 15:28:14 +0000";
layers = (
{
layerId = "F8006AA5-6E21-4BD1-AC52-9C52C7F343AA";
shapes = (
{
closed = 1;
nodes = (
(557,0,l),
(557,714,l),
(465,714,l),
(274,362,l),
(317,362,l),
(127,714,l),
(23,714,l),
(269,264,l),
(312,264,l),
(496,603,l),
(457,603,l),
(457,0,l)
);
}
);
width = 635;
}
);
metricLeft = "=|keBlackfoot-canadian";
metricRight = "nunavuth-canadian";
note = uni15BF;
unicode = 5567;
},
{
color = 9;
glyphname = "heSayisi-canadian";
lastChange = "2023-01-13 15:28:14 +0000";
layers = (
{
anchors = (
{
name = top_right_can;
pos = (567,714);
}
);
layerId = "F8006AA5-6E21-4BD1-AC52-9C52C7F343AA";
shapes = (
{
closed = 1;
nodes = (
(616,0,l),
(616,714,l),
(517,714,l),
(517,296,l),
(535,296,l),
(526,549,o),
(431,727,o),
(267,727,cs),
(132,727,o),
(57,633,o),
(57,465,cs),
(57,430,o),
(61,389,o),
(70,348,c),
(165,348,l),
(157,387,o),
(154,426,o),
(154,457,cs),
(154,582,o),
(202,640,o),
(287,640,cs),
(426,640,o),
(514,456,o),
(517,0,c)
);
}
);
width = 694;
}
);
metricRight = "nunavuth-canadian";
note = uni15C0;
unicode = 5568;
},
{
color = 9;
glyphname = "hiSayisi-canadian";
lastChange = "2023-01-13 15:28:14 +0000";
layers = (
{
layerId = "F8006AA5-6E21-4BD1-AC52-9C52C7F343AA";
shapes = (
{
closed = 1;
nodes = (
(178,0,l),
(180,456,o),
(268,640,o),
(408,640,cs),
(492,640,o),
(541,582,o),
(541,457,cs),
(541,426,o),
(537,387,o),
(530,348,c),
(625,348,l),
(634,389,o),
(637,430,o),
(637,465,cs),
(637,633,o),
(562,727,o),
(427,727,cs),
(264,727,o),
(168,549,o),
(159,296,c),
(177,296,l),
(177,714,l),
(78,714,l),
(78,0,l)
);
}
);
width = 694;
}
);
metricLeft = "nunavuth-canadian";
metricRight = "=|heSayisi-canadian";
note = uni15C1;
unicode = 5569;
},
{
color = 9;
glyphname = "hoSayisi-canadian";
lastChange = "2023-01-13 15:28:14 +0000";
layers = (
{
anchors = (
{
name = top_center_can;
pos = (342,714);
},
{
name = top_left_can;
pos = (117,714);
},
{
name = top_right_can;
pos = (567,714);
}
);
layerId = "F8006AA5-6E21-4BD1-AC52-9C52C7F343AA";
shapes = (
{
closed = 1;
nodes = (
(431,-13,o),
(526,165,o),
(535,418,c),
(517,418,l),
(517,0,l),
(616,0,l),
(616,714,l),
(517,714,l),
(514,258,o),
(426,74,o),
(287,74,cs),
(202,74,o),
(154,132,o),
(154,257,cs),
(154,288,o),
(157,327,o),
(165,366,c),
(70,366,l),
(61,325,o),
(57,284,o),
(57,249,cs),
(57,81,o),
(132,-13,o),
(267,-13,cs)
);
}
);
width = 694;
}
);
metricLeft = "heSayisi-canadian";
metricRight = "nunavuth-canadian";
note = uni15C2;
unicode = 5570;
},
{
color = 9;
glyphname = "haSayisi-canadian";
lastChange = "2023-01-13 15:28:14 +0000";
layers = (
{
layerId = "F8006AA5-6E21-4BD1-AC52-9C52C7F343AA";
shapes = (
{
closed = 1;
nodes = (
(562,-13,o),
(637,81,o),
(637,249,cs),
(637,284,o),
(634,325,o),
(625,366,c),
(530,366,l),
(537,327,o),
(541,288,o),
(541,257,cs),
(541,132,o),
(492,74,o),
(408,74,cs),
(268,74,o),
(180,258,o),
(178,714,c),
(78,714,l),
(78,0,l),
(177,0,l),
(177,418,l),
(159,418,l),
(168,165,o),
(264,-13,o),
(427,-13,cs)
);
}
);
width = 694;
}
);
metricLeft = "nunavuth-canadian";
metricRight = "=|heSayisi-canadian";
note = uni15C3;
unicode = 5571;
},
{
color = 9;
glyphname = "ghuCarrier-canadian";
lastChange = "2023-01-13 15:30:41 +0000";
layers = (
{
layerId = "F8006AA5-6E21-4BD1-AC52-9C52C7F343AA";
shapes = (
{
closed = 1;
nodes = (
(389,0,l),
(708,687,l),
(708,714,l),
(625,714,l),
(521,486,l),
(573,502,l),
(171,502,l),
(225,484,l),
(121,714,l),
(33,714,l),
(33,687,l),
(352,0,l)
);
},
{
closed = 1;
nodes = (
(543,426,l),
(505,441,l),
(353,106,l),
(392,106,l),
(241,442,l),
(204,426,l)
);
}
);
width = 741;
}
);
metricLeft = "e-canadian";
metricRight = "e-canadian";
note = uni15C4;
unicode = 5572;
},
{
color = 9;
glyphname = "ghoCarrier-canadian";
lastChange = "2023-01-13 15:30:41 +0000";
layers = (
{
layerId = "F8006AA5-6E21-4BD1-AC52-9C52C7F343AA";
shapes = (
{
closed = 1;
nodes = (
(121,0,l),
(225,230,l),
(171,212,l),
(573,212,l),
(521,228,l),
(625,0,l),
(708,0,l),
(708,27,l),
(389,714,l),
(352,714,l),
(33,27,l),
(33,0,l)
);
},
{
closed = 1;
nodes = (
(392,608,l),
(353,608,l),
(505,273,l),
(543,288,l),
(204,288,l),
(241,272,l)
);
}
);
width = 741;
}
);
metricLeft = "e-canadian";
metricRight = "e-canadian";
note = uni15C5;
unicode = 5573;
},
{
color = 9;
glyphname = "gheCarrier-canadian";
lastChange = "2023-01-13 15:28:14 +0000";
layers = (
{
anchors = (
{
name = middle_center_can;
pos = (79,357);
}
);
layerId = "F8006AA5-6E21-4BD1-AC52-9C52C7F343AA";
shapes = (
{
closed = 1;
nodes = (
(81,0,l),
(637,339,l),
(637,375,l),
(81,714,l),
(55,714,l),
(55,633,l),
(217,533,l),
(209,567,l),
(209,136,l),
(217,182,l),
(55,82,l),
(55,0,l)
);
},
{
closed = 1;
nodes = (
(284,546,l),
(267,512,l),
(553,335,l),
(554,380,l),
(267,204,l),
(284,170,l)
);
}
);
width = 672;
}
);
metricLeft = "po-canadian";
metricRight = "o-canadian";
note = uni15C6;
unicode = 5574;
},
{
color = 9;
glyphname = "ghaCarrier-canadian";
lastChange = "2023-01-13 15:28:14 +0000";
layers = (
{
layerId = "F8006AA5-6E21-4BD1-AC52-9C52C7F343AA";
shapes = (
{
closed = 1;
nodes = (
(617,0,l),
(617,81,l),
(462,178,l),
(470,138,l),
(470,576,l),
(462,536,l),
(617,632,l),
(617,714,l),
(591,714,l),
(35,375,l),
(35,339,l),
(591,0,l)
);
},
{
closed = 1;
nodes = (
(412,200,l),
(120,380,l),
(120,334,l),
(412,514,l),
(395,543,l),
(395,173,l)
);
}
);
width = 672;
}
);
metricLeft = "=|o-canadian";
metricRight = "=|po-canadian";
note = uni15C9;
unicode = 5577;
},
{
color = 9;
glyphname = "ruCarrier-canadian";
lastChange = "2023-01-13 15:30:41 +0000";
layers = (
{
layerId = "F8006AA5-6E21-4BD1-AC52-9C52C7F343AA";
shapes = (
{
closed = 1;
nodes = (
(389,0,l),
(708,687,l),
(708,714,l),
(625,714,l),
(584,624,l),
(605,636,l),
(137,636,l),
(162,623,l),
(121,714,l),
(33,714,l),
(33,687,l),
(352,0,l)
);
},
{
closed = 1;
nodes = (
(582,558,l),
(567,580,l),
(353,108,l),
(393,108,l),
(181,578,l),
(160,558,l)
);
}
);
width = 741;
}
);
metricLeft = "e-canadian";
metricRight = "e-canadian";
note = uni15CA;
unicode = 5578;
},
{
color = 9;
glyphname = "roCarrier-canadian";
lastChange = "2023-01-13 15:30:41 +0000";
layers = (
{
layerId = "F8006AA5-6E21-4BD1-AC52-9C52C7F343AA";
shapes = (
{
closed = 1;
nodes = (
(120,0,l),
(161,90,l),
(138,78,l),
(605,78,l),
(582,91,l),
(624,0,l),
(708,0,l),
(708,27,l),
(389,714,l),
(352,714,l),
(33,27,l),
(33,0,l)
);
},
{
closed = 1;
nodes = (
(390,609,l),
(351,609,l),
(564,136,l),
(582,156,l),
(161,156,l),
(177,134,l)
);
}
);
width = 741;
}
);
metricLeft = "e-canadian";
metricRight = "e-canadian";
note = uni15CB;
unicode = 5579;
},
{
color = 9;
glyphname = "reCarrier-canadian";
lastChange = "2023-01-13 15:28:14 +0000";
layers = (
{
layerId = "F8006AA5-6E21-4BD1-AC52-9C52C7F343AA";
shapes = (
{
closed = 1;
nodes = (
(82,0,l),
(637,339,l),
(637,375,l),
(82,714,l),
(55,714,l),
(55,633,l),
(134,584,l),
(120,610,l),
(120,104,l),
(134,131,l),
(55,82,l),
(55,0,l)
);
},
{
closed = 1;
nodes = (
(198,588,l),
(185,559,l),
(550,334,l),
(550,380,l),
(185,156,l),
(198,125,l)
);
}
);
width = 672;
}
);
metricLeft = "po-canadian";
metricRight = "o-canadian";
note = uni15CC;
unicode = 5580;
},
{
color = 9;
glyphname = "reeCarrier-canadian";
lastChange = "2023-01-13 15:28:14 +0000";
layers = (
{
layerId = "F8006AA5-6E21-4BD1-AC52-9C52C7F343AA";
shapes = (
{
closed = 1;
nodes = (
(82,0,l),
(637,339,l),
(637,375,l),
(82,714,l),
(55,714,l),
(55,643,l),
(134,593,l),
(120,616,l),
(120,94,l),
(134,120,l),
(55,71,l),
(55,0,l)
);
},
{
closed = 1;
nodes = (
(189,595,l),
(177,574,l),
(570,335,l),
(570,380,l),
(176,139,l),
(189,125,l)
);
},
{
closed = 1;
nodes = (
(291,272,l),
(291,444,l),
(247,444,l),
(247,272,l)
);
}
);
width = 672;
}
);
metricLeft = "po-canadian";
metricRight = "o-canadian";
note = uni15CD;
unicode = 5581;
},
{
color = 9;
glyphname = "riCarrier-canadian";
lastChange = "2023-01-13 15:28:14 +0000";
layers = (
{
layerId = "F8006AA5-6E21-4BD1-AC52-9C52C7F343AA";
shapes = (
{
closed = 1;
nodes = (
(82,0,l),
(637,339,l),
(637,375,l),
(82,714,l),
(55,714,l),
(55,643,l),
(134,593,l),
(120,616,l),
(120,95,l),
(134,120,l),
(55,71,l),
(55,0,l)
);
},
{
closed = 1;
nodes = (
(312,314,o),
(332,332,o),
(332,357,cs),
(332,382,o),
(312,400,o),
(288,400,cs),
(265,400,o),
(245,382,o),
(245,357,cs),
(245,332,o),
(265,314,o),
(288,314,cs)
);
},
{
closed = 1;
nodes = (
(189,594,l),
(177,574,l),
(570,335,l),
(570,380,l),
(176,140,l),
(189,126,l)
);
}
);
width = 672;
}
);
metricLeft = "po-canadian";
metricRight = "o-canadian";
note = uni15CE;
unicode = 5582;
},
{
color = 9;
glyphname = "raCarrier-canadian";
lastChange = "2023-01-13 15:28:14 +0000";
layers = (
{
layerId = "F8006AA5-6E21-4BD1-AC52-9C52C7F343AA";
shapes = (
{
closed = 1;
nodes = (
(617,0,l),
(617,82,l),
(542,129,l),
(552,98,l),
(552,617,l),
(542,585,l),
(617,632,l),
(617,714,l),
(591,714,l),
(35,375,l),
(35,339,l),
(591,0,l)
);
},
{
closed = 1;
nodes = (
(492,561,l),
(474,589,l),
(474,126,l),
(492,154,l),
(123,380,l),
(123,335,l)
);
}
);
width = 672;
}
);
metricLeft = "=|o-canadian";
metricRight = "=|po-canadian";
note = uni15CF;
unicode = 5583;
},
{
color = 9;
glyphname = "wuCarrier-canadian";
lastChange = "2023-01-13 15:30:41 +0000";
layers = (
{
layerId = "F8006AA5-6E21-4BD1-AC52-9C52C7F343AA";
shapes = (
{
closed = 1;
nodes = (
(394,0,l),
(717,687,l),
(717,714,l),
(639,714,l),
(394,167,l),
(418,167,l),
(418,714,l),
(339,714,l),
(339,167,l),
(363,167,l),
(117,714,l),
(33,714,l),
(33,687,l),
(357,0,l)
);
}
);
width = 750;
}
);
metricLeft = "e-canadian";
metricRight = "e-canadian";
note = uni15D0;
unicode = 5584;
},
{
color = 9;
glyphname = "woCarrier-canadian";
lastChange = "2023-01-13 15:30:41 +0000";
layers = (
{
layerId = "F8006AA5-6E21-4BD1-AC52-9C52C7F343AA";
shapes = (
{
closed = 1;
nodes = (
(115,0,l),
(360,547,l),
(336,547,l),
(336,0,l),
(415,0,l),
(415,547,l),
(391,547,l),
(637,0,l),
(717,0,l),
(717,27,l),
(394,714,l),
(357,714,l),
(33,27,l),
(33,0,l)
);
}
);
width = 750;
}
);
metricLeft = "e-canadian";
metricRight = "e-canadian";
note = uni15D1;
unicode = 5585;
},
{
color = 9;
glyphname = "weCarrier-canadian";
lastChange = "2023-01-13 15:28:14 +0000";
layers = (
{
layerId = "F8006AA5-6E21-4BD1-AC52-9C52C7F343AA";
shapes = (
{
closed = 1;
nodes = (
(102,0,l),
(658,339,l),
(658,375,l),
(103,714,l),
(76,714,l),
(76,633,l),
(504,375,l),
(504,396,l),
(78,396,l),
(78,319,l),
(503,319,l),
(503,339,l),
(76,81,l),
(76,0,l)
);
}
);
width = 693;
}
);
metricRight = "o-canadian";
note = uni15D2;
unicode = 5586;
},
{
color = 9;
glyphname = "weeCarrier-canadian";
lastChange = "2023-01-13 15:28:14 +0000";
layers = (
{
layerId = "F8006AA5-6E21-4BD1-AC52-9C52C7F343AA";
shapes = (
{
closed = 1;
nodes = (
(102,0,l),
(658,339,l),
(658,375,l),
(103,714,l),
(76,714,l),
(76,641,l),
(533,366,l),
(540,388,l),
(212,388,l),
(212,470,l),
(156,470,l),
(156,388,l),
(76,388,l),
(76,327,l),
(156,327,l),
(156,245,l),
(212,245,l),
(212,327,l),
(541,327,l),
(534,348,l),
(76,73,l),
(76,0,l)
);
}
);
width = 693;
}
);
metricLeft = "weCarrier-canadian";
metricRight = "o-canadian";
note = uni15D3;
unicode = 5587;
},
{
color = 9;
glyphname = "wiCarrier-canadian";
lastChange = "2023-01-13 15:28:14 +0000";
layers = (
{
layerId = "F8006AA5-6E21-4BD1-AC52-9C52C7F343AA";
shapes = (
{
closed = 1;
nodes = (
(102,0,l),
(658,339,l),
(658,375,l),
(103,714,l),
(76,714,l),
(76,642,l),
(534,366,l),
(540,388,l),
(284,388,l),
(273,414,o),
(247,432,o),
(217,432,cs),
(186,432,o),
(160,414,o),
(150,388,c),
(76,388,l),
(76,327,l),
(150,327,l),
(161,301,o),
(187,282,o),
(217,282,cs),
(247,282,o),
(272,301,o),
(283,327,c),
(541,327,l),
(535,348,l),
(76,72,l),
(76,0,l)
);
}
);
width = 693;
}
);
metricLeft = "weCarrier-canadian";
metricRight = "o-canadian";
note = uni15D4;
unicode = 5588;
},
{
color = 9;
glyphname = "waCarrier-canadian";
lastChange = "2023-01-13 15:28:14 +0000";
layers = (
{
layerId = "F8006AA5-6E21-4BD1-AC52-9C52C7F343AA";
shapes = (
{
closed = 1;
nodes = (
(617,0,l),
(617,80,l),
(189,339,l),
(189,318,l),
(616,318,l),
(616,395,l),
(190,395,l),
(190,375,l),
(617,633,l),
(617,714,l),
(591,714,l),
(35,375,l),
(35,339,l),
(591,0,l)
);
}
);
width = 693;
}
);
metricLeft = "=|o-canadian";
metricRight = "=|weCarrier-canadian";
note = uni15D5;
unicode = 5589;
},
{
color = 9;
glyphname = "hwuCarrier-canadian";
lastChange = "2023-01-13 15:30:41 +0000";
layers = (
{
layerId = "F8006AA5-6E21-4BD1-AC52-9C52C7F343AA";
shapes = (
{
closed = 1;
nodes = (
(394,0,l),
(717,687,l),
(717,714,l),
(643,714,l),
(545,498,l),
(580,514,l),
(409,514,l),
(409,714,l),
(344,714,l),
(344,514,l),
(172,514,l),
(209,499,l),
(110,714,l),
(33,714,l),
(33,687,l),
(357,0,l)
);
},
{
closed = 1;
nodes = (
(350,457,l),
(350,130,l),
(368,135,l),
(217,473,l),
(196,457,l)
);
},
{
closed = 1;
nodes = (
(404,457,l),
(557,457,l),
(538,473,l),
(385,133,l),
(404,129,l)
);
}
);
width = 750;
}
);
metricLeft = "e-canadian";
metricRight = "e-canadian";
note = uni15D6;
unicode = 5590;
},
{
color = 9;
glyphname = "hwoCarrier-canadian";
lastChange = "2023-01-13 15:30:41 +0000";
layers = (
{
layerId = "F8006AA5-6E21-4BD1-AC52-9C52C7F343AA";
shapes = (
{
closed = 1;
nodes = (
(110,0,l),
(209,216,l),
(174,199,l),
(344,199,l),
(344,0,l),
(409,0,l),
(409,199,l),
(582,199,l),
(545,216,l),
(643,0,l),
(717,0,l),
(717,27,l),
(394,714,l),
(357,714,l),
(33,27,l),
(33,0,l)
);
},
{
closed = 1;
nodes = (
(359,562,l),
(349,565,l),
(349,258,l),
(202,258,l),
(216,241,l)
);
},
{
closed = 1;
nodes = (
(555,258,l),
(403,258,l),
(403,567,l),
(393,564,l),
(538,241,l)
);
}
);
width = 750;
}
);
metricLeft = "e-canadian";
metricRight = "e-canadian";
note = uni15D7;
unicode = 5591;
},
{
color = 9;
glyphname = "hweCarrier-canadian";
lastChange = "2023-01-13 15:28:14 +0000";
layers = (
{
layerId = "F8006AA5-6E21-4BD1-AC52-9C52C7F343AA";
shapes = (
{
closed = 1;
nodes = (
(102,0,l),
(658,339,l),
(658,375,l),
(103,714,l),
(76,714,l),
(76,641,l),
(228,550,l),
(228,390,l),
(76,390,l),
(76,325,l),
(228,325,l),
(228,164,l),
(76,72,l),
(76,0,l)
);
},
{
closed = 1;
nodes = (
(279,330,l),
(517,330,l),
(279,188,l)
);
},
{
closed = 1;
nodes = (
(279,525,l),
(515,385,l),
(279,385,l)
);
}
);
width = 693;
}
);
metricLeft = "weCarrier-canadian";
metricRight = "o-canadian";
note = uni15D8;
unicode = 5592;
},
{
color = 9;
glyphname = "hweeCarrier-canadian";
lastChange = "2023-01-13 15:28:14 +0000";
layers = (
{
layerId = "F8006AA5-6E21-4BD1-AC52-9C52C7F343AA";
shapes = (
{
closed = 1;
nodes = (
(102,0,l),
(658,339,l),
(658,375,l),
(103,714,l),
(76,714,l),
(76,643,l),
(250,540,l),
(250,386,l),
(192,386,l),
(192,466,l),
(144,466,l),
(144,386,l),
(76,386,l),
(76,329,l),
(144,329,l),
(144,249,l),
(192,249,l),
(192,329,l),
(250,329,l),
(250,173,l),
(76,71,l),
(76,0,l)
);
},
{
closed = 1;
nodes = (
(296,333,l),
(522,333,l),
(296,197,l)
);
},
{
closed = 1;
nodes = (
(296,517,l),
(520,382,l),
(296,382,l)
);
}
);
width = 693;
}
);
metricLeft = "weCarrier-canadian";
metricRight = "o-canadian";
note = uni15D9;
unicode = 5593;
},
{
color = 9;
glyphname = "hwiCarrier-canadian";
lastChange = "2023-01-13 15:28:14 +0000";
layers = (
{
layerId = "F8006AA5-6E21-4BD1-AC52-9C52C7F343AA";
shapes = (
{
closed = 1;
nodes = (
(102,0,l),
(658,339,l),
(658,375,l),
(103,714,l),
(76,714,l),
(76,643,l),
(250,540,l),
(250,382,l),
(223,382,l),
(215,405,o),
(193,421,o),
(166,421,cs),
(141,421,o),
(119,405,o),
(110,382,c),
(76,382,l),
(76,333,l),
(111,333,l),
(119,310,o),
(141,294,o),
(167,294,cs),
(192,294,o),
(214,310,o),
(222,333,c),
(250,333,l),
(250,173,l),
(76,71,l),
(76,0,l)
);
},
{
closed = 1;
nodes = (
(296,333,l),
(522,333,l),
(296,197,l)
);
},
{
closed = 1;
nodes = (
(296,517,l),
(520,382,l),
(296,382,l)
);
}
);
width = 693;
}
);
metricLeft = "weCarrier-canadian";
metricRight = "o-canadian";
note = uni15DA;
unicode = 5594;
},
{
color = 9;
glyphname = "hwaCarrier-canadian";
lastChange = "2023-01-13 15:28:14 +0000";
layers = (
{
layerId = "F8006AA5-6E21-4BD1-AC52-9C52C7F343AA";
shapes = (
{
closed = 1;
nodes = (
(617,0,l),
(617,72,l),
(465,164,l),
(465,324,l),
(617,324,l),
(617,389,l),
(465,389,l),
(465,550,l),
(617,641,l),
(617,714,l),
(591,714,l),
(35,375,l),
(35,339,l),
(591,0,l)
);
},
{
closed = 1;
nodes = (
(178,329,l),
(414,329,l),
(414,188,l)
);
},
{
closed = 1;
nodes = (
(414,526,l),
(414,384,l),
(177,384,l)
);
}
);
width = 693;
}
);
metricLeft = "=|o-canadian";
metricRight = "=|weCarrier-canadian";
note = uni15DB;
unicode = 5595;
},
{
color = 9;
glyphname = "thuCarrier-canadian";
lastChange = "2023-01-13 15:28:14 +0000";
layers = (
{
layerId = "F8006AA5-6E21-4BD1-AC52-9C52C7F343AA";
shapes = (
{
closed = 1;
nodes = (
(555,-13,o),
(667,106,o),
(667,313,cs),
(667,714,l),
(71,714,l),
(71,310,ls),
(71,105,o),
(184,-13,o),
(369,-13,cs)
);
},
{
closed = 1;
nodes = (
(170,626,l),
(568,626,l),
(568,311,ls),
(568,157,o),
(496,78,o),
(369,78,cs),
(245,78,o),
(170,159,o),
(170,311,cs)
);
}
);
width = 738;
}
);
metricLeft = "te-canadian";
metricRight = "te-canadian";
note = uni15DC;
unicode = 5596;
},
{
color = 9;
glyphname = "thoCarrier-canadian";
lastChange = "2023-01-13 15:28:14 +0000";
layers = (
{
layerId = "F8006AA5-6E21-4BD1-AC52-9C52C7F343AA";
shapes = (
{
closed = 1;
nodes = (
(667,0,l),
(667,404,ls),
(667,609,o),
(554,727,o),
(372,727,cs),
(185,727,o),
(71,609,o),
(71,401,cs),
(71,0,l)
);
},
{
closed = 1;
nodes = (
(170,403,ls),
(170,555,o),
(245,636,o),
(371,636,cs),
(494,636,o),
(568,555,o),
(568,403,cs),
(568,88,l),
(170,88,l)
);
}
);
width = 738;
}
);
metricLeft = "te-canadian";
metricRight = "te-canadian";
note = uni15DD;
unicode = 5597;
},
{
color = 9;
glyphname = "theCarrier-canadian";
lastChange = "2023-01-13 15:30:41 +0000";
layers = (
{
anchors = (
{
name = middle_center_can;
pos = (360,357);
}
);
layerId = "F8006AA5-6E21-4BD1-AC52-9C52C7F343AA";
shapes = (
{
closed = 1;
nodes = (
(318,0,ls),
(535.003,0,o),
(659,133,o),
(659,358,cs),
(659,583,o),
(535.003,714,o),
(314,714,cs),
(78,714,l),
(78,0,l)
);
},
{
closed = 1;
nodes = (
(178,655,l),
(149,626,l),
(312,626,ls),
(474,626,o),
(559,532,o),
(559,358,cs),
(559,185,o),
(474,88,o),
(313,88,cs),
(149,88,l),
(178,59,l)
);
}
);
width = 723;
}
);
metricLeft = "nunavuth-canadian";
metricRight = "to-canadian";
note = uni15DE;
unicode = 5598;
},
{
color = 9;
glyphname = "thaCarrier-canadian";
lastChange = "2023-01-13 15:30:41 +0000";
layers = (
{
layerId = "F8006AA5-6E21-4BD1-AC52-9C52C7F343AA";
shapes = (
{
closed = 1;
nodes = (
(644,0,l),
(644,714,l),
(407,714,ls),
(188,714,o),
(64,582,o),
(64,357,cs),
(64,132,o),
(188,0,o),
(406,0,cs)
);
},
{
closed = 1;
nodes = (
(163,530,o),
(249,626,o),
(410,626,cs),
(573,626,l),
(545,655,l),
(545,59,l),
(573,88,l),
(410,88,ls),
(249,88,o),
(163,183,o),
(163,357,cs)
);
}
);
width = 722;
}
);
metricLeft = "=|theCarrier-canadian";
metricRight = "nunavuth-canadian";
note = uni15E1;
unicode = 5601;
},
{
color = 9;
glyphname = "ttuCarrier-canadian";
lastChange = "2023-01-13 15:28:14 +0000";
layers = (
{
layerId = "F8006AA5-6E21-4BD1-AC52-9C52C7F343AA";
shapes = (
{
closed = 1;
nodes = (
(555,-13,o),
(667,106,o),
(667,313,cs),
(667,714,l),
(632,714,l),
(356,525,l),
(383,525,l),
(108,714,l),
(71,714,l),
(71,310,ls),
(71,105,o),
(184,-13,o),
(369,-13,cs)
);
},
{
closed = 1;
nodes = (
(245,78,o),
(170,159,o),
(170,311,cs),
(170,636,l),
(83,633,l),
(358,445,l),
(380,445,l),
(656,633,l),
(568,636,l),
(568,311,ls),
(568,157,o),
(496,78,o),
(369,78,cs)
);
}
);
width = 738;
}
);
metricLeft = "te-canadian";
metricRight = "te-canadian";
note = uni15E2;
unicode = 5602;
},
{
color = 9;
glyphname = "ttoCarrier-canadian";
lastChange = "2023-01-13 15:28:14 +0000";
layers = (
{
layerId = "F8006AA5-6E21-4BD1-AC52-9C52C7F343AA";
shapes = (
{
closed = 1;
nodes = (
(106,0,l),
(382,189,l),
(355,189,l),
(630,0,l),
(667,0,l),
(667,404,ls),
(667,609,o),
(553,727,o),
(368,727,cs),
(183,727,o),
(71,608,o),
(71,401,cs),
(71,0,l)
);
},
{
closed = 1;
nodes = (
(493,636,o),
(568,555,o),
(568,403,cs),
(568,78,l),
(655,81,l),
(379,269,l),
(358,269,l),
(82,81,l),
(170,78,l),
(170,403,ls),
(170,557,o),
(242,636,o),
(369,636,cs)
);
}
);
width = 738;
}
);
metricLeft = "te-canadian";
metricRight = "te-canadian";
note = uni15E3;
unicode = 5603;
},
{
color = 9;
glyphname = "tteCarrier-canadian";
lastChange = "2023-01-13 15:30:41 +0000";
layers = (
{
anchors = (
{
name = middle_center_can;
pos = (413,357);
}
);
layerId = "F8006AA5-6E21-4BD1-AC52-9C52C7F343AA";
shapes = (
{
closed = 1;
nodes = (
(328,0,ls),
(545,0,o),
(669,133,o),
(669,358,cs),
(669,583,o),
(545,714,o),
(324,714,cs),
(70,714,l),
(70,687,l),
(200,343,l),
(200,371,l),
(70,27,l),
(70,0,l)
);
},
{
closed = 1;
nodes = (
(289,346,l),
(289,365,l),
(161,707,l),
(160,626,l),
(322,626,ls),
(484,626,o),
(570,532,o),
(570,358,cs),
(570,185,o),
(484,88,o),
(323,88,cs),
(160,88,l),
(161,5,l)
);
}
);
width = 733;
}
);
metricRight = "theCarrier-canadian";
note = uni15E4;
unicode = 5604;
},
{
color = 9;
glyphname = "ttaCarrier-canadian";
lastChange = "2023-01-13 15:30:41 +0000";
layers = (
{
layerId = "F8006AA5-6E21-4BD1-AC52-9C52C7F343AA";
shapes = (
{
closed = 1;
nodes = (
(663,0,l),
(663,27,l),
(533,371,l),
(533,343,l),
(663,687,l),
(663,714,l),
(407,714,ls),
(188,714,o),
(64,582,o),
(64,357,cs),
(64,132,o),
(188,0,o),
(406,0,cs)
);
},
{
closed = 1;
nodes = (
(573,88,l),
(410,88,ls),
(249,88,o),
(163,183,o),
(163,357,cs),
(163,530,o),
(249,626,o),
(410,626,cs),
(573,626,l),
(572,709,l),
(443,368,l),
(443,349,l),
(572,8,l)
);
}
);
width = 733;
}
);
metricLeft = "=|theCarrier-canadian";
metricRight = "=|tteCarrier-canadian";
note = uni15E7;
unicode = 5607;
},
{
color = 9;
glyphname = "puCarrier-canadian";
lastChange = "2023-01-13 15:28:14 +0000";
layers = (
{
layerId = "F8006AA5-6E21-4BD1-AC52-9C52C7F343AA";
shapes = (
{
closed = 1;
nodes = (
(555,-13,o),
(667,106,o),
(667,313,cs),
(667,714,l),
(568,714,l),
(568,549,l),
(170,549,l),
(170,714,l),
(71,714,l),
(71,310,ls),
(71,105,o),
(184,-13,o),
(369,-13,cs)
);
},
{
closed = 1;
nodes = (
(245,78,o),
(170,159,o),
(170,311,cs),
(170,462,l),
(568,462,l),
(568,311,ls),
(568,157,o),
(496,78,o),
(369,78,cs)
);
}
);
width = 738;
}
);
metricLeft = "te-canadian";
metricRight = "te-canadian";
note = uni15E8;
unicode = 5608;
},
{
color = 9;
glyphname = "poCarrier-canadian";
lastChange = "2023-01-13 15:28:14 +0000";
layers = (
{
layerId = "F8006AA5-6E21-4BD1-AC52-9C52C7F343AA";
shapes = (
{
closed = 1;
nodes = (
(170,0,l),
(170,165,l),
(568,165,l),
(568,0,l),
(667,0,l),
(667,404,ls),
(667,609,o),
(554,727,o),
(372,727,cs),
(186,727,o),
(71,609,o),
(71,401,cs),
(71,0,l)
);
},
{
closed = 1;
nodes = (
(170,403,ls),
(170,555,o),
(245,636,o),
(371,636,cs),
(494,636,o),
(568,555,o),
(568,403,cs),
(568,252,l),
(170,252,l)
);
}
);
width = 738;
}
);
metricLeft = "te-canadian";
metricRight = "te-canadian";
note = uni15E9;
unicode = 5609;
},
{
color = 9;
glyphname = "peCarrier-canadian";
lastChange = "2023-01-13 15:30:41 +0000";
layers = (
{
anchors = (
{
name = middle_center_can;
pos = (401,357);
}
);
layerId = "F8006AA5-6E21-4BD1-AC52-9C52C7F343AA";
shapes = (
{
closed = 1;
nodes = (
(323,0,ls),
(540,0,o),
(664,133,o),
(664,358,cs),
(664,583,o),
(540,714,o),
(320,714,cs),
(66,714,l),
(66,626,l),
(157,626,l),
(157,88,l),
(66,88,l),
(66,0,l)
);
},
{
closed = 1;
nodes = (
(255,655,l),
(223,626,l),
(318,626,ls),
(480,626,o),
(565,532,o),
(565,358,cs),
(565,185,o),
(480,88,o),
(319,88,cs),
(223,88,l),
(255,59,l)
);
}
);
width = 728;
}
);
metricRight = "theCarrier-canadian";
note = uni15EA;
unicode = 5610;
},
{
color = 9;
glyphname = "paCarrier-canadian";
lastChange = "2023-01-13 15:30:41 +0000";
layers = (
{
layerId = "F8006AA5-6E21-4BD1-AC52-9C52C7F343AA";
shapes = (
{
closed = 1;
nodes = (
(663,0,l),
(663,88,l),
(571,88,l),
(571,626,l),
(663,626,l),
(663,714,l),
(408,714,ls),
(188,714,o),
(64,583,o),
(64,358,cs),
(64,133,o),
(188,0,o),
(405,0,cs)
);
},
{
closed = 1;
nodes = (
(505,88,l),
(409,88,ls),
(249,88,o),
(163,185,o),
(163,358,cs),
(163,532,o),
(249,626,o),
(411,626,cs),
(505,626,l),
(473,655,l),
(473,59,l)
);
}
);
width = 729;
}
);
metricLeft = "=|theCarrier-canadian";
metricRight = "=|peCarrier-canadian";
note = uni15ED;
unicode = 5613;
},
{
color = 6;
glyphname = "pCarrier-canadian";
lastChange = "2023-01-13 15:28:14 +0000";
layers = (
{
layerId = "F8006AA5-6E21-4BD1-AC52-9C52C7F343AA";
shapes = (
{
closed = 1;
nodes = (
(397,189,l),
(397,256,l),
(266,256,l),
(266,546,l),
(196,546,l),
(196,256,l),
(64,256,l),
(64,189,l)
);
}
);
width = 461;
}
);
metricLeft = "shorthorizontalstrokeFinal-canadian";
metricRight = "shorthorizontalstrokeFinal-canadian";
note = uni15EE;
unicode = 5614;
},
{
color = 9;
glyphname = "guCarrier-canadian";
lastChange = "2023-01-13 15:28:14 +0000";
layers = (
{
anchors = (
{
name = top_center_can;
pos = (445,714);
}
);
layerId = "F8006AA5-6E21-4BD1-AC52-9C52C7F343AA";
shapes = (
{
closed = 1;
nodes = (
(373,-13,o),
(439,40,o),
(466,138,c),
(424,138,l),
(455,38,o),
(520,-13,o),
(611,-13,cs),
(738,-13,o),
(813,75,o),
(813,221,cs),
(813.001,714,l),
(717,714,l),
(717,222,ls),
(717,127,o),
(678,75,o),
(606,75,cs),
(535,75,o),
(492,128,o),
(492,221,cs),
(492,714,l),
(398.004,714,l),
(398,221,ls),
(398,126,o),
(356,75,o),
(284,75,cs),
(211,75,o),
(169,126,o),
(169,222,cs),
(169,714,l),
(73,714,l),
(73,222,ls),
(73,73,o),
(152,-13,o),
(278,-13,cs)
);
}
);
width = 886;
}
);
metricRight = "=|";
note = uni15EF;
unicode = 5615;
},
{
color = 9;
glyphname = "goCarrier-canadian";
lastChange = "2023-01-13 15:28:14 +0000";
layers = (
{
layerId = "F8006AA5-6E21-4BD1-AC52-9C52C7F343AA";
shapes = (
{
closed = 1;
nodes = (
(169,0,l),
(169,492,ls),
(169,587,o),
(209,639,o),
(282,639,cs),
(353,639,o),
(396,587,o),
(396,493,cs),
(396,0,l),
(490,0,l),
(490,493,ls),
(490,586,o),
(533,639,o),
(603,639,cs),
(676,639,o),
(717,587,o),
(717,492,cs),
(717,0,l),
(813.001,0,l),
(813,492,ls),
(813,640,o),
(734,727,o),
(610,727,cs),
(516,727,o),
(450,674,o),
(423,576,c),
(465,576,l),
(434,676,o),
(369,727,o),
(276,727,cs),
(149,727,o),
(73,640,o),
(73,492,cs),
(73,0,l)
);
}
);
width = 886;
}
);
metricLeft = "guCarrier-canadian";
metricRight = "guCarrier-canadian";
note = uni15F0;
unicode = 5616;
},
{
color = 9;
glyphname = "geCarrier-canadian";
lastChange = "2023-01-13 15:28:14 +0000";
layers = (
{
anchors = (
{
name = top_center_can;
pos = (369,714);
}
);
layerId = "F8006AA5-6E21-4BD1-AC52-9C52C7F343AA";
shapes = (
{
closed = 1;
nodes = (
(436,0,ls),
(583,0,o),
(659,70,o),
(659,193,cs),
(659,278,o),
(607,345,o),
(525,373,c),
(525,341,l),
(609,365,o),
(659,429,o),
(659,519,cs),
(659,642,o),
(581,714,o),
(436,714,cs),
(78,714,l),
(78,632,l),
(419,632,ls),
(515,632,o),
(559,592,o),
(559,516,cs),
(559,439,o),
(511,398,o),
(421,398,cs),
(78,398,l),
(78,317,l),
(422,317,ls),
(511,317,o),
(559,274,o),
(559,197,cs),
(559,122,o),
(515,82,o),
(419,82,cs),
(78,82,l),
(78,0,l)
);
}
);
width = 733;
}
);
metricLeft = "nunavuth-canadian";
note = uni15F1;
unicode = 5617;
},
{
color = 9;
glyphname = "geeCarrier-canadian";
lastChange = "2023-01-13 15:28:14 +0000";
layers = (
{
layerId = "F8006AA5-6E21-4BD1-AC52-9C52C7F343AA";
shapes = (
{
closed = 1;
nodes = (
(436,0,ls),
(583,0,o),
(659,70,o),
(659,193,cs),
(659,278,o),
(607,345,o),
(525,373,c),
(525,341,l),
(609,365,o),
(659,429,o),
(659,519,cs),
(659,642,o),
(581,714,o),
(436,714,cs),
(78,714,l),
(78,632,l),
(419,632,ls),
(515,632,o),
(559,592,o),
(559,516,cs),
(559,439,o),
(511,397,o),
(421,397,cs),
(353,397,l),
(353,483,l),
(294,483,l),
(294,397,l),
(78,397,l),
(78,318,l),
(294,318,l),
(294,232,l),
(353,232,l),
(353,318,l),
(422,318,ls),
(511,318,o),
(559,274,o),
(559,197,cs),
(559,122,o),
(515,82,o),
(419,82,cs),
(78,82,l),
(78,0,l)
);
}
);
width = 733;
}
);
metricLeft = "geCarrier-canadian";
metricRight = "geCarrier-canadian";
note = uni15F2;
unicode = 5618;
},
{
color = 9;
glyphname = "giCarrier-canadian";
lastChange = "2023-01-13 15:28:14 +0000";
layers = (
{
layerId = "F8006AA5-6E21-4BD1-AC52-9C52C7F343AA";
shapes = (
{
closed = 1;
nodes = (
(436,0,ls),
(583,0,o),
(659,70,o),
(659,193,cs),
(659,278,o),
(607,344,o),
(526,369,c),
(525,344,l),
(609,367,o),
(659,430,o),
(659,519,cs),
(659,642,o),
(581,714,o),
(436,714,cs),
(78,714,l),
(78,632,l),
(419,632,ls),
(515,632,o),
(559,592,o),
(559,516,cs),
(559,439,o),
(511,397,o),
(424,397,cs),
(375,397,l),
(408,384,l),
(397,419,o),
(366,443,o),
(328,443,cs),
(296,443,o),
(268,424,o),
(255,397,c),
(78,397,l),
(78,318,l),
(255,318,l),
(268,291,o),
(296,272,o),
(329,272,cs),
(366,272,o),
(396,297,o),
(408,331,c),
(375,318,l),
(425,318,ls),
(511,318,o),
(559,274,o),
(559,197,cs),
(559,122,o),
(515,82,o),
(419,82,cs),
(78,82,l),
(78,0,l)
);
}
);
width = 733;
}
);
metricLeft = "geCarrier-canadian";
metricRight = "geCarrier-canadian";
note = uni15F3;
unicode = 5619;
},
{
color = 9;
glyphname = "gaCarrier-canadian";
lastChange = "2023-01-13 15:28:14 +0000";
layers = (
{
anchors = (
{
name = top_center_can;
pos = (383,714);
}
);
layerId = "F8006AA5-6E21-4BD1-AC52-9C52C7F343AA";
shapes = (
{
closed = 1;
nodes = (
(655,0,l),
(655,82,l),
(314,82,ls),
(218,82,o),
(174,122,o),
(174,197,cs),
(174,274,o),
(222,317,o),
(311,317,cs),
(655,317,l),
(655,398,l),
(312,398,ls),
(222,398,o),
(174,439,o),
(174,516,cs),
(174,592,o),
(218,632,o),
(314,632,cs),
(655,632,l),
(655,714,l),
(297,714,ls),
(152,714,o),
(74,642,o),
(74,519,cs),
(74,429,o),
(124,367,o),
(208,342,c),
(208,374,l),
(126,346,o),
(74,278,o),
(74,193,cs),
(74,70,o),
(150,0,o),
(297,0,cs)
);
}
);
width = 733;
}
);
metricLeft = "=|geCarrier-canadian";
metricRight = "=|geCarrier-canadian";
note = uni15F4;
unicode = 5620;
},
{
color = 9;
glyphname = "khuCarrier-canadian";
lastChange = "2023-01-13 15:28:14 +0000";
layers = (
{
layerId = "F8006AA5-6E21-4BD1-AC52-9C52C7F343AA";
shapes = (
{
closed = 1;
nodes = (
(373,-13,o),
(439,40,o),
(466,138,c),
(424,138,l),
(455,38,o),
(520,-13,o),
(611,-13,cs),
(738,-13,o),
(813,75,o),
(813,221,cs),
(813.001,714,l),
(73,714,l),
(73,222,ls),
(73,73,o),
(152,-13,o),
(278,-13,cs)
);
},
{
closed = 1;
nodes = (
(211,75,o),
(169,126,o),
(169,222,cs),
(169,628,l),
(398,628,l),
(398,221,ls),
(398,126,o),
(356,75,o),
(284,75,cs)
);
},
{
closed = 1;
nodes = (
(535,75,o),
(492,128,o),
(492,221,cs),
(492,628,l),
(717,628,l),
(717,222,ls),
(717,127,o),
(678,75,o),
(606,75,cs)
);
}
);
width = 886;
}
);
metricLeft = "guCarrier-canadian";
metricRight = "guCarrier-canadian";
note = uni15F5;
unicode = 5621;
},
{
color = 9;
glyphname = "khoCarrier-canadian";
lastChange = "2023-01-13 15:28:14 +0000";
layers = (
{
layerId = "F8006AA5-6E21-4BD1-AC52-9C52C7F343AA";
shapes = (
{
closed = 1;
nodes = (
(813.001,0,l),
(813,492,ls),
(813,639,o),
(737,727,o),
(611,727,cs),
(519,727,o),
(453,676,o),
(423,576,c),
(465,576,l),
(437,674,o),
(372,727,o),
(277,727,cs),
(152,727,o),
(73,641,o),
(73,492,cs),
(73,0,l)
);
},
{
closed = 1;
nodes = (
(169,492,ls),
(169,588,o),
(211,639,o),
(284,639,cs),
(355,639,o),
(398,587,o),
(398,493,cs),
(398,86,l),
(169,86,l)
);
},
{
closed = 1;
nodes = (
(491,493,ls),
(491,586,o),
(534,639,o),
(605,639,cs),
(678,639,o),
(717,587,o),
(717,492,cs),
(717,86,l),
(491,86,l)
);
}
);
width = 886;
}
);
metricLeft = "guCarrier-canadian";
metricRight = "guCarrier-canadian";
note = uni15F6;
unicode = 5622;
},
{
color = 9;
glyphname = "kheCarrier-canadian";
lastChange = "2023-01-13 15:28:14 +0000";
layers = (
{
layerId = "F8006AA5-6E21-4BD1-AC52-9C52C7F343AA";
shapes = (
{
closed = 1;
nodes = (
(440,0,ls),
(587,0,o),
(663,70,o),
(663,193,cs),
(663,278,o),
(611,345,o),
(529,373,c),
(529,341,l),
(613,365,o),
(663,429,o),
(663,519,cs),
(663,642,o),
(586,714,o),
(440,714,cs),
(78,714,l),
(78,0,l)
);
},
{
closed = 1;
nodes = (
(178,318,l),
(426,318,ls),
(515,318,o),
(564,274,o),
(564,197,cs),
(564,122,o),
(519,81,o),
(423,81,cs),
(178,81,l)
);
},
{
closed = 1;
nodes = (
(178,633,l),
(423,633,ls),
(519,633,o),
(564,592,o),
(564,516,cs),
(564,439,o),
(515,398,o),
(425,398,cs),
(178,398,l)
);
}
);
width = 737;
}
);
metricLeft = "nunavuth-canadian";
metricRight = "geCarrier-canadian";
note = uni15F7;
unicode = 5623;
},
{
color = 9;
glyphname = "kheeCarrier-canadian";
lastChange = "2023-01-13 15:28:14 +0000";
layers = (
{
layerId = "F8006AA5-6E21-4BD1-AC52-9C52C7F343AA";
shapes = (
{
closed = 1;
nodes = (
(440,0,ls),
(587,0,o),
(663,70,o),
(663,193,cs),
(663,278,o),
(611,345,o),
(528,371,c),
(528,342,l),
(613,365,o),
(663,429,o),
(663,519,cs),
(663,642,o),
(586,714,o),
(440,714,cs),
(78,714,l),
(78,0,l)
);
},
{
closed = 1;
nodes = (
(178,319,l),
(323,319,l),
(323,230,l),
(389,230,l),
(389,341,l),
(362,319,l),
(429,319,ls),
(517,319,o),
(564,275,o),
(564,198,cs),
(564,122,o),
(519,81,o),
(423,81,cs),
(178,81,l)
);
},
{
closed = 1;
nodes = (
(389,485,l),
(323,485,l),
(323,397,l),
(178,397,l),
(178,633,l),
(423,633,ls),
(519,633,o),
(564,592,o),
(564,516,cs),
(564,438,o),
(516,397,o),
(428,397,cs),
(362,397,l),
(389,374,l)
);
}
);
width = 737;
}
);
metricLeft = "nunavuth-canadian";
metricRight = "geCarrier-canadian";
note = uni15F8;
unicode = 5624;
},
{
color = 9;
glyphname = "khiCarrier-canadian";
lastChange = "2023-01-13 15:28:14 +0000";
layers = (
{
layerId = "F8006AA5-6E21-4BD1-AC52-9C52C7F343AA";
shapes = (
{
closed = 1;
nodes = (
(440,0,ls),
(587,0,o),
(663,70,o),
(663,193,cs),
(663,278,o),
(613,343,o),
(532,371,c),
(531,342,l),
(614,366,o),
(663,430,o),
(663,519,cs),
(663,642,o),
(586,714,o),
(440,714,cs),
(78,714,l),
(78,0,l)
);
},
{
closed = 1;
nodes = (
(178,320,l),
(280,320,l),
(293,292,o),
(321,272,o),
(354,272,cs),
(398,272,o),
(432,306,o),
(437,348,c),
(383,320,l),
(430,320,ls),
(517,320,o),
(564,276,o),
(564,198,cs),
(564,121,o),
(519,81,o),
(423,81,cs),
(178,81,l)
);
},
{
closed = 1;
nodes = (
(423,633,ls),
(519,633,o),
(564,592,o),
(564,515,cs),
(564,437,o),
(516,395,o),
(429,395,cs),
(384,395,l),
(438,366,l),
(433,410,o),
(398,443,o),
(354,443,cs),
(310,443,o),
(275,410,o),
(271,367,c),
(305,395,l),
(178,395,l),
(178,633,l)
);
}
);
width = 737;
}
);
metricLeft = "nunavuth-canadian";
metricRight = "geCarrier-canadian";
note = uni15F9;
unicode = 5625;
},
{
color = 9;
glyphname = "khaCarrier-canadian";
lastChange = "2023-01-13 15:28:14 +0000";
layers = (
{
layerId = "F8006AA5-6E21-4BD1-AC52-9C52C7F343AA";
shapes = (
{
closed = 1;
nodes = (
(659,0,l),
(659,714,l),
(297,714,ls),
(152,714,o),
(74,642,o),
(74,519,cs),
(74,430,o),
(123,367,o),
(207,344,c),
(205,372,l),
(125,345,o),
(74,278,o),
(74,193,cs),
(74,70,o),
(150,0,o),
(297,0,cs)
);
},
{
closed = 1;
nodes = (
(218,81,o),
(174,122,o),
(174,197,cs),
(174,274,o),
(222,318,o),
(311,318,cs),
(560,318,l),
(560,81,l),
(314,81,ls)
);
},
{
closed = 1;
nodes = (
(222,398,o),
(174,439,o),
(174,516,cs),
(174,592,o),
(218,633,o),
(314,633,cs),
(560,633,l),
(560,398,l),
(312,398,ls)
);
}
);
width = 737;
}
);
metricLeft = "=|geCarrier-canadian";
metricRight = "nunavuth-canadian";
note = uni15FA;
unicode = 5626;
},
{
color = 9;
glyphname = "kkuCarrier-canadian";
lastChange = "2023-01-13 15:28:14 +0000";
layers = (
{
layerId = "F8006AA5-6E21-4BD1-AC52-9C52C7F343AA";
shapes = (
{
closed = 1;
nodes = (
(376,-13,o),
(443,44,o),
(467,148,c),
(422,148,l),
(450,42,o),
(517,-13,o),
(611,-13,cs),
(738,-13,o),
(813,75,o),
(813,221,cs),
(813.001,714,l),
(777,714,l),
(475,548,l),
(475,455,l),
(782,621,l),
(717,627,l),
(717,222,ls),
(717,127,o),
(678,75,o),
(606,75,cs),
(535,75,o),
(492,128,o),
(492,221,cs),
(492,714,l),
(398,714,l),
(398,221,ls),
(398,126,o),
(356,75,o),
(284,75,cs),
(211,75,o),
(169,126,o),
(169,222,cs),
(169,627,l),
(105,621,l),
(412,455,l),
(412,548,l),
(110,714,l),
(73,714,l),
(73,222,ls),
(73,73,o),
(152,-13,o),
(278,-13,cs)
);
}
);
width = 886;
}
);
metricLeft = "guCarrier-canadian";
metricRight = "guCarrier-canadian";
note = uni15FB;
unicode = 5627;
},
{
color = 9;
glyphname = "kkoCarrier-canadian";
lastChange = "2023-01-13 15:28:14 +0000";
layers = (
{
layerId = "F8006AA5-6E21-4BD1-AC52-9C52C7F343AA";
shapes = (
{
closed = 1;
nodes = (
(109,0,l),
(412,166,l),
(412,259,l),
(104,93,l),
(169,87,l),
(169,492,ls),
(169,587,o),
(209,639,o),
(281,639,cs),
(352,639,o),
(395,586,o),
(395,493,cs),
(395,0,l),
(488,0,l),
(488,493,ls),
(488,588,o),
(531,639,o),
(602,639,cs),
(676,639,o),
(717,588,o),
(717,492,cs),
(717,87,l),
(781,93,l),
(474,259,l),
(474,166,l),
(776,0,l),
(813.001,0,l),
(813,492,ls),
(813,641,o),
(734,727,o),
(609,727,cs),
(510,727,o),
(443,670,o),
(419,566,c),
(465,566,l),
(436,672,o),
(369,727,o),
(275,727,cs),
(149,727,o),
(73,639,o),
(73,493,cs),
(73,0,l)
);
}
);
width = 886;
}
);
metricLeft = "guCarrier-canadian";
metricRight = "guCarrier-canadian";
note = uni15FC;
unicode = 5628;
},
{
color = 9;
glyphname = "kkeCarrier-canadian";
lastChange = "2023-01-13 15:28:14 +0000";
layers = (
{
layerId = "F8006AA5-6E21-4BD1-AC52-9C52C7F343AA";
shapes = (
{
closed = 1;
nodes = (
(455,0,ls),
(602.006,0,o),
(678,70,o),
(678,193,cs),
(678,278,o),
(626,344,o),
(547,371,c),
(546,342,l),
(629,366,o),
(678,430,o),
(678,519,cs),
(678,642,o),
(600,714,o),
(455,714,cs),
(74,714,l),
(74,687,l),
(183,398,l),
(85,398,l),
(85,317,l),
(183,317,l),
(74,27,l),
(74,0,l)
);
},
{
closed = 1;
nodes = (
(283,317,l),
(441,317,ls),
(530,317,o),
(578,274,o),
(578,197,cs),
(578,122,o),
(534,82,o),
(438,82,cs),
(151,82,l),
(179,40,l)
);
},
{
closed = 1;
nodes = (
(178,674,l),
(149,632,l),
(438,632,ls),
(534,632,o),
(578,592,o),
(578,516,cs),
(578,439,o),
(529,398,o),
(440,398,cs),
(282,398,l)
);
}
);
width = 752;
}
);
metricRight = "geCarrier-canadian";
note = uni15FD;
unicode = 5629;
},
{
color = 9;
glyphname = "kkeeCarrier-canadian";
lastChange = "2023-01-13 15:28:14 +0000";
layers = (
{
layerId = "F8006AA5-6E21-4BD1-AC52-9C52C7F343AA";
shapes = (
{
closed = 1;
nodes = (
(455,0,ls),
(602.006,0,o),
(678,70,o),
(678,193,cs),
(678,278,o),
(626,344,o),
(547,371,c),
(546,342,l),
(629,366,o),
(678,430,o),
(678,519,cs),
(678,642,o),
(600,714,o),
(455,714,cs),
(74,714,l),
(74,687,l),
(183,398,l),
(85,398,l),
(85,317,l),
(183,317,l),
(74,27,l),
(74,0,l)
);
},
{
closed = 1;
nodes = (
(283,319,l),
(359,319,l),
(359,232,l),
(425,232,l),
(425,338,l),
(400,319,l),
(446,319,ls),
(531,319,o),
(578,276,o),
(578,198,cs),
(578,122,o),
(534,82,o),
(438,82,cs),
(150,82,l),
(179,40,l)
);
},
{
closed = 1;
nodes = (
(425,483,l),
(359,483,l),
(359,396,l),
(282,396,l),
(177,674,l),
(149,632,l),
(438,632,ls),
(534,632,o),
(578,592,o),
(578,515,cs),
(578,437,o),
(531,396,o),
(446,396,cs),
(400,396,l),
(425,378,l)
);
}
);
width = 752;
}
);
metricLeft = "kkeCarrier-canadian";
metricRight = "geCarrier-canadian";
note = uni15FE;
unicode = 5630;
},
{
color = 9;
glyphname = "kkiCarrier-canadian";
lastChange = "2023-01-13 15:28:14 +0000";
layers = (
{
layerId = "F8006AA5-6E21-4BD1-AC52-9C52C7F343AA";
shapes = (
{
closed = 1;
nodes = (
(455,0,ls),
(602.006,0,o),
(678,70,o),
(678,193,cs),
(678,278,o),
(626,344,o),
(547,371,c),
(546,342,l),
(629,366,o),
(678,430,o),
(678,519,cs),
(678,642,o),
(600,714,o),
(455,714,cs),
(74,714,l),
(74,687,l),
(183,398,l),
(85,398,l),
(85,317,l),
(183,317,l),
(74,27,l),
(74,0,l)
);
},
{
closed = 1;
nodes = (
(283,321,l),
(315,321,l),
(327,292,o),
(355,272,o),
(389,272,cs),
(433,272,o),
(466,307,o),
(470,347,c),
(420,321,l),
(446,321,ls),
(531,321,o),
(578,276,o),
(578,198,cs),
(578,122,o),
(534,82,o),
(438,82,cs),
(150,82,l),
(179,40,l)
);
},
{
closed = 1;
nodes = (
(467,410,o),
(434,443,o),
(389,443,cs),
(355,443,o),
(327,423,o),
(315,395,c),
(282,395,l),
(177,674,l),
(149,632,l),
(438,632,ls),
(534,632,o),
(578,592,o),
(578,514,cs),
(578,437,o),
(531,395,o),
(446,395,cs),
(421,395,l),
(471,368,l)
);
}
);
width = 752;
}
);
metricLeft = "kkeCarrier-canadian";
metricRight = "geCarrier-canadian";
note = uni15FF;
unicode = 5631;
},
{
color = 9;
glyphname = "kkaCarrier-canadian";
lastChange = "2023-01-13 15:30:41 +0000";
layers = (
{
layerId = "F8006AA5-6E21-4BD1-AC52-9C52C7F343AA";
shapes = (
{
closed = 1;
nodes = (
(677,0,l),
(677,27,l),
(569,317,l),
(659,317,l),
(659,398,l),
(569,398,l),
(677,687,l),
(677,714,l),
(297,714,ls),
(152,714,o),
(74,642,o),
(74,519,cs),
(74,430,o),
(123,367,o),
(207,344,c),
(205,372,l),
(125,345,o),
(74,278,o),
(74,193,cs),
(74,70,o),
(150,0,o),
(297,0,cs)
);
},
{
closed = 1;
nodes = (
(602,82,l),
(314,82,ls),
(218,82,o),
(174,122,o),
(174,197,cs),
(174,274,o),
(222,317,o),
(311,317,cs),
(469,317,l),
(573,40,l)
);
},
{
closed = 1;
nodes = (
(222,398,o),
(174,439,o),
(174,516,cs),
(174,592,o),
(218,632,o),
(314,632,cs),
(601,632,l),
(573,674,l),
(469,398,l),
(312,398,ls)
);
}
);
width = 751;
}
);
metricLeft = "=|geCarrier-canadian";
metricRight = "=|kkeCarrier-canadian";
note = uni1600;
unicode = 5632;
},
{
color = 6;
glyphname = "kkCarrier-canadian";
lastChange = "2023-01-13 15:28:14 +0000";
layers = (
{
layerId = "F8006AA5-6E21-4BD1-AC52-9C52C7F343AA";
shapes = (
{
closed = 1;
nodes = (
(229,189,l),
(388,531,l),
(388,546,l),
(320,546,l),
(192,261,l),
(246,261,l),
(119,546,l),
(50,546,l),
(50,531,l),
(209,189,l)
);
}
);
width = 438;
}
);
note = uni1601;
unicode = 5633;
},
{
color = 9;
glyphname = "nuCarrier-canadian";
lastChange = "2023-01-13 15:28:14 +0000";
layers = (
{
layerId = "F8006AA5-6E21-4BD1-AC52-9C52C7F343AA";
shapes = (
{
closed = 1;
nodes = (
(561,-13,o),
(667,97,o),
(667,280,cs),
(667,314,l),
(568,314,l),
(568,276,ls),
(568,145,o),
(496,77,o),
(376,77,cs),
(238,77,o),
(170,153,o),
(170,310,cs),
(170,714,l),
(71,714,l),
(71,305,ls),
(71,98,o),
(180,-13,o),
(374,-13,cs)
);
}
);
width = 732;
}
);
metricLeft = "te-canadian";
note = uni1602;
unicode = 5634;
},
{
color = 9;
glyphname = "noCarrier-canadian";
lastChange = "2023-01-13 15:30:41 +0000";
layers = (
{
layerId = "F8006AA5-6E21-4BD1-AC52-9C52C7F343AA";
shapes = (
{
closed = 1;
nodes = (
(662,0,l),
(662,409,ls),
(662,616,o),
(553,727,o),
(358,727,cs),
(172,727,o),
(65,617,o),
(65,434,cs),
(65,400,l),
(164,400,l),
(164,438,ls),
(164,569,o),
(237,637,o),
(357,637,cs),
(494,637,o),
(562,561,o),
(562,404,cs),
(562,0,l)
);
}
);
width = 733;
}
);
metricLeft = "=|nuCarrier-canadian";
metricRight = "te-canadian";
note = uni1603;
unicode = 5635;
},
{
color = 9;
glyphname = "neCarrier-canadian";
lastChange = "2023-01-13 15:28:14 +0000";
layers = (
{
anchors = (
{
name = middle_center_can;
pos = (327,356);
}
);
layerId = "F8006AA5-6E21-4BD1-AC52-9C52C7F343AA";
shapes = (
{
closed = 1;
nodes = (
(321,0,ls),
(536,0,o),
(661,133,o),
(661,358,cs),
(661,583,o),
(537,714,o),
(316,714,cs),
(53,714,l),
(53,624,l),
(314,624,ls),
(474,624,o),
(562,530,o),
(562,357,cs),
(562,185,o),
(474,89,o),
(317,89,cs),
(296,89,l),
(296,0,l)
);
}
);
width = 725;
}
);
metricRight = "theCarrier-canadian";
note = uni1604;
unicode = 5636;
},
{
color = 9;
glyphname = "naCarrier-canadian";
lastChange = "2023-01-13 15:30:41 +0000";
layers = (
{
layerId = "F8006AA5-6E21-4BD1-AC52-9C52C7F343AA";
shapes = (
{
closed = 1;
nodes = (
(672,0,l),
(672,90,l),
(410,90,ls),
(250,90,o),
(163,185,o),
(163,357,cs),
(163,530,o),
(251,625,o),
(407,625,cs),
(429,625,l),
(429,714,l),
(403,714,ls),
(188,714,o),
(64,582,o),
(64,357,cs),
(64,132,o),
(188,0,o),
(406,0,cs)
);
}
);
width = 725;
}
);
metricLeft = "=|theCarrier-canadian";
metricRight = "=|neCarrier-canadian";
note = uni1607;
unicode = 5639;
},
{
color = 9;
glyphname = "muCarrier-canadian";
lastChange = "2023-01-13 15:28:14 +0000";
layers = (
{
layerId = "F8006AA5-6E21-4BD1-AC52-9C52C7F343AA";
shapes = (
{
closed = 1;
nodes = (
(373,-13,o),
(439,40,o),
(466,138,c),
(424,138,l),
(455,38,o),
(520,-13,o),
(611,-13,cs),
(738,-13,o),
(813,75,o),
(813,221,cs),
(813,404,l),
(717,404,l),
(717,222,ls),
(717,127,o),
(678,75,o),
(606,75,cs),
(535,75,o),
(492,128,o),
(492,221,cs),
(492,404,l),
(398,404,l),
(398,221,ls),
(398,126,o),
(356,75,o),
(284,75,cs),
(211,75,o),
(169,126,o),
(169,222,cs),
(169,714,l),
(73,714,l),
(73,222,ls),
(73,73,o),
(152,-13,o),
(278,-13,cs)
);
}
);
width = 886;
}
);
metricLeft = "guCarrier-canadian";
metricRight = "=|";
note = uni1608;
unicode = 5640;
},
{
color = 9;
glyphname = "moCarrier-canadian";
lastChange = "2023-01-13 15:28:14 +0000";
layers = (
{
layerId = "F8006AA5-6E21-4BD1-AC52-9C52C7F343AA";
shapes = (
{
closed = 1;
nodes = (
(813.001,0,l),
(813,492,ls),
(813,640,o),
(734,727,o),
(610,727,cs),
(516,727,o),
(450,674,o),
(423,576,c),
(465,576,l),
(434,676,o),
(369,727,o),
(276,727,cs),
(149,727,o),
(73,640,o),
(73,493,cs),
(73,310,l),
(169,310,l),
(169,492,ls),
(169,587,o),
(209,639,o),
(282,639,cs),
(353,639,o),
(396,586,o),
(396,493,cs),
(396,310,l),
(490,310,l),
(490,493,ls),
(490,586,o),
(533,639,o),
(603,639,cs),
(676,639,o),
(717,587,o),
(717,492,cs),
(717,0,l)
);
}
);
width = 886;
}
);
metricLeft = "=|muCarrier-canadian";
metricRight = "guCarrier-canadian";
note = uni1609;
unicode = 5641;
},
{
color = 9;
glyphname = "meCarrier-canadian";
lastChange = "2023-01-13 15:28:14 +0000";
layers = (
{
layerId = "F8006AA5-6E21-4BD1-AC52-9C52C7F343AA";
shapes = (
{
closed = 1;
nodes = (
(438,0,ls),
(585,0,o),
(661,70,o),
(661,193,cs),
(661,278,o),
(609,345,o),
(526,373,c),
(526,341,l),
(611,365,o),
(661,429,o),
(661,519,cs),
(661,642,o),
(583,714,o),
(438,714,cs),
(53,714,l),
(53,632,l),
(421,632,ls),
(517,632,o),
(561,592,o),
(561,516,cs),
(561,439,o),
(512,398,o),
(423,398,cs),
(296,398,l),
(296,317,l),
(424,317,ls),
(513,317,o),
(561,274,o),
(561,197,cs),
(561,122,o),
(517,82,o),
(421,82,cs),
(296,82,l),
(296,0,l)
);
}
);
width = 735;
}
);
metricLeft = "neCarrier-canadian";
metricRight = "geCarrier-canadian";
note = uni160A;
unicode = 5642;
},
{
color = 9;
glyphname = "meeCarrier-canadian";
lastChange = "2023-01-13 15:28:14 +0000";
layers = (
{
layerId = "F8006AA5-6E21-4BD1-AC52-9C52C7F343AA";
shapes = (
{
closed = 1;
nodes = (
(438,0,ls),
(585,0,o),
(661,70,o),
(661,193,cs),
(661,278,o),
(609,344,o),
(530,371,c),
(528,342,l),
(612,366,o),
(661,430,o),
(661,519,cs),
(661,642,o),
(583,714,o),
(438,714,cs),
(53,714,l),
(53,632,l),
(421,632,ls),
(517,632,o),
(561,592,o),
(561,515,cs),
(561,437,o),
(513,396,o),
(425,396,cs),
(363,396,l),
(363,481,l),
(296,481,l),
(296,234,l),
(363,234,l),
(363,319,l),
(426,319,ls),
(514,319,o),
(561,276,o),
(561,198,cs),
(561,122,o),
(517,82,o),
(421,82,cs),
(296,82,l),
(296,0,l)
);
}
);
width = 735;
}
);
metricLeft = "neCarrier-canadian";
metricRight = "geCarrier-canadian";
note = uni160B;
unicode = 5643;
},
{
color = 9;
glyphname = "miCarrier-canadian";
lastChange = "2023-01-13 15:28:14 +0000";
layers = (
{
layerId = "F8006AA5-6E21-4BD1-AC52-9C52C7F343AA";
shapes = (
{
closed = 1;
nodes = (
(438,0,ls),
(585,0,o),
(661,70,o),
(661,193,cs),
(661,278,o),
(609,344,o),
(530,371,c),
(528,342,l),
(612,366,o),
(661,430,o),
(661,519,cs),
(661,642,o),
(583,714,o),
(438,714,cs),
(53,714,l),
(53,632,l),
(421,632,ls),
(517,632,o),
(561,592,o),
(561,515,cs),
(561,437,o),
(513,396,o),
(430,396,cs),
(359,396,l),
(413,368,l),
(408,411,o),
(373,443,o),
(329,443,cs),
(281,443,o),
(245,405,o),
(245,358,cs),
(245,311,o),
(282,272,o),
(329,272,cs),
(373,272,o),
(407,306,o),
(412,347,c),
(358,319,l),
(430,319,ls),
(514,319,o),
(561,276,o),
(561,198,cs),
(561,122,o),
(517,82,o),
(421,82,cs),
(296,82,l),
(296,0,l)
);
}
);
width = 735;
}
);
metricLeft = "neCarrier-canadian";
metricRight = "geCarrier-canadian";
note = uni160C;
unicode = 5644;
},
{
color = 9;
glyphname = "maCarrier-canadian";
lastChange = "2023-01-13 15:28:14 +0000";
layers = (
{
layerId = "F8006AA5-6E21-4BD1-AC52-9C52C7F343AA";
shapes = (
{
closed = 1;
nodes = (
(682,0,l),
(682,82,l),
(314,82,ls),
(218,82,o),
(174,121,o),
(174,197,cs),
(174,274,o),
(222,317,o),
(311,317,cs),
(439,317,l),
(439,398,l),
(312,398,ls),
(223,398,o),
(174,439,o),
(174,516,cs),
(174,592,o),
(218,632,o),
(314,632,cs),
(439,632,l),
(439,714,l),
(297,714,ls),
(151,714,o),
(74,642,o),
(74,520,cs),
(74,430,o),
(125,367,o),
(208,343,c),
(208,374,l),
(125,347,o),
(74,280,o),
(74,193,cs),
(74,71,o),
(150,0,o),
(297,0,cs)
);
}
);
width = 735;
}
);
metricLeft = "=|geCarrier-canadian";
metricRight = "=|neCarrier-canadian";
note = uni160D;
unicode = 5645;
},
{
color = 9;
glyphname = "yuCarrier-canadian";
lastChange = "2023-01-13 15:28:14 +0000";
layers = (
{
layerId = "F8006AA5-6E21-4BD1-AC52-9C52C7F343AA";
shapes = (
{
closed = 1;
nodes = (
(591,-13,o),
(710,131,o),
(710,403,cs),
(710,622,o),
(632,727,o),
(506,727,cs),
(399,727,o),
(324,649,o),
(324,519,cs),
(324,393,o),
(395,315,o),
(502,315,cs),
(517,315,o),
(536,318,o),
(548,322,c),
(548,401,l),
(539,399,o),
(529,397,o),
(512,397,cs),
(445,397,o),
(412,441,o),
(412,522,cs),
(412,600,o),
(445,645,o),
(503,645,cs),
(575,645,o),
(615,582,o),
(615,406,cs),
(615,171,o),
(531,77,o),
(387,77,cs),
(250,77,o),
(170,157,o),
(170,325,cs),
(170,714,l),
(71,714,l),
(71,320,ls),
(71,104,o),
(194,-13,o),
(383,-13,cs)
);
}
);
width = 781;
}
);
metricLeft = "te-canadian";
metricRight = "te-canadian";
note = uni160E;
unicode = 5646;
},
{
color = 9;
glyphname = "yoCarrier-canadian";
lastChange = "2023-01-13 15:28:14 +0000";
layers = (
{
layerId = "F8006AA5-6E21-4BD1-AC52-9C52C7F343AA";
shapes = (
{
closed = 1;
nodes = (
(382,-13,o),
(457,65,o),
(457,195,cs),
(457,321,o),
(386,399,o),
(279,399,cs),
(264,399,o),
(245,396,o),
(233,392,c),
(233,313,l),
(242,315,o),
(252,317,o),
(269,317,cs),
(336,317,o),
(369,273,o),
(369,192,cs),
(369,114,o),
(336,69,o),
(278,69,cs),
(206,69,o),
(166,132,o),
(166,308,cs),
(166,543,o),
(250,637,o),
(394,637,cs),
(531,637,o),
(611,557,o),
(611,389,cs),
(611,0,l),
(710,0,l),
(710,394,ls),
(710,610,o),
(587,727,o),
(398,727,cs),
(190,727,o),
(71,583,o),
(71,311,cs),
(71,92,o),
(149,-13,o),
(275,-13,cs)
);
}
);
width = 781;
}
);
metricLeft = "te-canadian";
metricRight = "te-canadian";
note = uni160F;
unicode = 5647;
},
{
color = 9;
glyphname = "yeCarrier-canadian";
lastChange = "2023-01-13 15:30:41 +0000";
layers = (
{
layerId = "F8006AA5-6E21-4BD1-AC52-9C52C7F343AA";
shapes = (
{
closed = 1;
nodes = (
(541,-13,o),
(661,131,o),
(661,354,cs),
(661,585,o),
(534,714,o),
(299,714,cs),
(80,714,l),
(80,624,l),
(303,624,ls),
(476,624,o),
(562,531,o),
(562,351,cs),
(562,174,o),
(490,72,o),
(330,72,cs),
(203,72,o),
(152,137,o),
(152,220,cs),
(152,299,o),
(188,342,o),
(244,342,cs),
(302,342,o),
(335,297,o),
(335,224,cs),
(335,197,o),
(333,181,o),
(330,164,c),
(410,164,l),
(415,188,o),
(417,204,o),
(417,232,cs),
(417,343,o),
(353,422,o),
(245,422,cs),
(135,422,o),
(64,341,o),
(64,219,cs),
(64,91,o),
(155,-13,o),
(330,-13,cs)
);
}
);
width = 725;
}
);
metricRight = "theCarrier-canadian";
note = uni1610;
unicode = 5648;
},
{
color = 9;
glyphname = "yeeCarrier-canadian";
lastChange = "2023-01-13 15:30:41 +0000";
layers = (
{
layerId = "F8006AA5-6E21-4BD1-AC52-9C52C7F343AA";
shapes = (
{
closed = 1;
nodes = (
(541,-13,o),
(661,131,o),
(661,354,cs),
(661,585,o),
(534,714,o),
(299,714,cs),
(80,714,l),
(80,624,l),
(303,624,ls),
(476,624,o),
(562,531,o),
(562,351,cs),
(562,174,o),
(490,72,o),
(330,72,cs),
(203,72,o),
(152,135,o),
(152,225,cs),
(152,298,o),
(187,342,o),
(238,342,cs),
(292,342,o),
(324,300,o),
(324,229,cs),
(324,186,l),
(383,186,l),
(383,513,l),
(324,513,l),
(324,311,l),
(336,311,l),
(328,382,o),
(285,422,o),
(217,422,cs),
(128,422,o),
(64,343,o),
(64,224,cs),
(64,89,o),
(154,-13,o),
(330,-13,cs)
);
}
);
width = 725;
}
);
metricRight = "theCarrier-canadian";
metricWidth = "yeCarrier-canadian";
note = uni1611;
unicode = 5649;
},
{
color = 9;
glyphname = "yiCarrier-canadian";
lastChange = "2023-01-13 15:30:41 +0000";
layers = (
{
layerId = "F8006AA5-6E21-4BD1-AC52-9C52C7F343AA";
shapes = (
{
closed = 1;
nodes = (
(541,-13,o),
(661,131,o),
(661,354,cs),
(661,585,o),
(534,714,o),
(299,714,cs),
(80,714,l),
(80,624,l),
(303,624,ls),
(476,624,o),
(562,531,o),
(562,351,cs),
(562,174,o),
(490,72,o),
(334,72,cs),
(204,72,o),
(152,134,o),
(152,211,cs),
(152,291,o),
(194,329,o),
(269,326,c),
(225,351,l),
(229,314,o),
(260,283,o),
(301,283,cs),
(344,283,o),
(375,317,o),
(375,358,cs),
(375,400,o),
(343,431,o),
(300,431,cs),
(272,431,o),
(249,417,o),
(237,396,c),
(128,390,o),
(64,316,o),
(64,206,cs),
(64,87,o),
(155,-13,o),
(330,-13,cs)
);
}
);
width = 725;
}
);
metricRight = "theCarrier-canadian";
metricWidth = "yeCarrier-canadian";
note = uni1612;
unicode = 5650;
},
{
color = 9;
glyphname = "yaCarrier-canadian";
lastChange = "2023-01-13 15:30:41 +0000";
layers = (
{
layerId = "F8006AA5-6E21-4BD1-AC52-9C52C7F343AA";
shapes = (
{
closed = 1;
nodes = (
(644,0,l),
(644,90,l),
(422,90,ls),
(248,90,o),
(163,183,o),
(163,363,cs),
(163,540,o),
(235,642,o),
(396,642,cs),
(521,642,o),
(573,577,o),
(573,494,cs),
(573,415,o),
(536,372,o),
(480,372,cs),
(422,372,o),
(390,417,o),
(390,490,cs),
(390,517,o),
(392,533,o),
(395,550,c),
(315,550,l),
(310,527,o),
(308,510,o),
(308,482,cs),
(308,371,o),
(372,292,o),
(480,292,cs),
(590,292,o),
(660,373,o),
(660,495,cs),
(660,623,o),
(570,727,o),
(396,727,cs),
(184,727,o),
(64,583,o),
(64,360,cs),
(64,129,o),
(191,0,o),
(426,0,cs)
);
}
);
width = 724;
}
);
metricLeft = "=|theCarrier-canadian";
metricRight = "=|yeCarrier-canadian";
note = uni1613;
unicode = 5651;
},
{
color = 9;
glyphname = "juCarrier-canadian";
lastChange = "2023-01-13 15:30:41 +0000";
layers = (
{
layerId = "F8006AA5-6E21-4BD1-AC52-9C52C7F343AA";
shapes = (
{
closed = 1;
nodes = (
(578,-13,o),
(679,83,o),
(679,228,cs),
(679,341,o),
(610,422,o),
(500,422,cs),
(393,422,o),
(327,343,o),
(327,232,cs),
(327,204,o),
(329,187,o),
(334,164,c),
(414,164,l),
(411,181,o),
(409,198,o),
(409,224,cs),
(409,297,o),
(444,342,o),
(500,342,cs),
(557,342,o),
(592,298,o),
(592,229,cs),
(592,130,o),
(531,72,o),
(406,72,cs),
(252,72,o),
(173,157,o),
(173,317,cs),
(173,529,o),
(311,624,o),
(549,624,cs),
(663,624,l),
(663,714,l),
(66,714,l),
(66,628,l),
(390,628,l),
(477,665,l),
(219,665,o),
(75,533,o),
(75,313,cs),
(75,114,o),
(201,-13,o),
(403,-13,cs)
);
}
);
width = 743;
}
);
metricRight = "=|yeCarrier-canadian";
note = uni1614;
unicode = 5652;
},
{
color = 9;
glyphname = "juSayisi-canadian";
lastChange = "2023-01-13 15:28:14 +0000";
layers = (
{
anchors = (
{
name = top_center_can;
pos = (378,714);
}
);
layerId = "F8006AA5-6E21-4BD1-AC52-9C52C7F343AA";
shapes = (
{
closed = 1;
nodes = (
(543,-13,o),
(669,114,o),
(669,313,cs),
(669,533,o),
(525,665,o),
(267,665,c),
(354,628,l),
(678,628,l),
(678,714,l),
(80,714,l),
(80,624,l),
(195,624,ls),
(433,624,o),
(570,529,o),
(570,317,cs),
(570,157,o),
(491,72,o),
(337,72,cs),
(213,72,o),
(152,130,o),
(152,229,cs),
(152,298,o),
(187,342,o),
(243,342,cs),
(300,342,o),
(335,297,o),
(335,224,cs),
(335,198,o),
(333,181,o),
(330,164,c),
(410,164,l),
(415,187,o),
(417,204,o),
(417,232,cs),
(417,343,o),
(350,422,o),
(244,422,cs),
(134,422,o),
(64,341,o),
(64,228,cs),
(64,83,o),
(165,-13,o),
(341,-13,cs)
);
}
);
width = 744;
}
);
metricLeft = "yeCarrier-canadian";
metricRight = "=|juCarrier-canadian";
note = uni1615;
unicode = 5653;
},
{
color = 9;
glyphname = "joCarrier-canadian";
lastChange = "2023-01-13 15:28:14 +0000";
layers = (
{
layerId = "F8006AA5-6E21-4BD1-AC52-9C52C7F343AA";
shapes = (
{
closed = 1;
nodes = (
(678,0,l),
(678,86,l),
(354,86,l),
(267,49,l),
(525,49,o),
(669,181,o),
(669,401,cs),
(669,600,o),
(543,727,o),
(341,727,cs),
(165,727,o),
(64,631,o),
(64,486,cs),
(64,373,o),
(134,292,o),
(244,292,cs),
(350,292,o),
(417,371,o),
(417,482,cs),
(417,510,o),
(415,527,o),
(410,550,c),
(330,550,l),
(333,533,o),
(335,516,o),
(335,490,cs),
(335,417,o),
(300,372,o),
(243,372,cs),
(187,372,o),
(152,416,o),
(152,485,cs),
(152,584,o),
(213,642,o),
(337,642,cs),
(491,642,o),
(570,557,o),
(570,397,cs),
(570,185,o),
(433,90,o),
(195,90,cs),
(80,90,l),
(80,0,l)
);
}
);
width = 744;
}
);
metricLeft = "yeCarrier-canadian";
metricRight = "=|juCarrier-canadian";
note = uni1616;
unicode = 5654;
},
{
color = 9;
glyphname = "jeCarrier-canadian";
lastChange = "2023-01-13 15:28:14 +0000";
layers = (
{
layerId = "F8006AA5-6E21-4BD1-AC52-9C52C7F343AA";
shapes = (
{
closed = 1;
nodes = (
(640,-13,o),
(718,92,o),
(718,311,cs),
(718,586,o),
(598,727,o),
(421,727,cs),
(259,727,o),
(163,619,o),
(155,406,c),
(177,426,l),
(177,714,l),
(78,714,l),
(78,0,l),
(178,0,l),
(178,278,ls),
(178,529,o),
(257,637,o),
(407,637,cs),
(539,637,o),
(622,539,o),
(622,309,cs),
(622,132,o),
(583,69,o),
(512,69,cs),
(454,69,o),
(420,114,o),
(420,192,cs),
(420,273,o),
(453,317,o),
(521,317,cs),
(536,317,o),
(547,315,o),
(556,313,c),
(556,392,l),
(543,396,o),
(525,399,o),
(510,399,cs),
(403,399,o),
(332,321,o),
(332,195,cs),
(332,65,o),
(407,-13,o),
(514,-13,cs)
);
}
);
width = 789;
}
);
metricLeft = "nunavuth-canadian";
metricRight = "te-canadian";
note = uni1617;
unicode = 5655;
},
{
color = 9;
glyphname = "jeeCarrier-canadian";
lastChange = "2023-01-13 15:28:14 +0000";
layers = (
{
layerId = "F8006AA5-6E21-4BD1-AC52-9C52C7F343AA";
shapes = (
{
closed = 1;
nodes = (
(640,-13,o),
(718,92,o),
(718,311,cs),
(718,586,o),
(598,727,o),
(421,727,cs),
(288,727,o),
(197,656,o),
(165,512,c),
(177,499,l),
(177,714,l),
(78,714,l),
(78,0,l),
(178,0,l),
(178,278,ls),
(178,529,o),
(257,637,o),
(407,637,cs),
(539,637,o),
(622,539,o),
(622,309,cs),
(622,142,o),
(582,69,o),
(497,69,cs),
(428,69,o),
(390,119,o),
(390,201,cs),
(390,274,o),
(417,314,o),
(464,329,c),
(464,240,l),
(519,240,l),
(519,473,l),
(464,473,l),
(464,388,l),
(387,370,o),
(332,304,o),
(332,191,cs),
(332,64,o),
(404,-13,o),
(511,-13,cs)
);
}
);
width = 789;
}
);
metricLeft = "nunavuth-canadian";
metricRight = "jeCarrier-canadian";
note = uni1618;
unicode = 5656;
},
{
color = 9;
glyphname = "jiCarrier-canadian";
lastChange = "2023-01-13 15:28:14 +0000";
layers = (
{
layerId = "F8006AA5-6E21-4BD1-AC52-9C52C7F343AA";
shapes = (
{
closed = 1;
nodes = (
(640,-13,o),
(718,92,o),
(718,311,cs),
(718,586,o),
(598,727,o),
(421,727,cs),
(288,727,o),
(197,656,o),
(165,512,c),
(177,499,l),
(177,714,l),
(78,714,l),
(78,0,l),
(178,0,l),
(178,278,ls),
(178,529,o),
(257,637,o),
(407,637,cs),
(539,637,o),
(622,539,o),
(622,309,cs),
(622,142,o),
(582,69,o),
(497,69,cs),
(428,69,o),
(390,119,o),
(390,201,cs),
(390,252,o),
(404,283,o),
(429,301,c),
(438,290,o),
(452,283,o),
(467,283,cs),
(510,283,o),
(540,317,o),
(540,358,cs),
(540,399,o),
(509,431,o),
(467,431,cs),
(419,431,o),
(389,389,o),
(395,347,c),
(357,317,o),
(332,266,o),
(332,191,cs),
(332,64,o),
(404,-13,o),
(511,-13,cs)
);
}
);
width = 789;
}
);
metricLeft = "nunavuth-canadian";
metricRight = "jeCarrier-canadian";
note = uni1619;
unicode = 5657;
},
{
color = 9;
glyphname = "jiSayisi-canadian";
lastChange = "2023-01-13 15:28:14 +0000";
layers = (
{
layerId = "F8006AA5-6E21-4BD1-AC52-9C52C7F343AA";
shapes = (
{
closed = 1;
nodes = (
(598,-13,o),
(718,128,o),
(718,403,cs),
(718,622,o),
(640,727,o),
(514,727,cs),
(407,727,o),
(332,649,o),
(332,519,cs),
(332,393,o),
(403,315,o),
(510,315,cs),
(525,315,o),
(543,318,o),
(556,322,c),
(556,401,l),
(547,399,o),
(536,397,o),
(521,397,cs),
(453,397,o),
(420,441,o),
(420,522,cs),
(420,600,o),
(453,645,o),
(510,645,cs),
(583,645,o),
(622,582,o),
(622,405,cs),
(622,175,o),
(539,77,o),
(407,77,cs),
(257,77,o),
(178,185,o),
(178,436,cs),
(178,714,l),
(78,714,l),
(78,0,l),
(177,0,l),
(177,288,l),
(155,308,l),
(163,95,o),
(259,-13,o),
(421,-13,cs)
);
}
);
width = 789;
}
);
metricLeft = "nunavuth-canadian";
metricRight = "jeCarrier-canadian";
note = uni161A;
unicode = 5658;
},
{
color = 9;
glyphname = "jaCarrier-canadian";
lastChange = "2023-01-13 15:30:41 +0000";
layers = (
{
anchors = (
{
name = top_center_can;
pos = (387,714);
}
);
layerId = "F8006AA5-6E21-4BD1-AC52-9C52C7F343AA";
shapes = (
{
closed = 1;
nodes = (
(530,-13,o),
(626,95,o),
(634,308,c),
(612,288,l),
(612,0,l),
(710,0,l),
(710,714,l),
(611,714,l),
(611,436,ls),
(611,185,o),
(531,77,o),
(382,77,cs),
(250,77,o),
(166,175,o),
(166,405,cs),
(166,582,o),
(206,645,o),
(278,645,cs),
(336,645,o),
(369,600,o),
(369,522,cs),
(369,441,o),
(336,397,o),
(268,397,cs),
(253,397,o),
(242,399,o),
(233,401,c),
(233,322,l),
(245,318,o),
(264,315,o),
(278,315,cs),
(386,315,o),
(457,393,o),
(457,519,cs),
(457,649,o),
(382,727,o),
(275,727,cs),
(149,727,o),
(71,622,o),
(71,403,cs),
(71,128,o),
(191,-13,o),
(368,-13,cs)
);
}
);
width = 788;
}
);
metricLeft = "=|jeCarrier-canadian";
metricRight = "nunavuth-canadian";
note = uni161B;
unicode = 5659;
},
{
color = 9;
glyphname = "jjuCarrier-canadian";
lastChange = "2023-01-13 15:28:14 +0000";
layers = (
{
layerId = "F8006AA5-6E21-4BD1-AC52-9C52C7F343AA";
shapes = (
{
closed = 1;
nodes = (
(575,-13,o),
(667,91,o),
(667,219,cs),
(667,341,o),
(596,422,o),
(486,422,cs),
(377,422,o),
(312,343,o),
(312,232,cs),
(312,204,o),
(314,187,o),
(320,164,c),
(400,164,l),
(397,181,o),
(394,199,o),
(394,224,cs),
(394,297,o),
(427,342,o),
(485,342,cs),
(540,342,o),
(577,298,o),
(577,221,cs),
(577,137,o),
(521,71,o),
(400,71,cs),
(241,71,o),
(169,169,o),
(169,324,cs),
(169,517,o),
(280,624,o),
(503,624,cs),
(651,624,l),
(651,714,l),
(498,714,ls),
(367,714,o),
(264,679,o),
(194,616,c),
(83,727,l),
(18,663,l),
(132,549,l),
(91,490,o),
(70,414,o),
(70,327,cs),
(70,126,o),
(189,-13,o),
(399,-13,cs)
);
}
);
width = 731;
}
);
metricRight = "=|yeCarrier-canadian";
note = uni161C;
unicode = 5660;
},
{
color = 9;
glyphname = "jjoCarrier-canadian";
lastChange = "2023-01-13 15:28:14 +0000";
layers = (
{
layerId = "F8006AA5-6E21-4BD1-AC52-9C52C7F343AA";
shapes = (
{
closed = 1;
nodes = (
(713,51,l),
(599,165,l),
(640,224,o),
(661,300,o),
(661,387,cs),
(661,588,o),
(542,727,o),
(335,727,cs),
(159,727,o),
(64,623,o),
(64,494,cs),
(64,373,o),
(134,292,o),
(245,292,cs),
(354,292,o),
(419,371,o),
(419,482,cs),
(419,510,o),
(417,527,o),
(411,550,c),
(331,550,l),
(334,533,o),
(336,515,o),
(336,490,cs),
(336,417,o),
(304,372,o),
(246,372,cs),
(190,372,o),
(154,416,o),
(154,493,cs),
(154,577,o),
(207,643,o),
(334,643,cs),
(490,643,o),
(562,545,o),
(562,390,cs),
(562,197,o),
(451,90,o),
(227,90,cs),
(80,90,l),
(80,0,l),
(233,0,ls),
(364,0,o),
(467,35,o),
(537,98,c),
(648,-13,l)
);
}
);
width = 731;
}
);
metricLeft = "yeCarrier-canadian";
metricRight = "=|jjuCarrier-canadian";
note = uni161D;
unicode = 5661;
},
{
color = 9;
glyphname = "jjeCarrier-canadian";
lastChange = "2023-01-13 15:28:14 +0000";
layers = (
{
layerId = "F8006AA5-6E21-4BD1-AC52-9C52C7F343AA";
shapes = (
{
closed = 1;
nodes = (
(648,-13,o),
(726,92,o),
(726,311,cs),
(726,583,o),
(611,727,o),
(407,727,cs),
(316,727,o),
(240,695,o),
(184,634,c),
(89,727,l),
(26,661,l),
(132,557,l),
(102,500,o),
(86,427,o),
(86,340,cs),
(86,0,l),
(186,0,l),
(186,338,ls),
(186,537,o),
(265,637,o),
(407,637,cs),
(546,637,o),
(630,543,o),
(630,308,cs),
(630,132,o),
(591,69,o),
(519,69,cs),
(461,69,o),
(427,114,o),
(427,192,cs),
(427,273,o),
(461,317,o),
(528,317,cs),
(544,317,o),
(555,315,o),
(564,313,c),
(564,392,l),
(551,396,o),
(533,399,o),
(518,399,cs),
(411,399,o),
(340,321,o),
(340,195,cs),
(340,65,o),
(415,-13,o),
(522,-13,cs)
);
}
);
width = 797;
}
);
metricRight = "jeCarrier-canadian";
note = uni161E;
unicode = 5662;
},
{
color = 9;
glyphname = "jjeeCarrier-canadian";
lastChange = "2023-01-13 15:28:14 +0000";
layers = (
{
layerId = "F8006AA5-6E21-4BD1-AC52-9C52C7F343AA";
shapes = (
{
closed = 1;
nodes = (
(648,-13,o),
(726,92,o),
(726,311,cs),
(726,583,o),
(611,727,o),
(407,727,cs),
(316,727,o),
(240,695,o),
(184,634,c),
(89,727,l),
(26,661,l),
(132,557,l),
(102,500,o),
(86,427,o),
(86,340,cs),
(86,0,l),
(186,0,l),
(186,338,ls),
(186,537,o),
(265,637,o),
(407,637,cs),
(546,637,o),
(630,543,o),
(630,308,cs),
(630,142,o),
(590,69,o),
(504,69,cs),
(435,69,o),
(398,119,o),
(398,201,cs),
(398,273,o),
(425,313,o),
(468,327,c),
(468,240,l),
(523,240,l),
(523,472,l),
(468,472,l),
(468,387,l),
(393,370,o),
(340,302,o),
(340,191,cs),
(340,64,o),
(412,-13,o),
(518,-13,cs)
);
}
);
width = 797;
}
);
metricLeft = "jjeCarrier-canadian";
metricRight = "jeCarrier-canadian";
note = uni161F;
unicode = 5663;
},
{
color = 9;
glyphname = "jjiCarrier-canadian";
lastChange = "2023-01-13 15:28:14 +0000";
layers = (
{
layerId = "F8006AA5-6E21-4BD1-AC52-9C52C7F343AA";
shapes = (
{
closed = 1;
nodes = (
(648,-13,o),
(726,92,o),
(726,311,cs),
(726,583,o),
(611,727,o),
(407,727,cs),
(316,727,o),
(240,695,o),
(184,634,c),
(89,727,l),
(26,661,l),
(132,557,l),
(102,500,o),
(86,427,o),
(86,340,cs),
(86,0,l),
(186,0,l),
(186,338,ls),
(186,537,o),
(265,637,o),
(407,637,cs),
(546,637,o),
(630,543,o),
(630,308,cs),
(630,142,o),
(590,69,o),
(504,69,cs),
(435,69,o),
(398,119,o),
(398,201,cs),
(398,255,o),
(414,288,o),
(441,304,c),
(451,292,o),
(467,283,o),
(485,283,cs),
(528,283,o),
(558,317,o),
(558,358,cs),
(558,399,o),
(527,431,o),
(485,431,cs),
(441,431,o),
(411,395,o),
(413,356,c),
(368,327,o),
(340,272,o),
(340,191,cs),
(340,64,o),
(412,-13,o),
(518,-13,cs)
);
}
);
width = 797;
}
);
metricLeft = "jjeCarrier-canadian";
metricRight = "jeCarrier-canadian";
note = uni1620;
unicode = 5664;
},
{
color = 9;
glyphname = "jjaCarrier-canadian";
lastChange = "2023-01-13 15:28:14 +0000";
layers = (
{
layerId = "F8006AA5-6E21-4BD1-AC52-9C52C7F343AA";
shapes = (
{
closed = 1;
nodes = (
(480,-13,o),
(557,19,o),
(612,80,c),
(707,-13,l),
(771,53,l),
(665,157,l),
(694,214,o),
(710,287,o),
(710,374,cs),
(710,714,l),
(611,714,l),
(611,376,ls),
(611,177,o),
(531,77,o),
(390,77,cs),
(250,77,o),
(166,171,o),
(166,406,cs),
(166,582,o),
(206,645,o),
(278,645,cs),
(336,645,o),
(369,600,o),
(369,522,cs),
(369,441,o),
(336,397,o),
(269,397,cs),
(253,397,o),
(242,399,o),
(233,401,c),
(233,322,l),
(245,318,o),
(264,315,o),
(279,315,cs),
(386,315,o),
(457,393,o),
(457,519,cs),
(457,649,o),
(382,727,o),
(275,727,cs),
(149,727,o),
(71,622,o),
(71,403,cs),
(71,131,o),
(185,-13,o),
(389,-13,cs)
);
}
);
width = 797;
}
);
metricLeft = "=|jeCarrier-canadian";
metricRight = "=|jjeCarrier-canadian";
note = uni1621;
unicode = 5665;
},
{
color = 9;
glyphname = "luCarrier-canadian";
lastChange = "2023-01-13 15:30:41 +0000";
layers = (
{
layerId = "F8006AA5-6E21-4BD1-AC52-9C52C7F343AA";
shapes = (
{
closed = 1;
nodes = (
(557,-13,o),
(669,98,o),
(669,304,cs),
(669,714,l),
(569,714,l),
(569,303,ls),
(569,150,o),
(496,77,o),
(378,77,cs),
(242,77,o),
(171,170,o),
(171,336,cs),
(171,521,o),
(248,625,o),
(400,634,c),
(400,714,l),
(63,714,l),
(63,631,l),
(283,631,l),
(351,666,l),
(179,650,o),
(72,542,o),
(72,322,cs),
(72,115,o),
(182,-13,o),
(374,-13,cs)
);
}
);
width = 740;
}
);
metricRight = "te-canadian";
note = uni1622;
unicode = 5666;
},
{
color = 9;
glyphname = "loCarrier-canadian";
lastChange = "2023-01-13 15:28:14 +0000";
layers = (
{
layerId = "F8006AA5-6E21-4BD1-AC52-9C52C7F343AA";
shapes = (
{
closed = 1;
nodes = (
(170,0,l),
(170,411,ls),
(170,564,o),
(243,637,o),
(365,637,cs),
(497,637,o),
(568,544,o),
(568,378,cs),
(568,193,o),
(492,89,o),
(339,80,c),
(339,0,l),
(676,0,l),
(676,83,l),
(456,83,l),
(388,48,l),
(560,64,o),
(667,172,o),
(667,392,cs),
(667,599,o),
(557,727,o),
(365,727,cs),
(182,727,o),
(71,616,o),
(71,410,cs),
(71,0,l)
);
}
);
width = 739;
}
);
metricLeft = "te-canadian";
metricRight = "=|luCarrier-canadian";
note = uni1623;
unicode = 5667;
},
{
color = 9;
glyphname = "leCarrier-canadian";
lastChange = "2023-01-13 15:28:14 +0000";
layers = (
{
anchors = (
{
name = middle_center_can;
pos = (357,360);
}
);
layerId = "F8006AA5-6E21-4BD1-AC52-9C52C7F343AA";
shapes = (
{
closed = 1;
nodes = (
(307,0,ls),
(532,0,o),
(655,132,o),
(655,370,cs),
(655,599,o),
(539,727,o),
(380,727,cs),
(257,727,o),
(175,649,o),
(154,541,c),
(163,541,l),
(163,714,l),
(74,714,l),
(74,395,l),
(158,395,l),
(164,544,o),
(238,637,o),
(357,637,cs),
(475,637,o),
(556,548,o),
(556,368,cs),
(556,185,o),
(471,90,o),
(305,90,cs),
(74,90,l),
(74,0,l)
);
}
);
width = 719;
}
);
metricRight = "theCarrier-canadian";
note = uni1624;
unicode = 5668;
},
{
color = 9;
glyphname = "laCarrier-canadian";
lastChange = "2023-01-13 15:30:41 +0000";
layers = (
{
layerId = "F8006AA5-6E21-4BD1-AC52-9C52C7F343AA";
shapes = (
{
closed = 1;
nodes = (
(644,0,l),
(644,90,l),
(413,90,ls),
(247,90,o),
(163,185,o),
(163,368,cs),
(163,548,o),
(244,637,o),
(363,637,cs),
(481,637,o),
(554,544,o),
(560,395,c),
(644,395,l),
(644,714,l),
(555,714,l),
(555,541,l),
(564,541,l),
(543,649,o),
(463,727,o),
(340,727,cs),
(180,727,o),
(64,599,o),
(64,370,cs),
(64,132,o),
(187,0,o),
(411,0,cs)
);
}
);
width = 718;
}
);
metricLeft = "=|theCarrier-canadian";
metricRight = "=|leCarrier-canadian";
note = uni1627;
unicode = 5671;
},
{
color = 1;
glyphname = "dluCarrier-canadian";
lastChange = "2023-01-13 15:28:14 +0000";
layers = (
{
layerId = "F8006AA5-6E21-4BD1-AC52-9C52C7F343AA";
shapes = (
{
closed = 1;
nodes = (
(557,-13,o),
(667,115,o),
(667,322,cs),
(667,509,o),
(591,613,o),
(472,650,c),
(454,638,l),
(661,638,l),
(661,554,l),
(735,554,l),
(735,798,l),
(661,798,l),
(661,714,l),
(339,714,l),
(339,633,l),
(492,625,o),
(568,521,o),
(568,336,cs),
(568,170,o),
(497,77,o),
(368,77,cs),
(243,77,o),
(170,152,o),
(170,305,cs),
(170,714,l),
(71,714,l),
(71,306,ls),
(71,100,o),
(182,-13,o),
(367,-13,cs)
);
}
);
width = 787;
}
);
metricLeft = "te-canadian";
note = uni1628;
unicode = 5672;
},
{
color = 9;
glyphname = "dloCarrier-canadian";
lastChange = "2023-01-13 15:28:14 +0000";
layers = (
{
layerId = "F8006AA5-6E21-4BD1-AC52-9C52C7F343AA";
shapes = (
{
closed = 1;
nodes = (
(735,-84,l),
(735,160,l),
(661,160,l),
(661,76,l),
(454,76,l),
(472,64,l),
(591,101,o),
(667,205,o),
(667,392,cs),
(667,599,o),
(557,727,o),
(370,727,cs),
(179,727,o),
(71,614,o),
(71,408,cs),
(71,0,l),
(170,0,l),
(170,409,ls),
(170,562,o),
(243,637,o),
(368,637,cs),
(497,637,o),
(568,544,o),
(568,378,cs),
(568,193,o),
(492,89,o),
(339,81,c),
(339,0,l),
(661,0,l),
(661,-84,l)
);
}
);
width = 787;
}
);
metricLeft = "te-canadian";
metricRight = "dluCarrier-canadian";
note = uni1629;
unicode = 5673;
},
{
color = 9;
glyphname = "dleCarrier-canadian";
lastChange = "2023-01-13 15:30:41 +0000";
layers = (
{
anchors = (
{
name = middle_center_can;
pos = (369,360);
}
);
layerId = "F8006AA5-6E21-4BD1-AC52-9C52C7F343AA";
shapes = (
{
closed = 1;
nodes = (
(319,0,ls),
(544,0,o),
(667,132,o),
(667,370,cs),
(667,599,o),
(552,727,o),
(392,727,cs),
(273,727,o),
(183,658,o),
(148,528,c),
(161,517,l),
(161,724,l),
(242,724,l),
(242,796,l),
(6,796,l),
(6,724,l),
(86,724,l),
(86,395,l),
(170,395,l),
(176,544,o),
(250,637,o),
(369,637,cs),
(488,637,o),
(568,548,o),
(568,368,cs),
(568,185,o),
(483,90,o),
(317,90,cs),
(86,90,l),
(86,0,l)
);
}
);
width = 731;
}
);
metricRight = "theCarrier-canadian";
note = uni162A;
unicode = 5674;
},
{
color = 9;
glyphname = "dlaCarrier-canadian";
lastChange = "2023-01-13 15:30:41 +0000";
layers = (
{
layerId = "F8006AA5-6E21-4BD1-AC52-9C52C7F343AA";
shapes = (
{
closed = 1;
nodes = (
(644,0,l),
(644,90,l),
(413,90,ls),
(249,90,o),
(163,183,o),
(163,368,cs),
(163,548,o),
(243,637,o),
(362,637,cs),
(480,637,o),
(554,544,o),
(560,395,c),
(644,395,l),
(644,724,l),
(725,724,l),
(725,796,l),
(489,796,l),
(489,724,l),
(570,724,l),
(570,517,l),
(583,528,l),
(548,658,o),
(458,727,o),
(339,727,cs),
(179,727,o),
(64,599,o),
(64,370,cs),
(64,130,o),
(188,0,o),
(411,0,cs)
);
}
);
width = 731;
}
);
metricLeft = "=|theCarrier-canadian";
metricRight = "=|dleCarrier-canadian";
note = uni162D;
unicode = 5677;
},
{
color = 9;
glyphname = "lhuCarrier-canadian";
lastChange = "2023-01-13 15:28:14 +0000";
layers = (
{
layerId = "F8006AA5-6E21-4BD1-AC52-9C52C7F343AA";
shapes = (
{
closed = 1;
nodes = (
(591,-13,o),
(702,116,o),
(702,327,cs),
(702,534,o),
(603,635,o),
(471,664,c),
(510,629,l),
(711,629,l),
(711,714,l),
(447,714,l),
(447,634,l),
(531,602,o),
(602,512,o),
(602,342,cs),
(602,167,o),
(531,77,o),
(387,77,cs),
(243,77,o),
(172,167,o),
(172,342,cs),
(172,512,o),
(243,602,o),
(327,634,c),
(327,714,l),
(63,714,l),
(63,629,l),
(263,629,l),
(303,664,l),
(171,635,o),
(72,534,o),
(72,327,cs),
(72,116,o),
(183,-13,o),
(387,-13,cs)
);
}
);
width = 774;
}
);
metricLeft = "luCarrier-canadian";
metricRight = "=|";
note = uni162E;
unicode = 5678;
},
{
color = 9;
glyphname = "lhoCarrier-canadian";
lastChange = "2023-01-13 15:28:14 +0000";
layers = (
{
layerId = "F8006AA5-6E21-4BD1-AC52-9C52C7F343AA";
shapes = (
{
closed = 1;
nodes = (
(327,0,l),
(327,80,l),
(243,112,o),
(172,202,o),
(172,372,cs),
(172,547,o),
(243,637,o),
(387,637,cs),
(531,637,o),
(602,547,o),
(602,372,cs),
(602,202,o),
(531,112,o),
(447,80,c),
(447,0,l),
(711,0,l),
(711,85,l),
(511,85,l),
(471,50,l),
(603,79,o),
(702,180,o),
(702,387,cs),
(702,598,o),
(591,727,o),
(387,727,cs),
(183,727,o),
(72,598,o),
(72,387,cs),
(72,180,o),
(171,79,o),
(303,50,c),
(264,85,l),
(63,85,l),
(63,0,l)
);
}
);
width = 774;
}
);
metricLeft = "luCarrier-canadian";
metricRight = "=|";
note = uni162F;
unicode = 5679;
},
{
color = 9;
glyphname = "lheCarrier-canadian";
lastChange = "2023-01-13 15:30:41 +0000";
layers = (
{
anchors = (
{
name = middle_center_can;
pos = (374,357);
}
);
layerId = "F8006AA5-6E21-4BD1-AC52-9C52C7F343AA";
shapes = (
{
closed = 1;
nodes = (
(564,-13,o),
(684,115,o),
(684,357,cs),
(684,599,o),
(564,727,o),
(395,727,cs),
(267,727,o),
(185,650,o),
(161,554,c),
(168,553,l),
(168,714,l),
(78,714,l),
(78,430,l),
(162,430,l),
(177,545,o),
(247,637,o),
(374,637,cs),
(495,637,o),
(585,549,o),
(585,357,cs),
(585,165,o),
(499,77,o),
(374,77,cs),
(247,77,o),
(177,169,o),
(162,284,c),
(78,284,l),
(78,0,l),
(168,0,l),
(168,161,l),
(161,160,l),
(185,64,o),
(267,-13,o),
(395,-13,cs)
);
}
);
width = 748;
}
);
metricLeft = "nunavuth-canadian";
metricRight = "theCarrier-canadian";
note = uni1630;
unicode = 5680;
},
{
color = 9;
glyphname = "lhaCarrier-canadian";
lastChange = "2023-01-13 15:30:41 +0000";
layers = (
{
layerId = "F8006AA5-6E21-4BD1-AC52-9C52C7F343AA";
shapes = (
{
closed = 1;
nodes = (
(481,-13,o),
(563,64,o),
(587,160,c),
(580,161,l),
(580,0,l),
(670,0,l),
(670,284,l),
(586,284,l),
(571,169,o),
(501,77,o),
(374,77,cs),
(253,77,o),
(163,165,o),
(163,357,cs),
(163,549,o),
(249,637,o),
(374,637,cs),
(501,637,o),
(571,545,o),
(586,430,c),
(670,430,l),
(670,714,l),
(580,714,l),
(580,553,l),
(587,554,l),
(563,650,o),
(481,727,o),
(353,727,cs),
(184,727,o),
(64,599,o),
(64,357,cs),
(64,115,o),
(184,-13,o),
(353,-13,cs)
);
}
);
width = 748;
}
);
metricLeft = "=|theCarrier-canadian";
metricRight = "nunavuth-canadian";
note = uni1633;
unicode = 5683;
},
{
color = 9;
glyphname = "tlhuCarrier-canadian";
lastChange = "2023-01-13 15:28:14 +0000";
layers = (
{
layerId = "F8006AA5-6E21-4BD1-AC52-9C52C7F343AA";
shapes = (
{
closed = 1;
nodes = (
(591,-13,o),
(702,116,o),
(702,327,cs),
(702,507,o),
(626,607,o),
(525,649,c),
(503,638,l),
(695,638,l),
(695,554,l),
(770,554,l),
(770,798,l),
(695,798,l),
(695,714,l),
(447,714,l),
(447,634,l),
(532,602,o),
(603,512,o),
(603,342,cs),
(603,167,o),
(531,77,o),
(387,77,cs),
(243,77,o),
(172,167,o),
(172,342,cs),
(172,512,o),
(242,602,o),
(327,634,c),
(327,714,l),
(63,714,l),
(63,629,l),
(258,629,l),
(235,643,l),
(140,598,o),
(72,501,o),
(72,327,cs),
(72,116,o),
(183,-13,o),
(387,-13,cs)
);
}
);
width = 813;
}
);
metricLeft = "lhuCarrier-canadian";
note = uni1634;
unicode = 5684;
},
{
color = 9;
glyphname = "tlhoCarrier-canadian";
lastChange = "2023-01-13 15:30:41 +0000";
layers = (
{
layerId = "F8006AA5-6E21-4BD1-AC52-9C52C7F343AA";
shapes = (
{
closed = 1;
nodes = (
(117,-84,l),
(117,0,l),
(365,0,l),
(365,80,l),
(281,112,o),
(210,202,o),
(210,372,cs),
(210,547,o),
(282,637,o),
(426,637,cs),
(569,637,o),
(641,547,o),
(641,372,cs),
(641,202,o),
(570,112,o),
(486,80,c),
(486,0,l),
(749,0,l),
(749,85,l),
(555,85,l),
(578,71,l),
(672,116,o),
(740,213,o),
(740,387,cs),
(740,598,o),
(630,727,o),
(426,727,cs),
(221,727,o),
(111,598,o),
(111,387,cs),
(111,207,o),
(186,107,o),
(288,65,c),
(309,76,l),
(117,76,l),
(117,160,l),
(43,160,l),
(43,-84,l)
);
}
);
width = 812;
}
);
metricLeft = "=|tlhuCarrier-canadian";
metricRight = "lhuCarrier-canadian";
note = uni1635;
unicode = 5685;
},
{
color = 9;
glyphname = "tlheCarrier-canadian";
lastChange = "2023-01-13 15:30:41 +0000";
layers = (
{
anchors = (
{
name = middle_center_can;
pos = (382,357);
}
);
layerId = "F8006AA5-6E21-4BD1-AC52-9C52C7F343AA";
shapes = (
{
closed = 1;
nodes = (
(572,-13,o),
(692,115,o),
(692,357,cs),
(692,599,o),
(572,727,o),
(404,727,cs),
(277,727,o),
(185,654,o),
(149,535,c),
(162,523,l),
(162,724,l),
(243,724,l),
(243,796,l),
(6,796,l),
(6,724,l),
(86,724,l),
(86,430,l),
(170,430,l),
(185,545,o),
(255,637,o),
(382,637,cs),
(503,637,o),
(593,550,o),
(593,357,cs),
(593,165,o),
(503,77,o),
(382,77,cs),
(255,77,o),
(185,169,o),
(170,284,c),
(86,284,l),
(86,0,l),
(176,0,l),
(176,183,l),
(168,164,l),
(189,68,o),
(274,-13,o),
(404,-13,cs)
);
}
);
width = 756;
}
);
metricLeft = "dleCarrier-canadian";
metricRight = "theCarrier-canadian";
note = uni1636;
unicode = 5686;
},
{
color = 9;
glyphname = "tlhaCarrier-canadian";
lastChange = "2023-01-13 15:30:41 +0000";
layers = (
{
layerId = "F8006AA5-6E21-4BD1-AC52-9C52C7F343AA";
shapes = (
{
closed = 1;
nodes = (
(482,-13,o),
(568,65,o),
(588,165,c),
(580,184,l),
(580,0,l),
(670,0,l),
(670,284,l),
(586,284,l),
(571,169,o),
(501,77,o),
(374,77,cs),
(253,77,o),
(163,165,o),
(163,357,cs),
(163,550,o),
(249,637,o),
(374,637,cs),
(501,637,o),
(571,545,o),
(586,430,c),
(670,430,l),
(670,724,l),
(751,724,l),
(751,796,l),
(513,796,l),
(513,724,l),
(594,724,l),
(594,522,l),
(607,534,l),
(572,657,o),
(479,727,o),
(353,727,cs),
(184,727,o),
(64,599,o),
(64,357,cs),
(64,115,o),
(184,-13,o),
(353,-13,cs)
);
}
);
width = 757;
}
);
metricLeft = "=|theCarrier-canadian";
metricRight = "=|dleCarrier-canadian";
note = uni1639;
unicode = 5689;
},
{
color = 9;
glyphname = "tluCarrier-canadian";
lastChange = "2023-01-13 15:28:14 +0000";
layers = (
{
layerId = "F8006AA5-6E21-4BD1-AC52-9C52C7F343AA";
shapes = (
{
closed = 1;
nodes = (
(372,-13,o),
(435,35,o),
(462,128,c),
(432,128,l),
(460,35,o),
(522,-13,o),
(607,-13,cs),
(744,-13,o),
(822,85,o),
(822,289,cs),
(822,500,o),
(751,609,o),
(638,650,c),
(617,638,l),
(816,638,l),
(816,554,l),
(890,554,l),
(890,798,l),
(816,798,l),
(816,714,l),
(507,714,l),
(507,633,l),
(650,629,o),
(722,520,o),
(722,297,cs),
(722,135,o),
(679,75,o),
(601,75,cs),
(537,75,o),
(495,128,o),
(495,231,cs),
(495,313,l),
(399,313,l),
(399,231,ls),
(399,128,o),
(357,75,o),
(293,75,cs),
(215,75,o),
(172,135,o),
(172,297,cs),
(172,520,o),
(244,629,o),
(387,633,c),
(387,714,l),
(63,714,l),
(63,629,l),
(265,629,l),
(242,643,l),
(138,600,o),
(73,492,o),
(73,289,cs),
(73,85,o),
(150,-13,o),
(287,-13,cs)
);
}
);
width = 933;
}
);
metricRight = "tlhuCarrier-canadian";
note = uni163A;
unicode = 5690;
},
{
color = 1;
glyphname = "tloCarrier-canadian";
lastChange = "2023-01-13 15:28:14 +0000";
layers = (
{
layerId = "F8006AA5-6E21-4BD1-AC52-9C52C7F343AA";
shapes = (
{
closed = 1;
nodes = (
(890,-84,l),
(890,160,l),
(816,160,l),
(816,76,l),
(617,76,l),
(638,64,l),
(751,105,o),
(822,214,o),
(822,425,cs),
(822,629,o),
(744,727,o),
(607,727,cs),
(522,727,o),
(460,679,o),
(432,586,c),
(462,586,l),
(435,679,o),
(372,727,o),
(287,727,cs),
(150,727,o),
(73,629,o),
(73,425,cs),
(73,222,o),
(138,114,o),
(242,71,c),
(265,85,l),
(63,85,l),
(63,0,l),
(387,0,l),
(387,81,l),
(244,85,o),
(172,194,o),
(172,417,cs),
(172,579,o),
(215,639,o),
(293,639,cs),
(357,639,o),
(399,586,o),
(399,483,cs),
(399,401,l),
(495,401,l),
(495,483,ls),
(495,586,o),
(537,639,o),
(601,639,cs),
(679,639,o),
(722,579,o),
(722,417,cs),
(722,194,o),
(650,85,o),
(507,81,c),
(507,0,l),
(816,0,l),
(816,-84,l)
);
}
);
width = 933;
}
);
metricLeft = "tluCarrier-canadian";
metricRight = "tlhuCarrier-canadian";
note = uni163B;
unicode = 5691;
},
{
color = 9;
glyphname = "tleCarrier-canadian";
lastChange = "2023-01-13 15:28:14 +0000";
layers = (
{
anchors = (
{
name = middle_center_can;
pos = (298,357);
}
);
layerId = "F8006AA5-6E21-4BD1-AC52-9C52C7F343AA";
shapes = (
{
closed = 1;
nodes = (
(606,-13,o),
(683,76,o),
(683,192,cs),
(683,279,o),
(631,348,o),
(542,369,c),
(542,346,l),
(632,364,o),
(683,433,o),
(683,522,cs),
(683,638,o),
(606,727,o),
(434,727,cs),
(280,727,o),
(183,658,o),
(150,545,c),
(161,529,l),
(161,724,l),
(242,724,l),
(242,796,l),
(6,796,l),
(6,724,l),
(86,724,l),
(86,430,l),
(170,430,l),
(177,553,o),
(248,638,o),
(413,638,cs),
(533,638,o),
(584,590,o),
(584,512,cs),
(584,439,o),
(534,399,o),
(443,399,cs),
(399,399,l),
(399,316,l),
(443,316,ls),
(538,316,o),
(584,275,o),
(584,202,cs),
(584,124,o),
(529,76,o),
(412,76,cs),
(248,76,o),
(177,161,o),
(170,284,c),
(86,284,l),
(86,0,l),
(176,0,l),
(176,169,l),
(162,152,l),
(198,48,o),
(285,-13,o),
(434,-13,cs)
);
}
);
width = 757;
}
);
metricLeft = "dleCarrier-canadian";
metricRight = "geCarrier-canadian";
note = uni163C;
unicode = 5692;
},
{
color = 9;
glyphname = "tlaCarrier-canadian";
lastChange = "2023-01-13 15:30:41 +0000";
layers = (
{
layerId = "F8006AA5-6E21-4BD1-AC52-9C52C7F343AA";
shapes = (
{
closed = 1;
nodes = (
(472,-13,o),
(559,48,o),
(595,152,c),
(581,169,l),
(581,0,l),
(671,0,l),
(671,284,l),
(587,284,l),
(580,161,o),
(509,76,o),
(345,76,cs),
(228,76,o),
(173,124,o),
(173,202,cs),
(173,275,o),
(219,316,o),
(314,316,cs),
(373,316,l),
(373,399,l),
(314,399,ls),
(223,399,o),
(173,439,o),
(173,512,cs),
(173,590,o),
(224,638,o),
(345,638,cs),
(509,638,o),
(580,553,o),
(587,430,c),
(671,430,l),
(671,724,l),
(752,724,l),
(752,796,l),
(516,796,l),
(516,724,l),
(596,724,l),
(596,529,l),
(607,545,l),
(574,658,o),
(477,727,o),
(323,727,cs),
(152,727,o),
(74,638,o),
(74,522,cs),
(74,433,o),
(125,365,o),
(215,345,c),
(215,369,l),
(126,348,o),
(74,279,o),
(74,192,cs),
(74,76,o),
(152,-13,o),
(323,-13,cs)
);
}
);
width = 758;
}
);
metricLeft = "=|geCarrier-canadian";
metricRight = "=|dleCarrier-canadian";
note = uni163F;
unicode = 5695;
},
{
color = 9;
glyphname = "zuCarrier-canadian";
lastChange = "2023-01-13 15:30:41 +0000";
layers = (
{
layerId = "F8006AA5-6E21-4BD1-AC52-9C52C7F343AA";
shapes = (
{
closed = 1;
nodes = (
(583,-13,o),
(700,91,o),
(700,249,cs),
(700,372,o),
(606,496,o),
(606,566,cs),
(606,601,o),
(623,628,o),
(678,628,cs),
(710,628,l),
(710,714,l),
(657,714,ls),
(553,714,o),
(509,657,o),
(509,580,cs),
(509,485,o),
(600,376,o),
(600,263,cs),
(600,147,o),
(523,77,o),
(385,77,cs),
(247,77,o),
(170,147,o),
(170,263,cs),
(170,376,o),
(261,485,o),
(261,580,cs),
(261,657,o),
(217,714,o),
(113,714,cs),
(61,714,l),
(61,628,l),
(93,628,ls),
(147,628,o),
(164,601,o),
(164,566,cs),
(164,496,o),
(70,372,o),
(70,249,cs),
(70,91,o),
(187,-13,o),
(385,-13,cs)
);
}
);
width = 771;
}
);
metricRight = "=|";
note = uni1640;
unicode = 5696;
},
{
color = 9;
glyphname = "zoCarrier-canadian";
lastChange = "2023-01-13 15:30:41 +0000";
layers = (
{
layerId = "F8006AA5-6E21-4BD1-AC52-9C52C7F343AA";
shapes = (
{
closed = 1;
nodes = (
(113,0,ls),
(217,0,o),
(261,57,o),
(261,134,cs),
(261,229,o),
(170,338,o),
(170,451,cs),
(170,567,o),
(247,637,o),
(385,637,cs),
(524,637,o),
(601,567,o),
(601,451,cs),
(601,338,o),
(509,229,o),
(509,134,cs),
(509,57,o),
(554,0,o),
(657,0,cs),
(710,0,l),
(710,86,l),
(678,86,ls),
(623,86,o),
(606,113,o),
(606,148,cs),
(606,218,o),
(700,342,o),
(700,465,cs),
(700,623,o),
(583,727,o),
(385,727,cs),
(187,727,o),
(71,623,o),
(71,465,cs),
(71,342,o),
(164,218,o),
(164,148,cs),
(164,113,o),
(147,86,o),
(93,86,cs),
(61,86,l),
(61,0,l)
);
}
);
width = 771;
}
);
metricLeft = "zuCarrier-canadian";
metricRight = "zuCarrier-canadian";
note = uni1641;
unicode = 5697;
},
